<?xml version="1.0" encoding="utf-8"?>
<svg viewBox="0 0 24 24" fill="none" xmlns="http://www.w3.org/2000/svg">
  <path d="M 11.991 17.979 C 8.688 17.977 6.015 15.301 6.016 11.996 C 6.019 8.683 8.696 6.017 12.018 6.02 C 15.318 6.024 17.993 8.712 17.983 12.012 C 17.973 15.315 15.295 17.981 11.99 17.978 L 11.991 17.979 Z M 6.495 11.999 C 6.495 15.023 8.979 17.505 12.004 17.502 C 15.021 17.499 17.5 15.026 17.505 12.012 C 17.511 8.991 15.031 6.504 12.006 6.496 C 8.987 6.488 6.496 8.976 6.495 11.999 Z" fill="black" style="" transform="matrix(0.9999999999999999, 0, 0, 0.9999999999999999, -4.440892098500626e-16, -4.440892098500626e-16)"/>
  <path d="M 5.012 9.251 C 4.95 9.435 4.892 9.568 4.86 9.707 C 4.755 10.153 4.655 10.601 4.563 11.05 C 4.529 11.214 4.468 11.336 4.283 11.313 C 4.09 11.29 4.061 11.145 4.088 10.986 C 4.142 10.671 4.202 10.357 4.26 10.043 C 4.277 9.956 4.297 9.871 4.323 9.748 L 4.095 9.748 C 3.133 9.748 2.172 9.753 1.211 9.744 C 1.006 9.742 0.952 9.809 0.953 10.006 C 0.96 11.344 0.959 12.68 0.953 14.018 C 0.953 14.193 0.994 14.261 1.185 14.259 C 2.159 14.25 3.135 14.255 4.11 14.254 C 4.172 14.254 4.234 14.248 4.315 14.244 C 4.251 13.94 4.186 13.65 4.131 13.359 C 4.103 13.216 4.069 13.066 4.088 12.926 C 4.099 12.839 4.191 12.729 4.274 12.696 C 4.396 12.648 4.508 12.726 4.541 12.86 C 4.69 13.452 4.832 14.046 4.975 14.64 C 4.981 14.665 4.971 14.694 4.964 14.748 C 4.893 14.748 4.825 14.748 4.759 14.748 C 3.553 14.748 2.348 14.748 1.143 14.748 C 0.682 14.748 0.462 14.528 0.462 14.071 C 0.462 12.692 0.462 11.313 0.462 9.935 C 0.462 9.473 0.679 9.252 1.136 9.252 C 2.341 9.252 3.546 9.252 4.751 9.252 C 4.819 9.252 4.888 9.251 5.012 9.251 Z" fill="black" style="" transform="matrix(0.9999999999999999, 0, 0, 0.9999999999999999, -4.440892098500626e-16, -4.440892098500626e-16)"/>
  <path d="M 9.762 4.317 C 10.057 4.255 10.341 4.193 10.626 4.137 C 10.756 4.112 10.888 4.1 11.019 4.087 C 11.17 4.072 11.287 4.124 11.305 4.289 C 11.322 4.449 11.228 4.527 11.078 4.559 C 10.622 4.657 10.168 4.756 9.714 4.861 C 9.57 4.895 9.43 4.952 9.252 5.009 C 9.252 4.895 9.252 4.828 9.252 4.76 C 9.252 3.563 9.252 2.364 9.252 1.166 C 9.252 0.677 9.463 0.467 9.952 0.467 C 11.324 0.467 12.697 0.467 14.069 0.467 C 14.528 0.467 14.748 0.686 14.749 1.145 C 14.75 2.35 14.749 3.554 14.749 4.759 C 14.749 4.826 14.749 4.894 14.749 5.008 C 14.569 4.95 14.429 4.894 14.285 4.86 C 13.839 4.756 13.392 4.656 12.942 4.564 C 12.776 4.53 12.661 4.463 12.685 4.278 C 12.71 4.098 12.846 4.063 12.998 4.089 C 13.321 4.143 13.641 4.204 13.962 4.264 C 14.048 4.28 14.134 4.3 14.251 4.324 L 14.251 4.09 C 14.251 3.129 14.246 2.167 14.255 1.207 C 14.257 1.014 14.199 0.957 14.006 0.958 C 12.661 0.965 11.317 0.963 9.972 0.96 C 9.833 0.96 9.736 0.963 9.737 1.153 C 9.746 2.156 9.742 3.159 9.743 4.162 C 9.743 4.208 9.754 4.255 9.761 4.315 L 9.762 4.317 Z" fill="black" style="" transform="matrix(0.9999999999999999, 0, 0, 0.9999999999999999, -4.440892098500626e-16, -4.440892098500626e-16)"/>
  <path d="M 19.68 14.248 L 19.912 14.248 C 20.873 14.248 21.834 14.244 22.796 14.252 C 22.984 14.254 23.049 14.202 23.048 14.005 C 23.041 12.662 23.044 11.317 23.044 9.974 C 23.044 9.853 23.06 9.74 22.872 9.741 C 21.848 9.747 20.824 9.744 19.8 9.745 C 19.766 9.745 19.733 9.756 19.686 9.764 C 19.749 10.062 19.813 10.353 19.869 10.645 C 19.892 10.768 19.904 10.893 19.917 11.017 C 19.931 11.168 19.878 11.286 19.715 11.304 C 19.555 11.323 19.476 11.228 19.444 11.077 C 19.346 10.622 19.247 10.168 19.142 9.714 C 19.108 9.569 19.051 9.43 18.993 9.251 L 19.242 9.251 C 20.447 9.251 21.652 9.251 22.858 9.251 C 23.317 9.251 23.538 9.471 23.538 9.928 C 23.538 11.307 23.538 12.685 23.538 14.064 C 23.538 14.525 23.319 14.748 22.864 14.748 C 21.658 14.749 20.453 14.748 19.248 14.748 C 19.18 14.748 19.111 14.748 19.028 14.748 C 19.032 14.678 19.028 14.63 19.038 14.586 C 19.171 14.039 19.31 13.496 19.436 12.948 C 19.473 12.785 19.531 12.662 19.717 12.684 C 19.911 12.708 19.938 12.855 19.912 13.013 C 19.859 13.328 19.798 13.641 19.739 13.956 C 19.723 14.042 19.704 14.128 19.679 14.247 L 19.68 14.248 Z" fill="black" style="" transform="matrix(0.9999999999999999, 0, 0, 0.9999999999999999, -4.440892098500626e-16, -4.440892098500626e-16)"/>
  <path d="M 9.762 19.673 C 9.757 19.767 9.75 19.828 9.75 19.89 C 9.75 20.857 9.754 21.825 9.745 22.793 C 9.743 22.988 9.806 23.041 9.996 23.04 C 11.34 23.033 12.685 23.036 14.03 23.038 C 14.171 23.038 14.263 23.03 14.262 22.842 C 14.254 21.84 14.258 20.837 14.257 19.835 C 14.257 19.788 14.246 19.742 14.239 19.683 C 13.936 19.746 13.645 19.81 13.353 19.865 C 13.223 19.89 13.091 19.904 12.959 19.914 C 12.816 19.925 12.709 19.868 12.69 19.716 C 12.669 19.557 12.759 19.474 12.911 19.441 C 13.366 19.343 13.821 19.245 14.274 19.139 C 14.413 19.107 14.547 19.05 14.713 18.994 C 14.72 19.103 14.731 19.176 14.731 19.249 C 14.731 20.446 14.732 21.644 14.731 22.841 C 14.731 23.322 14.521 23.533 14.047 23.533 C 12.674 23.533 11.302 23.533 9.93 23.533 C 9.472 23.533 9.253 23.314 9.253 22.853 C 9.252 21.649 9.253 20.444 9.253 19.24 C 9.253 19.172 9.253 19.105 9.253 19.016 C 9.335 19.027 9.389 19.029 9.44 19.042 C 9.973 19.172 10.504 19.309 11.038 19.431 C 11.206 19.47 11.342 19.523 11.314 19.721 C 11.287 19.914 11.135 19.934 10.979 19.908 C 10.671 19.856 10.363 19.797 10.056 19.741 C 9.969 19.724 9.883 19.702 9.763 19.675 L 9.762 19.673 Z" fill="black" style="" transform="matrix(0.9999999999999999, 0, 0, 0.9999999999999999, -4.440892098500626e-16, -4.440892098500626e-16)"/>
  <path d="M 5.097 15.038 C 5.383 15.504 5.65 15.942 5.92 16.379 C 5.964 16.45 6.02 16.514 6.07 16.579 C 6.175 16.713 6.198 16.848 6.051 16.961 C 5.911 17.07 5.783 17.017 5.692 16.888 C 5.491 16.605 5.298 16.315 5.102 16.028 C 5.065 15.973 5.03 15.915 4.984 15.842 C 4.922 15.894 4.873 15.932 4.831 15.975 C 4.141 16.663 3.455 17.356 2.759 18.039 C 2.619 18.177 2.627 18.261 2.762 18.394 C 3.717 19.339 4.667 20.289 5.613 21.242 C 5.74 21.37 5.819 21.378 5.949 21.244 C 6.637 20.544 7.334 19.852 8.027 19.157 C 8.07 19.115 8.105 19.066 8.147 19.016 C 7.847 18.818 7.564 18.631 7.281 18.443 C 7.213 18.396 7.148 18.342 7.085 18.288 C 6.976 18.195 6.937 18.082 7.025 17.958 C 7.118 17.828 7.241 17.822 7.374 17.903 C 7.883 18.215 8.392 18.527 8.902 18.839 C 8.918 18.849 8.928 18.868 8.955 18.898 C 8.905 18.954 8.857 19.011 8.804 19.064 C 7.958 19.911 7.111 20.758 6.264 21.603 C 5.918 21.948 5.638 21.95 5.295 21.608 C 4.324 20.64 3.355 19.67 2.385 18.699 C 2.046 18.36 2.05 18.069 2.392 17.728 C 3.239 16.881 4.086 16.034 4.933 15.189 C 4.986 15.136 5.043 15.088 5.096 15.039 L 5.097 15.038 Z" fill="black" style="" transform="matrix(0.9999999999999999, 0, 0, 0.9999999999999999, -4.440892098500626e-16, -4.440892098500626e-16)"/>
  <path d="M 19.044 8.205 C 19.204 8.024 19.327 7.872 19.464 7.734 C 20.052 7.141 20.642 6.548 21.238 5.964 C 21.375 5.83 21.379 5.746 21.241 5.609 C 20.287 4.664 19.338 3.712 18.389 2.76 C 18.293 2.665 18.219 2.587 18.083 2.724 C 17.369 3.448 16.647 4.164 15.929 4.883 C 15.904 4.907 15.886 4.936 15.848 4.986 C 15.963 5.059 16.074 5.123 16.179 5.196 C 16.42 5.361 16.662 5.526 16.896 5.7 C 17.016 5.789 17.061 5.912 16.954 6.044 C 16.859 6.161 16.738 6.16 16.618 6.087 C 16.107 5.778 15.598 5.465 15.089 5.153 C 15.078 5.147 15.073 5.132 15.052 5.104 C 15.094 5.057 15.136 5.004 15.184 4.957 C 16.04 4.1 16.896 3.244 17.754 2.388 C 18.083 2.059 18.382 2.057 18.71 2.386 C 19.684 3.362 20.657 4.338 21.628 5.317 C 21.947 5.638 21.945 5.936 21.624 6.259 C 20.764 7.122 19.9 7.982 19.038 8.843 C 18.995 8.886 18.947 8.923 18.886 8.975 C 18.844 8.909 18.812 8.859 18.781 8.809 C 18.502 8.354 18.222 7.897 17.944 7.441 C 17.906 7.377 17.842 7.299 17.854 7.24 C 17.87 7.156 17.934 7.032 17.998 7.018 C 18.085 6.998 18.234 7.033 18.285 7.099 C 18.502 7.378 18.694 7.678 18.895 7.97 C 18.934 8.026 18.967 8.085 19.043 8.209 L 19.044 8.205 Z" fill="black" style="" transform="matrix(0.9999999999999999, 0, 0, 0.9999999999999999, -4.440892098500626e-16, -4.440892098500626e-16)"/>
  <path d="M 4.977 8.155 C 5.172 7.859 5.352 7.587 5.534 7.316 C 5.576 7.252 5.624 7.193 5.672 7.133 C 5.77 7.007 5.885 6.923 6.045 7.03 C 6.181 7.123 6.177 7.253 6.059 7.431 C 5.828 7.778 5.6 8.126 5.379 8.481 C 5.285 8.633 5.216 8.799 5.124 8.981 C 5.054 8.919 5.001 8.877 4.953 8.829 C 4.086 7.963 3.218 7.098 2.352 6.231 C 2.063 5.941 2.062 5.629 2.355 5.335 C 3.343 4.343 4.333 3.354 5.325 2.366 C 5.607 2.085 5.943 2.072 6.212 2.34 C 7.102 3.222 7.988 4.11 8.873 4.997 C 8.906 5.031 8.93 5.072 8.967 5.12 C 8.911 5.157 8.867 5.187 8.821 5.214 C 8.354 5.501 7.889 5.793 7.415 6.068 C 7.329 6.118 7.184 6.14 7.098 6.103 C 6.939 6.035 6.937 5.829 7.096 5.709 C 7.38 5.497 7.678 5.305 7.971 5.105 C 8.027 5.067 8.085 5.033 8.161 4.985 C 8.102 4.918 8.06 4.867 8.012 4.819 C 7.328 4.134 6.639 3.453 5.961 2.763 C 5.824 2.624 5.743 2.628 5.609 2.763 C 4.668 3.713 3.723 4.658 2.772 5.597 C 2.631 5.737 2.622 5.823 2.768 5.966 C 3.459 6.643 4.141 7.332 4.826 8.015 C 4.869 8.059 4.917 8.097 4.978 8.152 L 4.977 8.155 Z" fill="black" style="" transform="matrix(0.9999999999999999, 0, 0, 0.9999999999999999, -4.440892098500626e-16, -4.440892098500626e-16)"/>
  <path d="M 15.028 18.889 C 15.413 18.667 15.77 18.467 16.121 18.256 C 16.276 18.163 16.418 18.049 16.564 17.942 C 16.692 17.848 16.824 17.818 16.934 17.951 C 17.053 18.095 16.993 18.229 16.856 18.325 C 16.583 18.517 16.304 18.701 16.027 18.887 C 15.97 18.925 15.909 18.958 15.831 19.005 C 15.88 19.063 15.915 19.113 15.956 19.156 C 16.649 19.85 17.345 20.543 18.035 21.241 C 18.162 21.369 18.246 21.373 18.376 21.243 C 19.329 20.287 20.288 19.336 21.247 18.385 C 21.346 18.287 21.41 18.206 21.278 18.076 C 20.555 17.361 19.838 16.64 19.119 15.922 C 19.096 15.899 19.065 15.88 19.018 15.845 C 18.937 15.974 18.866 16.097 18.784 16.214 C 18.618 16.454 18.453 16.695 18.276 16.927 C 18.195 17.033 18.074 17.053 17.961 16.969 C 17.841 16.882 17.821 16.767 17.899 16.64 C 18.217 16.119 18.538 15.599 18.857 15.078 C 18.864 15.068 18.88 15.065 18.909 15.049 C 18.955 15.089 19.008 15.133 19.055 15.181 C 19.907 16.031 20.76 16.882 21.611 17.734 C 21.959 18.083 21.957 18.37 21.606 18.721 C 20.65 19.675 19.694 20.628 18.737 21.581 C 18.354 21.961 18.089 21.959 17.706 21.576 C 16.869 20.739 16.032 19.903 15.195 19.066 C 15.143 19.014 15.093 18.957 15.03 18.89 L 15.028 18.889 Z" fill="black" style="" transform="matrix(0.9999999999999999, 0, 0, 0.9999999999999999, -4.440892098500626e-16, -4.440892098500626e-16)"/>
  <path d="M 11.998 4.509 C 11.848 4.507 11.738 4.393 11.744 4.24 C 11.75 4.081 11.845 3.999 11.993 3.984 C 12.133 3.97 12.255 4.099 12.257 4.245 C 12.259 4.397 12.147 4.511 11.998 4.509 Z" fill="black" style="" transform="matrix(0.9999999999999999, 0, 0, 0.9999999999999999, -4.440892098500626e-16, -4.440892098500626e-16)"/>
  <path d="M 4.253 12.256 C 4.106 12.258 3.981 12.141 3.981 12 C 3.981 11.859 4.105 11.741 4.252 11.743 C 4.415 11.745 4.493 11.843 4.509 11.99 C 4.525 12.136 4.403 12.254 4.253 12.257 L 4.253 12.256 Z" fill="black" style="" transform="matrix(0.9999999999999999, 0, 0, 0.9999999999999999, -4.440892098500626e-16, -4.440892098500626e-16)"/>
  <path d="M 19.754 11.742 C 19.902 11.742 20.032 11.861 20.019 12.002 C 20.004 12.159 19.918 12.257 19.747 12.255 C 19.585 12.253 19.508 12.154 19.496 12.006 C 19.482 11.858 19.602 11.743 19.754 11.742 Z" fill="black" style="" transform="matrix(0.9999999999999999, 0, 0, 0.9999999999999999, -4.440892098500626e-16, -4.440892098500626e-16)"/>
  <path d="M 11.744 19.739 C 11.748 19.589 11.868 19.47 12.015 19.486 C 12.162 19.503 12.258 19.582 12.258 19.745 C 12.258 19.891 12.138 20.015 11.998 20.013 C 11.857 20.011 11.741 19.886 11.744 19.739 Z" fill="black" style="" transform="matrix(0.9999999999999999, 0, 0, 0.9999999999999999, -4.440892098500626e-16, -4.440892098500626e-16)"/>
  <path d="M 6.261 17.457 C 6.271 17.31 6.398 17.203 6.545 17.217 C 6.691 17.23 6.802 17.36 6.781 17.504 C 6.759 17.658 6.662 17.735 6.508 17.733 C 6.357 17.731 6.251 17.608 6.261 17.457 Z" fill="black" style="" transform="matrix(0.9999999999999999, 0, 0, 0.9999999999999999, -4.440892098500626e-16, -4.440892098500626e-16)"/>
  <path d="M 6.783 6.519 C 6.786 6.659 6.662 6.786 6.521 6.786 C 6.379 6.786 6.252 6.661 6.261 6.518 C 6.27 6.365 6.359 6.277 6.511 6.264 C 6.651 6.252 6.781 6.378 6.783 6.519 Z" fill="black" style="" transform="matrix(0.9999999999999999, 0, 0, 0.9999999999999999, -4.440892098500626e-16, -4.440892098500626e-16)"/>
  <path d="M 17.741 6.522 C 17.741 6.665 17.617 6.788 17.475 6.785 C 17.334 6.782 17.207 6.652 17.219 6.513 C 17.232 6.362 17.323 6.274 17.475 6.263 C 17.618 6.253 17.741 6.377 17.741 6.522 Z" fill="black" style="" transform="matrix(0.9999999999999999, 0, 0, 0.9999999999999999, -4.440892098500626e-16, -4.440892098500626e-16)"/>
  <path d="M 17.481 17.215 C 17.623 17.215 17.749 17.341 17.74 17.481 C 17.729 17.634 17.641 17.723 17.49 17.735 C 17.35 17.746 17.222 17.62 17.219 17.479 C 17.216 17.339 17.34 17.214 17.481 17.215 Z" fill="black" style="" transform="matrix(0.9999999999999999, 0, 0, 0.9999999999999999, -4.440892098500626e-16, -4.440892098500626e-16)"/>
  <path d="M 10.699 11.49 C 9.846 10.36 9.851 9.329 10.699 8.556 C 11.424 7.896 12.565 7.894 13.293 8.552 C 14.144 9.321 14.15 10.34 13.297 11.489 C 13.371 11.516 13.44 11.54 13.507 11.567 C 14.184 11.831 14.572 12.324 14.668 13.044 C 14.689 13.203 14.63 13.332 14.467 13.359 C 14.301 13.385 14.203 13.283 14.189 13.119 C 14.132 12.455 13.575 11.915 12.79 11.945 C 12.24 11.965 11.689 11.947 11.139 11.95 C 10.369 11.954 9.827 12.497 9.823 13.268 C 9.819 13.888 9.827 14.508 9.819 15.128 C 9.817 15.309 9.859 15.388 10.063 15.386 C 11.359 15.378 12.655 15.379 13.952 15.385 C 14.121 15.385 14.197 15.337 14.185 15.16 C 14.176 15.014 14.183 14.868 14.185 14.721 C 14.187 14.574 14.265 14.476 14.408 14.467 C 14.565 14.457 14.656 14.558 14.662 14.711 C 14.67 14.92 14.677 15.13 14.658 15.337 C 14.628 15.663 14.407 15.853 14.064 15.857 C 13.535 15.862 13.005 15.859 12.476 15.859 C 11.667 15.859 10.859 15.859 10.051 15.859 C 9.518 15.859 9.326 15.663 9.326 15.124 C 9.326 14.525 9.326 13.926 9.326 13.327 C 9.328 12.446 9.759 11.839 10.593 11.543 C 10.624 11.531 10.655 11.513 10.701 11.491 L 10.699 11.49 Z M 12.004 11.45 C 12.83 11.449 13.46 10.817 13.455 9.997 C 13.451 9.197 12.806 8.553 12.006 8.55 C 11.194 8.548 10.545 9.194 10.544 10.005 C 10.543 10.825 11.176 11.451 12.004 11.45 Z" fill="black" style="" transform="matrix(0.9999999999999999, 0, 0, 0.9999999999999999, -4.440892098500626e-16, -4.440892098500626e-16)"/>
  <path d="M 14.686 13.98 C 14.666 14.12 14.58 14.213 14.412 14.207 C 14.254 14.202 14.167 14.11 14.167 13.955 C 14.167 13.791 14.258 13.697 14.426 13.694 C 14.58 13.692 14.69 13.809 14.686 13.98 Z" fill="black" style="" transform="matrix(0.9999999999999999, 0, 0, 0.9999999999999999, -4.440892098500626e-16, -4.440892098500626e-16)"/>
</svg>
