<svg width="36" height="37" viewBox="0 0 36 37" fill="none" xmlns="http://www.w3.org/2000/svg">
<path d="M17.7817 27.6932C12.6953 27.6901 8.58059 23.5695 8.58215 18.4793C8.58528 13.3781 12.7078 9.27315 17.8239 9.27784C22.9056 9.28252 27.025 13.4218 27.0094 18.5043C26.9938 23.5898 22.8697 27.6964 17.7802 27.6917L17.7817 27.6932ZM9.31949 18.484C9.31949 23.1401 13.1437 26.9625 17.802 26.9578C22.4479 26.9531 26.2658 23.1448 26.2736 18.5043C26.283 13.8528 22.4635 10.0226 17.8052 10.0101C13.1562 9.99765 9.32106 13.8294 9.31949 18.484Z" fill="black"/>
<path d="M7.03558 14.2524C6.94029 14.5366 6.85123 14.7412 6.80124 14.9551C6.64034 15.6421 6.48569 16.3307 6.34353 17.0224C6.29198 17.2754 6.19825 17.4627 5.91237 17.4284C5.61556 17.3925 5.57026 17.1692 5.61244 16.924C5.69523 16.4384 5.7874 15.956 5.878 15.4719C5.903 15.3376 5.93426 15.2065 5.97487 15.0175H5.62338C4.14245 15.0175 2.66152 15.0253 1.18216 15.0113C0.866601 15.0082 0.78381 15.1112 0.785372 15.4157C0.796307 17.4752 0.794745 19.5332 0.785372 21.5927C0.785372 21.8628 0.847853 21.9674 1.14154 21.9643C2.64277 21.9502 4.14558 21.9581 5.64681 21.9565C5.7421 21.9565 5.83739 21.9471 5.96236 21.9409C5.86394 21.4725 5.76398 21.0259 5.67806 20.5778C5.63588 20.3576 5.58276 20.1265 5.61244 19.911C5.62962 19.7783 5.77178 19.6081 5.89831 19.5582C6.08733 19.4832 6.25918 19.6034 6.31073 19.8095C6.53881 20.7214 6.75751 21.6364 6.97778 22.5514C6.98715 22.5889 6.97151 22.6341 6.96214 22.7169C6.85279 22.7169 6.74815 22.7169 6.64504 22.7169C4.7892 22.7169 2.93334 22.7169 1.07749 22.7169C0.36827 22.7169 0.0292969 22.3781 0.0292969 21.6754C0.0292969 19.5519 0.0292969 17.4284 0.0292969 15.3064C0.0292969 14.5944 0.363601 14.254 1.06657 14.254C2.92242 14.254 4.77826 14.254 6.6341 14.254C6.73877 14.254 6.845 14.2524 7.03558 14.2524Z" fill="black"/>
<path d="M14.3496 6.65455C14.8042 6.5593 15.2416 6.46405 15.6806 6.37818C15.8805 6.33914 16.0836 6.3204 16.2851 6.3001C16.5179 6.27668 16.6975 6.35788 16.7256 6.61083C16.7522 6.85753 16.6069 6.97776 16.3757 7.02773C15.6743 7.17762 14.9745 7.33064 14.2762 7.49303C14.0544 7.54455 13.8388 7.63199 13.5638 7.72099C13.5638 7.54455 13.5638 7.4415 13.5638 7.33689C13.5638 5.49285 13.5638 3.64725 13.5638 1.80321C13.5638 1.04905 13.8888 0.72583 14.6417 0.72583C16.7553 0.72583 18.8689 0.72583 20.9825 0.72583C21.6886 0.72583 22.0276 1.0631 22.0292 1.77042C22.0307 3.62539 22.0292 5.48036 22.0292 7.33532C22.0292 7.43838 22.0292 7.54299 22.0292 7.71943C21.7527 7.62887 21.5371 7.54299 21.3153 7.49147C20.6279 7.33064 19.939 7.17606 19.247 7.03553C18.9908 6.98244 18.8143 6.87939 18.8517 6.59521C18.8892 6.31728 19.0986 6.26419 19.3329 6.30323C19.8297 6.38598 20.3233 6.48123 20.8169 6.57335C20.9497 6.59834 21.0825 6.628 21.2622 6.66548V6.30479C21.2622 4.82456 21.2543 3.34433 21.2684 1.86567C21.2715 1.569 21.1825 1.48 20.8857 1.48156C18.8143 1.49249 16.7444 1.48936 14.673 1.48468C14.4589 1.48468 14.3105 1.48936 14.3121 1.78291C14.3246 3.32716 14.3184 4.8714 14.3199 6.41565C14.3199 6.48747 14.3371 6.5593 14.348 6.65142L14.3496 6.65455Z" fill="black"/>
<path d="M29.6229 21.9471H29.9791C31.46 21.9471 32.9394 21.9409 34.4203 21.9534C34.7108 21.9565 34.8108 21.8769 34.8092 21.5739C34.7983 19.5051 34.803 17.4346 34.803 15.3657C34.803 15.1799 34.828 15.005 34.5374 15.0066C32.9612 15.016 31.3834 15.0113 29.8072 15.0129C29.7557 15.0129 29.7041 15.03 29.6323 15.0425C29.7291 15.5016 29.8275 15.9497 29.9134 16.3994C29.9494 16.5883 29.9681 16.7804 29.9869 16.9724C30.0087 17.2051 29.9275 17.3862 29.676 17.4143C29.4307 17.4424 29.3089 17.2972 29.2589 17.0646C29.1089 16.3635 28.9558 15.664 28.7934 14.966C28.7418 14.7427 28.6544 14.5288 28.5653 14.2524H28.948C30.8039 14.2524 32.6597 14.2524 34.5156 14.2524C35.2232 14.2524 35.5638 14.5913 35.5638 15.2955C35.5638 17.419 35.5638 19.541 35.5638 21.6645C35.5638 22.3734 35.2264 22.7169 34.5249 22.7169C32.6691 22.7185 30.8132 22.7169 28.9574 22.7169C28.8527 22.7169 28.7465 22.7169 28.6184 22.7169C28.6247 22.6092 28.6184 22.5358 28.634 22.4671C28.8387 21.6255 29.0527 20.7886 29.2464 19.9454C29.3042 19.694 29.3932 19.5051 29.6791 19.5394C29.9775 19.5753 30.0197 19.8017 29.9791 20.0453C29.8978 20.5309 29.8041 21.0134 29.7135 21.4974C29.6885 21.6302 29.6588 21.7629 29.6213 21.9456L29.6229 21.9471Z" fill="black"/>
<path d="M14.3496 30.3007C14.3418 30.4459 14.3309 30.5396 14.3309 30.6348C14.3309 32.1244 14.3371 33.6156 14.323 35.1052C14.3199 35.4065 14.4183 35.4877 14.7105 35.4862C16.7803 35.4752 18.8517 35.4799 20.9216 35.4831C21.1387 35.4831 21.2809 35.4706 21.2793 35.1817C21.2668 33.6375 21.2731 32.0932 21.2715 30.5505C21.2715 30.4787 21.2543 30.4069 21.2434 30.3163C20.7779 30.4131 20.3296 30.5115 19.8797 30.5974C19.6797 30.6348 19.4766 30.6567 19.2735 30.6723C19.0533 30.6895 18.8877 30.6021 18.858 30.3678C18.8267 30.1227 18.9642 29.9947 19.1985 29.9447C19.9 29.7932 20.5998 29.6418 21.2981 29.4794C21.5121 29.4294 21.7183 29.342 21.9745 29.2561C21.9854 29.4232 22.001 29.5356 22.001 29.648C22.001 31.4921 22.0026 33.3361 22.001 35.1801C22.001 35.9203 21.6777 36.245 20.9482 36.245C18.8346 36.245 16.721 36.245 14.6089 36.245C13.9028 36.245 13.5654 35.9078 13.5654 35.1989C13.5638 33.3439 13.5654 31.4889 13.5654 29.634C13.5654 29.5294 13.5654 29.4263 13.5654 29.2889C13.6919 29.3061 13.7747 29.3092 13.8544 29.3295C14.6745 29.5294 15.4931 29.7401 16.3148 29.9291C16.5741 29.9884 16.7834 30.0696 16.7397 30.3756C16.6975 30.6723 16.4648 30.7035 16.2242 30.6629C15.7493 30.5833 15.276 30.4927 14.8026 30.4053C14.6683 30.3803 14.5355 30.346 14.3512 30.3038L14.3496 30.3007Z" fill="black"/>
<path d="M7.16679 23.1633C7.60732 23.8816 8.01816 24.5561 8.43369 25.2291C8.50086 25.3384 8.5868 25.4368 8.66491 25.5367C8.82581 25.7428 8.86172 25.9505 8.6352 26.1254C8.41963 26.2924 8.22281 26.2112 8.08222 26.0129C7.77291 25.5773 7.47609 25.1307 7.17459 24.6888C7.11679 24.603 7.06369 24.514 6.99183 24.4015C6.89654 24.4827 6.82156 24.5405 6.75595 24.6061C5.69368 25.6663 4.63765 26.7327 3.566 27.7851C3.35043 27.9975 3.36293 28.1271 3.5707 28.3316C5.04069 29.7869 6.50443 31.2499 7.96036 32.7177C8.15563 32.9144 8.27748 32.9269 8.479 32.7208C9.53815 31.6418 10.6114 30.577 11.6783 29.5074C11.7439 29.4418 11.7986 29.3669 11.8626 29.2903C11.4002 28.9843 10.9644 28.697 10.5301 28.4066C10.4239 28.3348 10.3239 28.252 10.2271 28.1692C10.0599 28.0256 9.99898 27.8507 10.1349 27.6602C10.2786 27.4604 10.4676 27.451 10.6723 27.5759C11.4565 28.0568 12.2407 28.5362 13.0249 29.0171C13.0499 29.0327 13.0655 29.0624 13.1077 29.1077C13.0296 29.1935 12.9561 29.2825 12.8749 29.3637C11.5721 30.6675 10.2677 31.9713 8.96327 33.2735C8.43057 33.8044 7.99941 33.8075 7.4714 33.2813C5.97642 31.7902 4.48299 30.2959 2.98956 28.8016C2.4678 28.2801 2.47406 27.832 3.0005 27.3058C4.30491 26.002 5.60932 24.6982 6.91372 23.396C6.99495 23.3148 7.08243 23.2414 7.16522 23.1649L7.16679 23.1633Z" fill="black"/>
<path d="M28.6433 12.6425C28.8902 12.363 29.0792 12.1288 29.29 11.9165C30.1961 11.003 31.1037 10.0896 32.0223 9.19022C32.2332 8.98411 32.2394 8.85452 32.027 8.64373C30.557 7.18848 29.0963 5.72231 27.6342 4.25769C27.4873 4.11092 27.3733 3.99069 27.164 4.20148C26.0642 5.31634 24.9519 6.4187 23.8459 7.52575C23.8084 7.56322 23.7803 7.6085 23.721 7.68501C23.8991 7.79743 24.0693 7.8958 24.2318 8.00822C24.602 8.26274 24.9754 8.51569 25.3362 8.78425C25.5206 8.92166 25.5893 9.11059 25.4253 9.31357C25.2784 9.4947 25.0925 9.49314 24.9066 9.38072C24.1209 8.90448 23.3367 8.422 22.5525 7.94265C22.5353 7.93328 22.5275 7.90986 22.4962 7.86614C22.5603 7.79431 22.6259 7.71312 22.6993 7.63973C24.0178 6.32033 25.3362 5.00249 26.6563 3.68465C27.164 3.17719 27.6232 3.17407 28.1294 3.68153C29.629 5.18361 31.1272 6.68727 32.6221 8.19404C33.1142 8.68901 33.1111 9.14806 32.6159 9.64459C31.2912 10.9734 29.9618 12.299 28.6339 13.6247C28.5683 13.6902 28.4934 13.748 28.3996 13.8276C28.3356 13.7262 28.2856 13.6496 28.2387 13.5716C27.8091 12.8705 27.378 12.1679 26.95 11.4652C26.8906 11.3668 26.7922 11.2466 26.8109 11.1561C26.8359 11.0265 26.9343 10.836 27.0327 10.8141C27.1671 10.7829 27.3952 10.8375 27.4748 10.939C27.8091 11.3684 28.1044 11.8306 28.4137 12.2803C28.4731 12.3662 28.5246 12.4567 28.6418 12.6472L28.6433 12.6425Z" fill="black"/>
<path d="M6.98094 12.5646C7.28243 12.1087 7.55893 11.6902 7.83856 11.2733C7.90417 11.175 7.97759 11.0828 8.05101 10.9907C8.20254 10.7971 8.37906 10.6675 8.62588 10.833C8.83521 10.9751 8.82897 11.1765 8.64776 11.4498C8.29159 11.9838 7.94011 12.5209 7.60112 13.0674C7.45584 13.3001 7.34961 13.5561 7.20746 13.8372C7.09967 13.7419 7.01841 13.6764 6.94499 13.603C5.60934 12.2695 4.27214 10.9376 2.93962 9.6026C2.49441 9.15604 2.49285 8.67512 2.94432 8.22231C4.46586 6.69524 5.99053 5.1713 7.51676 3.65047C7.95104 3.21796 8.46968 3.19766 8.88365 3.60987C10.2537 4.96831 11.6174 6.33611 12.9812 7.70236C13.0312 7.75388 13.0687 7.8179 13.1249 7.89129C13.039 7.9475 12.9718 7.99434 12.9015 8.0365C12.1814 8.47838 11.4659 8.92807 10.7364 9.35122C10.6036 9.42773 10.3802 9.46208 10.2474 9.40431C10.0022 9.29969 9.99903 8.98272 10.2443 8.79847C10.6817 8.47214 11.141 8.17547 11.5924 7.86787C11.6783 7.8101 11.7674 7.75701 11.8845 7.68362C11.7939 7.58057 11.7283 7.50093 11.6549 7.42755C10.602 6.37359 9.54132 5.32431 8.49623 4.26099C8.28534 4.04707 8.16037 4.05332 7.95416 4.26099C6.50604 5.72404 5.0501 7.17928 3.58636 8.62516C3.36922 8.84063 3.35516 8.97335 3.58011 9.19351C4.64394 10.2365 5.69371 11.2967 6.74817 12.3491C6.81534 12.4163 6.88876 12.4756 6.98249 12.5599L6.98094 12.5646Z" fill="black"/>
<path d="M22.4587 29.0938C23.0524 28.7518 23.6022 28.4442 24.1427 28.1194C24.3802 27.9758 24.5989 27.8009 24.8238 27.6354C25.0207 27.4902 25.2253 27.4449 25.394 27.6494C25.5768 27.8712 25.4846 28.0773 25.2737 28.2256C24.8535 28.5207 24.4239 28.8049 23.9974 29.0906C23.91 29.15 23.8162 29.1999 23.696 29.2733C23.7709 29.3623 23.8241 29.4388 23.8881 29.5044C24.9551 30.574 26.0267 31.6404 27.089 32.7163C27.2842 32.913 27.4139 32.9192 27.6138 32.7194C29.0823 31.247 30.5585 29.7824 32.0348 28.3177C32.1879 28.1663 32.2863 28.0429 32.0832 27.8415C30.9694 26.7407 29.8665 25.6305 28.7589 24.525C28.723 24.4891 28.6761 24.461 28.6027 24.4064C28.4777 24.6047 28.3684 24.7952 28.2434 24.9747C27.9872 25.3448 27.7326 25.7149 27.4608 26.0724C27.3358 26.2364 27.1499 26.266 26.9749 26.138C26.7906 26.0037 26.7593 25.8257 26.8796 25.6305C27.3701 24.828 27.8638 24.027 28.3559 23.2259C28.3653 23.2103 28.3902 23.2056 28.4355 23.1807C28.5058 23.2431 28.5871 23.3103 28.6605 23.3837C29.9727 24.6937 31.2849 26.0037 32.5956 27.3153C33.1314 27.8524 33.1283 28.2943 32.5878 28.8346C31.1162 30.3039 29.6447 31.7716 28.17 33.2393C27.581 33.8249 27.1718 33.8217 26.5828 33.2315C25.2941 31.9434 24.0053 30.6552 22.7165 29.367C22.6353 29.2858 22.5587 29.1984 22.4619 29.0953L22.4587 29.0938Z" fill="black"/>
<path d="M17.7925 6.95109C17.5613 6.94797 17.3926 6.77153 17.402 6.53576C17.4114 6.29061 17.5582 6.1657 17.7847 6.14228C18.0003 6.12042 18.1893 6.31872 18.1925 6.54356C18.1956 6.77778 18.0222 6.95265 17.7925 6.95109Z" fill="black"/>
<path d="M5.86703 18.8804C5.64052 18.8836 5.44836 18.7024 5.44836 18.4854C5.44836 18.2684 5.63895 18.0872 5.86546 18.0904C6.1154 18.0935 6.2357 18.2434 6.26069 18.4698C6.28569 18.6946 6.09823 18.8773 5.86703 18.882V18.8804Z" fill="black"/>
<path d="M29.7369 18.0889C29.965 18.0889 30.165 18.2716 30.1447 18.4886C30.1212 18.7306 29.9884 18.8821 29.726 18.8789C29.476 18.8758 29.3573 18.7228 29.3386 18.4948C29.3183 18.2669 29.5026 18.0904 29.7369 18.0889Z" fill="black"/>
<path d="M17.4021 30.4023C17.4083 30.1712 17.5927 29.9885 17.8192 30.0135C18.0457 30.0401 18.1941 30.1619 18.1941 30.4117C18.1941 30.6365 18.0082 30.8286 17.7926 30.8255C17.5755 30.8223 17.3974 30.6287 17.4021 30.4023Z" fill="black"/>
<path d="M8.95855 26.8891C8.97417 26.6627 9.16944 26.4972 9.39595 26.519C9.6209 26.5393 9.79118 26.7392 9.75994 26.9609C9.72557 27.1982 9.57561 27.3169 9.33972 27.3138C9.10696 27.3107 8.94293 27.1217 8.95855 26.8891Z" fill="black"/>
<path d="M9.76311 10.0458C9.7678 10.2613 9.57567 10.4565 9.35853 10.4565C9.13983 10.4565 8.94454 10.2644 8.9586 10.0443C8.97266 9.80851 9.11013 9.67267 9.3429 9.65237C9.55847 9.63363 9.75999 9.82881 9.76311 10.0458Z" fill="black"/>
<path d="M26.636 10.0505C26.636 10.2707 26.4454 10.4596 26.2267 10.4549C26.0096 10.4502 25.8143 10.2504 25.833 10.0365C25.8533 9.80381 25.9924 9.66797 26.2267 9.65079C26.447 9.63518 26.636 9.82723 26.636 10.0505Z" fill="black"/>
<path d="M26.236 26.5159C26.4547 26.5159 26.6484 26.7095 26.6344 26.9265C26.6187 27.1607 26.4828 27.2981 26.2501 27.3169C26.0345 27.3341 25.8377 27.1404 25.833 26.9234C25.8283 26.7064 26.0189 26.5143 26.236 26.5159Z" fill="black"/>
<path d="M15.793 17.7C14.4792 15.9605 14.487 14.3726 15.793 13.1828C16.9099 12.1663 18.6658 12.1632 19.7875 13.1765C21.0981 14.3601 21.1075 15.9293 19.7937 17.6984C19.9077 17.7406 20.014 17.778 20.1171 17.8186C21.159 18.2262 21.7573 18.985 21.9042 20.0936C21.937 20.3388 21.8464 20.5371 21.5949 20.5777C21.3387 20.6183 21.1887 20.4606 21.1668 20.2092C21.0794 19.1864 20.2217 18.3542 19.0126 18.401C18.1659 18.4323 17.3177 18.4042 16.471 18.4089C15.2853 18.4151 14.4495 19.2505 14.4433 20.4387C14.4371 21.3927 14.4496 22.3483 14.4371 23.3023C14.4339 23.5818 14.4995 23.7021 14.8135 23.7005C16.8084 23.688 18.8049 23.6896 20.8013 23.6989C21.0622 23.6989 21.1793 23.624 21.1606 23.3523C21.1465 23.1275 21.1575 22.9026 21.1606 22.6762C21.1637 22.4498 21.284 22.2983 21.5043 22.2843C21.7464 22.2687 21.8854 22.4248 21.8948 22.6606C21.9073 22.9823 21.9182 23.3055 21.8886 23.624C21.8433 24.1268 21.5027 24.4188 20.9747 24.425C20.1592 24.4328 19.3438 24.4281 18.5284 24.4281C17.2833 24.4281 16.0398 24.4281 14.7948 24.4281C13.9747 24.4281 13.6779 24.1268 13.6779 23.2961C13.6779 22.3733 13.6779 21.4521 13.6779 20.5293C13.681 19.1724 14.3449 18.2371 15.629 17.7812C15.6774 17.764 15.7243 17.7359 15.7961 17.7015L15.793 17.7ZM17.802 17.6391C19.0736 17.6375 20.0437 16.6647 20.0374 15.4016C20.0312 14.1696 19.0376 13.1781 17.8051 13.1734C16.5554 13.1703 15.5556 14.1649 15.554 15.414C15.5524 16.6757 16.5272 17.6406 17.802 17.6391Z" fill="black"/>
<path d="M21.9323 21.5348C21.901 21.7503 21.7683 21.894 21.5105 21.8846C21.2668 21.8768 21.1324 21.7347 21.1324 21.4958C21.1324 21.2429 21.2731 21.0992 21.5324 21.0945C21.7683 21.0914 21.9385 21.271 21.9323 21.5348Z" fill="black"/>
</svg>
