<?xml version="1.0" encoding="utf-8"?>
<svg viewBox="0 0 39 28" fill="none" xmlns="http://www.w3.org/2000/svg">
  <path d="M23.8971 4.81616C23.1801 4.92389 22.5021 5.02226 21.8241 5.13C19.9745 5.42199 18.1265 5.7171 16.2769 6.01064C15.2193 6.17928 14.1617 6.35572 13.101 6.5103C12.8729 6.54309 12.8651 6.66488 12.8651 6.83351C12.8667 7.48775 12.8682 8.14198 12.8651 8.79622C12.8651 8.91801 12.8823 9.07884 12.8151 9.15378C12.7089 9.27401 12.5293 9.4161 12.3996 9.40205C12.2731 9.38644 12.1184 9.20063 12.07 9.05854C12.0122 8.88522 12.0434 8.67911 12.0528 8.48862C12.0637 8.26533 11.9778 8.18883 11.7513 8.21537C10.989 8.30593 10.2251 8.38088 9.46274 8.46676C7.76936 8.65725 6.07442 8.82901 4.38416 9.04761C3.13443 9.21 2.20964 9.86892 1.66913 11.0275C1.64101 11.0884 1.61914 11.154 1.58633 11.2117C1.46448 11.4257 1.2864 11.524 1.04895 11.4163C0.813061 11.3085 0.761507 11.1181 0.858361 10.8823C1.24421 9.95167 1.88783 9.25216 2.75639 8.74938C3.42812 8.36058 4.17015 8.23723 4.92467 8.15604C7.19136 7.91245 9.45649 7.66419 11.7232 7.42685C11.9622 7.40187 12.0715 7.31755 12.0497 7.07085C11.9497 5.90603 12.4168 5.80922 13.2775 5.68431C15.2865 5.39232 17.2876 5.04881 19.2918 4.72872C20.6837 4.507 22.0772 4.28527 23.4706 4.08073C23.7862 4.03388 23.9549 3.95425 23.9315 3.58264C23.8971 3.03145 23.9174 2.47715 23.9252 1.92441C23.933 1.27329 24.2829 0.92822 24.939 0.926659C26.1247 0.923536 27.3104 0.923536 28.4961 0.926659C29.1709 0.92822 29.5349 1.29515 29.5349 1.98218C29.538 4.94888 29.5365 7.91558 29.5349 10.8823C29.5349 10.9931 29.5412 11.1384 29.4787 11.2055C29.374 11.3148 29.2053 11.4475 29.0819 11.4319C28.9569 11.4163 28.8304 11.2445 28.7523 11.1134C28.7023 11.0291 28.7382 10.8932 28.7382 10.7808C28.7382 7.89216 28.7335 5.00509 28.7445 2.11646C28.7445 1.8073 28.6601 1.70268 28.3477 1.70737C27.2635 1.72298 26.1794 1.72298 25.0968 1.70737C24.7766 1.70268 24.6969 1.82448 24.6969 2.12583C24.7032 8.20288 24.7016 14.2815 24.7016 20.3601C24.7016 21.2595 24.711 22.1589 24.6969 23.0582C24.6922 23.3596 24.7782 23.4798 25.1 23.4751C26.1841 23.458 27.2682 23.458 28.3508 23.4751C28.6726 23.4798 28.746 23.3612 28.7445 23.0598C28.7351 20.1712 28.7382 17.2841 28.7382 14.3955C28.7382 14.294 28.7023 14.1659 28.7492 14.0972C28.8476 13.9552 28.9804 13.7693 29.121 13.7475C29.235 13.7303 29.4053 13.9083 29.5068 14.0348C29.5646 14.1082 29.538 14.2518 29.538 14.3642C29.538 17.2857 29.5396 20.2071 29.538 23.1301C29.538 23.9155 29.1881 24.2605 28.3977 24.2621C27.2792 24.2637 26.1622 24.2652 25.0437 24.2621C24.2658 24.2605 23.9283 23.9233 23.9252 23.1488C23.9221 22.6179 23.9127 22.0886 23.9299 21.5577C23.9377 21.2813 23.8674 21.1439 23.5612 21.1314C23.2582 21.119 22.9582 21.0471 22.6567 21.0003C22.388 20.9581 22.1553 20.8598 22.2021 20.5334C22.249 20.204 22.4958 20.1774 22.7676 20.2196C23.1332 20.2758 23.4972 20.3289 23.8955 20.3882V4.8146L23.8971 4.81616Z" style="fill: rgb(0, 0, 0);"/>
  <path d="M12.826 14.814C12.826 15.9289 12.84 17.0453 12.8182 18.1601C12.8119 18.4974 12.9103 18.6348 13.2446 18.6848C14.8052 18.9205 16.3627 19.1751 17.9218 19.4249C18.4451 19.5092 18.9668 19.6029 19.4902 19.6888C19.751 19.7309 19.9182 19.8699 19.8791 20.1431C19.837 20.4382 19.6151 20.5148 19.348 20.4742C18.1561 20.2883 16.9657 20.0932 15.7722 19.9183C15.6176 19.8964 15.4301 19.9323 15.2911 20.0042C14.057 20.6365 12.8338 21.2892 11.6013 21.92C11.3794 22.034 11.3529 22.1464 11.4216 22.3713C11.8106 23.6407 12.1839 24.9164 12.562 26.1905C12.8088 27.0196 12.423 27.5474 11.5622 27.549C10.4906 27.5505 9.41736 27.549 8.34572 27.549C7.68336 27.549 7.40061 27.3335 7.21471 26.7089C6.28992 23.5892 5.36043 20.471 4.44032 17.3497C4.35752 17.0687 4.24349 16.9219 3.917 16.8485C2.55167 16.5378 1.55188 15.7306 0.928581 14.4705C0.894214 14.4002 0.830175 14.3144 0.845796 14.2535C0.889537 14.0848 0.922341 13.8678 1.04263 13.7741C1.22228 13.632 1.43005 13.7226 1.5597 13.9224C1.60813 13.9974 1.64093 14.0833 1.68311 14.1629C2.30172 15.3746 3.28901 16.0335 4.64497 16.1724C6.00248 16.3114 7.35687 16.4769 8.71282 16.6284C9.72042 16.7408 10.7296 16.8454 11.7356 16.9672C12.0106 17 12.0574 16.8844 12.0558 16.6456C12.048 15.2356 12.0527 13.8256 12.0527 12.4172C12.0527 12.3048 12.0527 12.1924 12.0574 12.0784C12.0652 11.8364 12.1902 11.6927 12.4339 11.6912C12.6776 11.6912 12.8088 11.8395 12.8213 12.0737C12.8354 12.3548 12.8291 12.6374 12.8291 12.92C12.8291 13.5508 12.8291 14.1832 12.8291 14.814H12.826ZM5.21515 17.0375C5.20578 17.1187 5.19484 17.1436 5.20109 17.1624C6.12589 20.2712 7.05537 23.3784 7.97392 26.4887C8.03953 26.7136 8.1567 26.7651 8.36134 26.7636C9.41111 26.7589 10.4609 26.7573 11.5107 26.7636C11.7903 26.7651 11.8934 26.7073 11.7981 26.3888C10.9295 23.5002 10.075 20.6069 9.22366 17.712C9.15961 17.4934 9.02058 17.4419 8.82687 17.4216C8.14264 17.3498 7.45841 17.2717 6.77419 17.1983C6.26024 17.1436 5.74785 17.0921 5.21515 17.0375ZM11.1029 21.2923C12.1355 20.7521 13.1259 20.2337 14.1304 19.7075C14.0851 19.6653 14.0726 19.6404 14.0554 19.6372C13.6461 19.5638 13.2353 19.4905 12.8244 19.4233C12.3011 19.339 12.0605 19.0673 12.0512 18.5333C12.048 18.3537 12.0621 18.1711 12.0434 17.9931C12.0355 17.9197 11.9731 17.7963 11.9231 17.7901C11.306 17.7042 10.6843 17.6355 9.99223 17.5527C10.375 18.8378 10.7311 20.037 11.1045 21.2908L11.1029 21.2923Z" style="fill: rgb(0, 0, 0);"/>
  <path d="M33.181 21.2954C33.0748 21.3985 32.9623 21.5936 32.8514 21.5936C32.6811 21.5936 32.439 21.5046 32.3547 21.3735C31.9376 20.7208 31.5626 20.04 31.1721 19.3702C31.1049 19.2531 31.0377 19.136 30.969 19.0204C30.8347 18.7909 30.855 18.5723 31.0862 18.4333C31.333 18.285 31.5408 18.3834 31.6814 18.6238C31.9891 19.1469 32.2937 19.6715 32.5999 20.1962C32.7468 20.4491 32.8952 20.7005 33.0357 20.9566C33.0842 21.0425 33.1154 21.1393 33.181 21.2954Z" style="fill: rgb(0, 0, 0);"/>
  <path d="M36.3288 12.2031C36.7787 12.2031 37.2286 12.2031 37.6801 12.2031C37.93 12.2031 38.0956 12.3062 38.1128 12.5701C38.13 12.8371 37.9597 12.9823 37.7238 12.987C36.7678 13.001 35.8102 13.001 34.8541 12.987C34.6151 12.9838 34.4417 12.8199 34.4651 12.5669C34.487 12.3234 34.6542 12.2016 34.9104 12.2047C35.3837 12.2109 35.8555 12.2062 36.3288 12.2062V12.2031Z" style="fill: rgb(0, 0, 0);"/>
  <path d="M33.8668 9.45984C33.7715 9.36616 33.5856 9.26778 33.5684 9.14443C33.5497 9.00234 33.634 8.7775 33.7512 8.69631C34.1183 8.43867 34.5213 8.231 34.9103 8.0046C35.329 7.76101 35.7476 7.51743 36.1663 7.27541C36.3897 7.14582 36.6131 7.13488 36.7568 7.37534C36.9099 7.62985 36.7911 7.82503 36.5537 7.964C35.7648 8.42306 34.9759 8.88211 34.1855 9.33805C34.1089 9.38177 34.0183 9.40363 33.8652 9.4614L33.8668 9.45984Z" style="fill: rgb(0, 0, 0);"/>
  <path d="M36.7802 17.495C36.7865 17.9088 36.4553 18.0665 36.1194 17.876C35.4727 17.5091 34.8338 17.1296 34.1917 16.7564C34.0355 16.6659 33.8777 16.58 33.7278 16.4801C33.5325 16.3505 33.4622 16.1725 33.5825 15.9586C33.7012 15.7478 33.8996 15.6884 34.1027 15.804C34.9353 16.2755 35.7617 16.758 36.5819 17.2483C36.6834 17.3092 36.7412 17.4466 36.7787 17.4966L36.7802 17.495Z" style="fill: rgb(0, 0, 0);"/>
  <path d="M33.1795 3.89181C33.1092 4.05576 33.0717 4.17443 33.0123 4.27748C32.5858 5.0176 32.1547 5.75459 31.7251 6.49314C31.5908 6.72579 31.4267 6.90692 31.1299 6.7617C30.8971 6.64772 30.8706 6.40258 31.0502 6.09185C31.4955 5.32363 31.9329 4.54917 32.4031 3.79656C32.4796 3.67321 32.7139 3.59514 32.8733 3.5967C32.9764 3.59826 33.0779 3.78563 33.1795 3.89025V3.89181Z" style="fill: rgb(0, 0, 0);"/>
  <path d="M12.4214 11.0181C12.1543 11.0134 12.0074 10.8604 12.0105 10.6012C12.0137 10.3435 12.1683 10.1827 12.4355 10.1858C12.7026 10.189 12.8572 10.356 12.8557 10.609C12.8557 10.8651 12.701 11.0181 12.4214 11.0181Z" style="fill: rgb(0, 0, 0);"/>
  <path d="M29.1397 12.172C29.3819 12.1767 29.5631 12.3671 29.5537 12.6076C29.5443 12.8387 29.3365 13.0386 29.1085 13.0136C28.8632 12.987 28.7226 12.8449 28.7179 12.592C28.7117 12.3406 28.8898 12.1673 29.1397 12.172Z" style="fill: rgb(0, 0, 0);"/>
  <path d="M1.50976 12.5859C1.47851 12.8575 1.34105 13.0168 1.07236 13.0137C0.798977 13.0106 0.663066 12.8466 0.66619 12.578C0.669315 12.3189 0.813038 12.1861 1.07079 12.1846C1.34417 12.1846 1.48008 12.3313 1.50976 12.5859Z" style="fill: rgb(0, 0, 0);"/>
  <path d="M21.4351 20.3336C21.418 20.5959 21.282 20.7458 21.0071 20.7395C20.7322 20.7333 20.5963 20.5803 20.6025 20.3086C20.6087 20.0509 20.7525 19.9182 21.0087 19.9151C21.2852 19.912 21.4226 20.0556 21.4351 20.3336Z" style="fill: rgb(0, 0, 0);"/>
</svg>
