<?xml version="1.0" encoding="utf-8"?>
<svg viewBox="0 0 24 24" fill="none" xmlns="http://www.w3.org/2000/svg">
  <path d="M 14.716 6.322 C 14.284 6.387 13.876 6.446 13.467 6.511 C 12.352 6.687 11.238 6.865 10.123 7.042 C 9.486 7.144 8.848 7.25 8.209 7.343 C 8.072 7.363 8.067 7.436 8.067 7.538 C 8.068 7.932 8.069 8.327 8.067 8.721 C 8.067 8.794 8.077 8.891 8.037 8.937 C 7.973 9.009 7.865 9.095 7.786 9.086 C 7.71 9.077 7.617 8.965 7.588 8.879 C 7.553 8.775 7.572 8.65 7.577 8.536 C 7.584 8.401 7.532 8.355 7.396 8.371 C 6.936 8.426 6.476 8.471 6.016 8.522 C 4.996 8.637 3.974 8.741 2.955 8.873 C 2.202 8.97 1.644 9.368 1.319 10.066 C 1.302 10.103 1.289 10.142 1.269 10.177 C 1.195 10.306 1.088 10.365 0.945 10.3 C 0.803 10.235 0.772 10.121 0.83 9.978 C 1.063 9.417 1.451 8.996 1.974 8.693 C 2.379 8.458 2.826 8.384 3.281 8.335 C 4.647 8.188 6.012 8.039 7.379 7.896 C 7.523 7.881 7.589 7.83 7.575 7.681 C 7.515 6.979 7.797 6.921 8.316 6.845 C 9.526 6.669 10.733 6.462 11.941 6.269 C 12.78 6.136 13.619 6.002 14.459 5.879 C 14.65 5.851 14.751 5.803 14.737 5.579 C 14.716 5.246 14.729 4.912 14.733 4.579 C 14.738 4.187 14.949 3.979 15.344 3.978 C 16.059 3.976 16.774 3.976 17.488 3.978 C 17.895 3.979 18.115 4.2 18.115 4.614 C 18.116 6.402 18.116 8.19 18.115 9.978 C 18.115 10.045 18.118 10.133 18.081 10.173 C 18.018 10.239 17.916 10.319 17.841 10.31 C 17.766 10.3 17.69 10.197 17.643 10.118 C 17.613 10.067 17.634 9.985 17.634 9.917 C 17.634 8.176 17.632 6.436 17.638 4.695 C 17.638 4.509 17.587 4.445 17.399 4.448 C 16.745 4.458 16.092 4.458 15.44 4.448 C 15.247 4.445 15.198 4.519 15.198 4.701 C 15.202 8.363 15.201 12.027 15.201 15.691 C 15.201 16.233 15.207 16.775 15.198 17.317 C 15.196 17.499 15.247 17.571 15.441 17.569 C 16.095 17.558 16.748 17.558 17.401 17.569 C 17.595 17.571 17.639 17.5 17.638 17.318 C 17.632 15.577 17.634 13.837 17.634 12.096 C 17.634 12.035 17.613 11.958 17.641 11.916 C 17.7 11.831 17.78 11.719 17.865 11.705 C 17.934 11.695 18.036 11.802 18.098 11.879 C 18.132 11.923 18.116 12.009 18.116 12.077 C 18.116 13.838 18.117 15.599 18.116 17.361 C 18.116 17.834 17.906 18.042 17.429 18.043 C 16.755 18.044 16.082 18.045 15.408 18.043 C 14.939 18.042 14.735 17.839 14.733 17.372 C 14.731 17.052 14.726 16.733 14.736 16.413 C 14.741 16.246 14.699 16.163 14.514 16.156 C 14.331 16.148 14.15 16.105 13.969 16.077 C 13.807 16.052 13.667 15.992 13.695 15.796 C 13.723 15.597 13.872 15.581 14.036 15.606 C 14.256 15.64 14.475 15.672 14.715 15.708 L 14.715 6.321 L 14.716 6.322 Z" style="fill: rgb(0, 0, 0);" transform="matrix(1, 0, 0, 1, -4.440892098500626e-16, -4.440892098500626e-16)"/>
  <path d="M 8.043 12.348 C 8.043 13.02 8.052 13.693 8.039 14.365 C 8.035 14.568 8.094 14.651 8.296 14.681 C 9.236 14.823 10.175 14.977 11.115 15.127 C 11.43 15.178 11.745 15.235 12.06 15.286 C 12.217 15.312 12.318 15.396 12.295 15.56 C 12.269 15.738 12.135 15.784 11.974 15.76 C 11.256 15.648 10.539 15.53 9.819 15.425 C 9.726 15.412 9.613 15.433 9.529 15.477 C 8.785 15.858 8.048 16.251 7.305 16.631 C 7.171 16.7 7.155 16.768 7.197 16.903 C 7.431 17.668 7.656 18.437 7.884 19.205 C 8.033 19.705 7.8 20.023 7.282 20.024 C 6.636 20.025 5.989 20.024 5.343 20.024 C 4.944 20.024 4.773 19.894 4.661 19.518 C 4.104 17.637 3.544 15.758 2.989 13.877 C 2.939 13.707 2.87 13.619 2.674 13.574 C 1.851 13.387 1.248 12.901 0.872 12.141 C 0.852 12.099 0.813 12.047 0.822 12.01 C 0.849 11.909 0.869 11.778 0.941 11.721 C 1.049 11.636 1.175 11.69 1.253 11.811 C 1.282 11.856 1.302 11.908 1.327 11.956 C 1.7 12.686 2.295 13.083 3.112 13.167 C 3.931 13.251 4.747 13.351 5.564 13.442 C 6.172 13.51 6.78 13.573 7.386 13.646 C 7.552 13.666 7.58 13.596 7.579 13.452 C 7.574 12.602 7.577 11.752 7.577 10.904 C 7.577 10.836 7.577 10.768 7.58 10.699 C 7.585 10.553 7.66 10.467 7.807 10.466 C 7.954 10.466 8.033 10.555 8.041 10.697 C 8.049 10.866 8.045 11.036 8.045 11.207 C 8.045 11.587 8.045 11.968 8.045 12.348 L 8.043 12.348 Z M 3.456 13.688 C 3.45 13.737 3.444 13.752 3.448 13.764 C 4.005 15.637 4.565 17.51 5.119 19.385 C 5.158 19.521 5.229 19.552 5.352 19.551 C 5.985 19.548 6.618 19.547 7.251 19.551 C 7.419 19.552 7.481 19.517 7.424 19.325 C 6.9 17.584 6.385 15.84 5.872 14.095 C 5.834 13.963 5.75 13.932 5.633 13.92 C 5.221 13.877 4.808 13.83 4.396 13.785 C 4.086 13.752 3.777 13.721 3.456 13.688 Z M 7.005 16.253 C 7.627 15.927 8.224 15.615 8.83 15.298 C 8.802 15.272 8.795 15.257 8.784 15.255 C 8.538 15.211 8.29 15.167 8.042 15.126 C 7.727 15.076 7.582 14.912 7.576 14.59 C 7.574 14.482 7.583 14.372 7.572 14.264 C 7.567 14.22 7.529 14.146 7.499 14.142 C 7.127 14.09 6.752 14.049 6.335 13.999 C 6.566 14.774 6.781 15.496 7.006 16.252 L 7.005 16.253 Z" style="fill: rgb(0, 0, 0);" transform="matrix(1, 0, 0, 1, -4.440892098500626e-16, -4.440892098500626e-16)"/>
  <path d="M 20.312 16.255 C 20.248 16.317 20.18 16.435 20.114 16.435 C 20.011 16.435 19.865 16.381 19.814 16.302 C 19.563 15.908 19.337 15.498 19.101 15.094 C 19.061 15.024 19.02 14.953 18.979 14.884 C 18.898 14.745 18.91 14.613 19.05 14.53 C 19.198 14.44 19.324 14.5 19.408 14.645 C 19.594 14.96 19.777 15.276 19.962 15.592 C 20.05 15.745 20.14 15.896 20.225 16.051 C 20.254 16.102 20.273 16.161 20.312 16.255 Z" style="fill: rgb(0, 0, 0);" transform="matrix(1, 0, 0, 1, -4.440892098500626e-16, -4.440892098500626e-16)"/>
  <path d="M 22.21 10.775 C 22.481 10.775 22.752 10.775 23.024 10.775 C 23.175 10.775 23.274 10.837 23.285 10.996 C 23.295 11.157 23.193 11.244 23.05 11.247 C 22.474 11.255 21.897 11.255 21.321 11.247 C 21.177 11.245 21.072 11.146 21.086 10.994 C 21.099 10.847 21.2 10.774 21.355 10.775 C 21.64 10.779 21.924 10.776 22.21 10.776 L 22.21 10.775 Z" style="fill: rgb(0, 0, 0);" transform="matrix(1, 0, 0, 1, -4.440892098500626e-16, -4.440892098500626e-16)"/>
  <path d="M 20.726 9.121 C 20.668 9.065 20.556 9.005 20.546 8.931 C 20.534 8.845 20.585 8.71 20.656 8.661 C 20.877 8.506 21.12 8.38 21.355 8.244 C 21.607 8.097 21.859 7.95 22.112 7.804 C 22.246 7.726 22.381 7.72 22.467 7.865 C 22.56 8.018 22.488 8.136 22.345 8.219 C 21.87 8.496 21.394 8.773 20.918 9.048 C 20.871 9.074 20.817 9.087 20.725 9.122 L 20.726 9.121 Z" style="fill: rgb(0, 0, 0);" transform="matrix(1, 0, 0, 1, -4.440892098500626e-16, -4.440892098500626e-16)"/>
  <path d="M 22.482 13.964 C 22.485 14.214 22.286 14.309 22.083 14.194 C 21.693 13.973 21.308 13.744 20.921 13.519 C 20.827 13.464 20.732 13.413 20.642 13.352 C 20.524 13.274 20.482 13.167 20.554 13.038 C 20.626 12.911 20.745 12.875 20.868 12.945 C 21.37 13.229 21.868 13.52 22.362 13.815 C 22.423 13.852 22.458 13.935 22.481 13.965 L 22.482 13.964 Z" style="fill: rgb(0, 0, 0);" transform="matrix(1, 0, 0, 1, -4.440892098500626e-16, -4.440892098500626e-16)"/>
  <path d="M 20.311 5.765 C 20.269 5.864 20.246 5.935 20.211 5.997 C 19.953 6.444 19.694 6.888 19.435 7.333 C 19.354 7.473 19.255 7.582 19.076 7.495 C 18.936 7.426 18.92 7.278 19.028 7.091 C 19.296 6.628 19.56 6.161 19.843 5.708 C 19.889 5.633 20.031 5.586 20.127 5.587 C 20.189 5.588 20.25 5.701 20.311 5.764 L 20.311 5.765 Z" style="fill: rgb(0, 0, 0);" transform="matrix(1, 0, 0, 1, -4.440892098500626e-16, -4.440892098500626e-16)"/>
  <path d="M 7.8 10.06 C 7.639 10.057 7.55 9.965 7.552 9.809 C 7.554 9.654 7.647 9.557 7.808 9.559 C 7.969 9.561 8.062 9.661 8.061 9.814 C 8.061 9.968 7.968 10.06 7.8 10.06 Z" style="fill: rgb(0, 0, 0);" transform="matrix(1, 0, 0, 1, -4.440892098500626e-16, -4.440892098500626e-16)"/>
  <path d="M 17.876 10.756 C 18.022 10.759 18.132 10.873 18.126 11.018 C 18.12 11.158 17.995 11.278 17.858 11.263 C 17.71 11.247 17.625 11.161 17.622 11.009 C 17.618 10.857 17.726 10.753 17.876 10.756 Z" style="fill: rgb(0, 0, 0);" transform="matrix(1, 0, 0, 1, -4.440892098500626e-16, -4.440892098500626e-16)"/>
  <path d="M 1.223 11.005 C 1.204 11.169 1.121 11.265 0.959 11.263 C 0.794 11.261 0.712 11.162 0.714 11 C 0.716 10.844 0.803 10.764 0.958 10.763 C 1.123 10.763 1.205 10.852 1.223 11.005 Z" style="fill: rgb(0, 0, 0);" transform="matrix(1, 0, 0, 1, -4.440892098500626e-16, -4.440892098500626e-16)"/>
  <path d="M 13.232 15.675 C 13.222 15.833 13.14 15.924 12.974 15.92 C 12.809 15.916 12.727 15.824 12.731 15.66 C 12.734 15.505 12.821 15.425 12.975 15.423 C 13.142 15.421 13.225 15.508 13.232 15.675 Z" style="fill: rgb(0, 0, 0);" transform="matrix(1, 0, 0, 1, -4.440892098500626e-16, -4.440892098500626e-16)"/>
</svg>
