<svg width="24" height="24" viewBox="0 0 24 24" fill="none" xmlns="http://www.w3.org/2000/svg">
<rect width="24" height="24" />
<path d="M11.9562 1.11655C2.32262 1.03008 -2.70317 13.1155 4.20764 19.8086C10.4722 26.3043 22.0361 22.2617 22.9135 13.2893C23.7522 6.94306 18.3708 0.985901 11.9855 1.11655V1C11.9808 1 11.976 1 11.9704 1L11.9562 1.11655ZM11.1628 11.4762H6.84648C6.91913 10.0006 7.20594 8.4347 7.69748 7.15642C7.79748 6.89042 7.88334 6.66108 8.17864 6.66108C9.16455 6.88102 10.2552 7.06619 11.3996 7.1677V11.4762H11.1628ZM11.3977 12.6464V16.9625C10.3514 17.0443 9.14002 17.2708 8.17769 17.4785C7.99089 17.4785 7.85503 17.3761 7.77201 17.174C7.24651 15.9107 6.89931 14.1522 6.85403 12.6464H11.3977ZM9.24946 4.11956C9.60514 3.61577 9.97875 3.13924 10.3618 2.65424C10.6212 2.2576 10.9175 2.30272 11.36 2.2952C11.4392 2.56871 11.3798 5.72023 11.3977 5.99563C10.4109 5.95897 9.40702 5.79261 8.39092 5.52097C8.6815 5.05948 8.94095 4.56038 9.24946 4.11956ZM6.03605 4.23611C6.76251 3.66559 7.67766 3.20973 8.57866 2.83001C8.4362 3.1665 8.21355 3.67687 8.00882 3.9767C7.69465 4.34138 7.68238 4.92131 7.16065 5.06981C6.68609 4.95327 6.18701 4.65437 5.71717 4.47861L6.03605 4.23611ZM2.15091 11.2375C2.39998 9.10015 3.18493 6.63007 4.94542 5.38281C5.4747 5.51627 6.02568 5.89694 6.49269 6.06706C6.80403 6.20805 6.76157 6.45054 6.70968 6.58307C6.17663 7.91775 5.8634 9.33607 5.75302 10.9189C5.73037 11.2394 5.47092 11.4941 5.14826 11.4941C4.77937 11.496 2.44244 11.4932 2.12921 11.4941L2.15185 11.2385L2.15091 11.2375ZM4.96146 18.7568C3.14437 17.5246 2.30941 14.7547 2.13959 12.6333C2.48678 12.6295 3.06134 12.6361 3.41325 12.6333C4.018 12.6361 4.6888 12.6333 5.29072 12.6295C5.5313 12.6276 5.72471 12.8184 5.73886 13.0572C5.82 14.686 6.15776 16.064 6.6993 17.5283C6.73798 17.6392 6.83988 17.9325 6.47004 18.0942C6.03888 18.2436 5.50017 18.6243 4.96146 18.7568ZM8.03429 21.0483C7.21348 20.7137 6.44363 20.2184 5.71622 19.646C6.15493 19.4589 6.64269 19.2409 7.07385 19.0679C7.68993 19.1017 7.79748 20.0003 8.16637 20.4327C8.27298 20.6159 8.57111 21.1301 8.68244 21.3199L8.03429 21.0483ZM11.3986 18.3752V21.8303C11.0515 21.8031 10.809 21.9403 10.4646 21.5935C9.62401 20.6084 8.95982 19.6854 8.44941 18.597C9.37588 18.3376 10.3335 18.1863 11.3996 18.1224L11.3986 18.3752ZM14.5036 20.1281C14.1299 20.6432 13.7233 21.1367 13.328 21.6198C13.1374 21.8125 12.7978 21.9177 12.5751 22.0728V18.1289C13.5261 18.1628 14.5017 18.3226 15.4885 18.582C15.1564 19.0923 14.8536 19.6403 14.5045 20.1272L14.5036 20.1281ZM17.9377 19.8847C17.1254 20.522 16.132 20.9957 15.1338 21.3867C15.3159 21.0474 15.5914 20.5238 15.7989 20.2043C16.1386 19.817 16.1697 19.1882 16.715 19.0237C17.2188 19.1525 17.7594 19.4561 18.2632 19.6384L17.9377 19.8847ZM21.8559 12.9153C21.4757 15.0047 20.8455 17.4795 19.0265 18.7389C18.467 18.5923 17.8755 18.1966 17.3858 18.0199C17.0896 17.8874 17.1065 17.6665 17.1726 17.5039C17.7217 16.1673 18.0396 14.7218 18.1453 13.0826C18.2849 12.3081 19.352 12.7376 19.8945 12.6352H20.6181C20.9634 12.6399 21.5729 12.6305 21.9134 12.6352L21.8559 12.9171V12.9153ZM19.0321 5.38093C20.8304 6.65169 21.6672 9.37649 21.804 11.4932C20.7624 11.495 19.6369 11.4885 18.5972 11.496C18.2585 11.5016 18.166 11.2798 18.1585 11.0956C18.0679 9.39529 17.7472 7.88203 17.1754 6.45054C17.1773 6.39979 17.1905 6.2823 17.1962 6.23154L17.3235 6.14789C17.9066 5.92795 18.4349 5.55011 19.0321 5.38281V5.38093ZM15.9338 3.11668C16.7075 3.38925 17.5113 3.89493 18.2377 4.46451C17.8047 4.64028 17.2688 4.98616 16.8282 5.04444C16.3612 5.00684 16.2008 4.26055 15.9282 3.93252C15.7555 3.65807 15.4951 3.18153 15.3347 2.89486L15.9338 3.11574V3.11668ZM12.5714 5.78791V2.30836C12.9384 2.26512 13.3337 2.29332 13.5676 2.60443C14.4403 3.64679 15.0206 4.51621 15.5527 5.59993C15.1376 5.66384 12.9921 5.99751 12.5714 6.06236V5.78791ZM12.5676 11.246V7.16112C13.6535 7.09156 14.7158 6.84343 15.7838 6.65826C15.8999 6.65826 16.0565 6.70432 16.1433 6.92614C16.6471 8.2016 16.9386 9.60771 17.032 11.1943C17.0245 11.2432 16.9867 11.3982 16.9745 11.4481L16.7811 11.4819H12.5666V11.2469L12.5676 11.246ZM12.5648 16.7022V12.6549C12.9563 12.6229 13.5827 12.637 13.9809 12.6352C14.8272 12.6352 15.7253 12.6352 16.5688 12.6305C16.6867 12.6305 16.8245 12.6446 16.9235 12.7517C17.1622 14.2462 16.5329 15.8581 16.1093 17.1251C16.0735 17.2135 15.9791 17.4484 15.6876 17.4484C14.6705 17.284 13.5931 17.0697 12.5638 16.8995V16.7031L12.5648 16.7022Z" fill="#2F2F2F"/>
</svg>
