<?xml version="1.0" encoding="utf-8"?>
<svg viewBox="0 0 24 24" fill="none" xmlns="http://www.w3.org/2000/svg">
  <defs>
    <clipPath id="clip0_1934_2117">
      <rect width="27.7118" height="27.6257" fill="white"/>
    </clipPath>
  </defs>
  <g clip-path="url(#clip0_1934_2117)" style="" transform="matrix(0.8406980037689209, 0, 0, 0.8406980037689209, 0.35072302818298295, 0.38806900382041887)">
    <path d="M26.8475 9.15044C26.6624 8.64759 26.4318 8.12444 26.1022 7.45079C25.6674 6.55975 25.1048 5.71768 24.3834 4.87562C22.6527 2.85586 20.5003 1.42733 17.9885 0.631848C17.3614 0.433574 16.7248 0.280688 16.0989 0.17558C15.399 0.0573321 14.748 0 14.1174 0C14.0218 0 13.9263 0.00238884 13.8319 0.00477768C13.6874 0.00955535 13.5512 0.0358326 13.4461 0.0812205C13.212 0.181552 13.0233 0.377436 12.9277 0.619903C12.8346 0.857593 12.8405 1.11678 12.9433 1.3473C13.1105 1.72116 13.3792 1.91226 13.7901 1.94571L14.4697 1.99707C14.8257 2.02215 15.1816 2.04723 15.5363 2.08187C16.2004 2.14637 16.8371 2.32195 17.371 2.48678C18.0004 2.67908 18.6215 2.9323 19.2175 3.23688C20.2316 3.75645 21.1525 4.40382 21.9563 5.16108C23.1173 6.25278 24.0322 7.54156 24.6784 8.99398C25.0141 9.74765 25.2494 10.4488 25.3963 11.1356C25.5265 11.7543 25.6029 12.3778 25.6543 12.8531C25.8024 14.2088 25.6674 15.5908 25.241 17.0766C25.0702 17.6667 24.8325 18.2448 24.6008 18.781C24.1875 19.7342 23.619 20.6276 22.8605 21.5115C21.5168 23.0762 19.853 24.23 17.9168 24.9442C17.1464 25.2273 16.4477 25.4125 15.7788 25.508C15.2521 25.5821 14.7194 25.6167 14.1866 25.6501L13.894 25.6693C13.6826 25.6836 13.5417 25.7123 13.4198 25.7696C13.1499 25.895 12.9564 26.1387 12.8895 26.4373C12.8214 26.7299 12.8895 27.0261 13.0723 27.2519C13.2801 27.5063 13.5333 27.6245 13.8713 27.6245H13.8845C15.012 27.6245 16.1407 27.4836 17.2396 27.2029C17.8714 27.0428 18.4842 26.8434 19.0611 26.6081C19.7025 26.3465 20.3367 26.0288 20.9471 25.6633C22.1988 24.9132 23.3263 23.966 24.2974 22.8492C24.9782 22.0657 25.5145 21.2941 25.9361 20.4938C26.2395 19.9181 26.525 19.297 26.7854 18.6485C26.9872 18.1444 27.1294 17.6117 27.2297 17.2044C27.3802 16.5905 27.4865 16.0518 27.5522 15.5549C27.6059 15.1512 27.6286 14.7415 27.6525 14.333L27.686 13.8039C27.6597 12.6202 27.545 11.6922 27.3038 10.7104C27.1783 10.2003 27.0386 9.66046 26.8499 9.14925L26.8475 9.15044Z" fill="#DBDBDB"/>
    <path d="M11.3536 16.0518L11.2664 15.9718L8.82504 13.5197C8.64229 13.3381 8.38191 13.2414 8.12511 13.2414C7.96506 13.2414 7.80501 13.2784 7.66645 13.3572C7.38577 13.5149 7.19944 13.78 7.15644 14.087C7.11463 14.3892 7.21616 14.6902 7.43713 14.9135C8.62796 16.1187 9.82835 17.3143 11.0323 18.5075C11.405 18.8742 11.9962 18.8778 12.3772 18.5075C12.5934 18.2985 12.8036 18.0859 13.0163 17.8733L20.221 10.6698C20.5184 10.3724 20.6116 9.93998 20.4563 9.56612C20.3321 9.26513 20.0633 9.04655 19.7373 8.98325C19.4124 8.91397 19.0887 9.01191 18.857 9.24482L11.7358 16.4054L11.4145 16.1092" fill="#DBDBDB"/>
    <path d="M2.59612 17.2977C2.46592 16.839 2.33573 16.3828 2.24974 15.9134C2.13865 15.3102 2.07416 14.695 2.05504 14.0871C2.02996 13.1996 2.09685 12.391 2.26407 11.6158C2.37993 11.0831 2.52087 10.5552 2.663 10.0284C2.74781 9.71671 2.71914 9.45632 2.56984 9.21147C2.45995 9.02872 2.29035 8.89495 2.0001 8.76714C1.88663 8.71578 1.77675 8.69189 1.66447 8.69189C1.54742 8.69189 1.42797 8.71698 1.29659 8.76953C0.988429 8.89136 0.797321 9.12427 0.694601 9.50171C0.559632 9.99859 0.425857 10.4967 0.311193 10.9983C0.166668 11.6326 0.0794756 12.3122 0.0448375 13.0718C-0.0160779 14.3857 0.0818645 15.5885 0.342248 16.7506C0.412719 17.066 0.504689 17.3753 0.595465 17.6859L0.739989 18.1875C0.834348 18.5351 1.21298 18.8815 1.71344 18.866H1.7445C1.85916 18.8576 2.01205 18.854 2.17568 18.7716C2.62 18.5494 2.82067 18.1003 2.68809 17.625L2.59492 17.2977H2.59612Z" fill="#DBDBDB"/>
    <path d="M8.44759 24.3696L8.35323 24.304C8.25529 24.2335 8.1466 24.1797 8.0391 24.126C7.95191 24.0806 7.86471 24.0364 7.77872 23.9862C6.96054 23.5097 6.18417 22.9053 5.47229 22.1946C5.28119 22.0035 5.0638 21.9044 4.79506 21.8853L4.69711 21.9056C4.61231 21.9211 4.52512 21.9342 4.44509 21.9629C4.09632 22.0811 3.88969 22.3117 3.81205 22.6664C3.73202 23.0367 3.81802 23.3353 4.07602 23.5801C4.49406 23.9791 4.91808 24.3744 5.3636 24.7435C5.97634 25.2523 6.70254 25.7265 7.58403 26.1935C7.90771 26.3655 8.20154 26.3942 8.50492 26.2747C8.8513 26.1422 9.09497 25.8077 9.12483 25.4267C9.14035 25.2332 9.09019 25.0445 8.97313 24.8462C8.86325 24.6599 8.67095 24.5261 8.44879 24.372L8.44759 24.3696Z" fill="#DBDBDB"/>
    <path d="M3.86925 5.06556C3.99586 5.38925 4.25027 5.6138 4.56799 5.68188C4.89407 5.75713 5.21417 5.65321 5.46141 5.40836C6.40023 4.49224 7.43698 3.75767 8.54182 3.22496C8.81893 3.09119 9.01959 2.84872 9.09245 2.55609C9.16292 2.27181 9.10439 1.98396 8.92762 1.74746C8.65887 1.38197 8.18708 1.23984 7.80486 1.41422C7.43579 1.57666 7.08344 1.77613 6.73466 1.97918C5.78988 2.531 4.90004 3.22138 4.08903 4.03119C3.91106 4.20916 3.81312 4.42057 3.78564 4.6941L3.80714 4.80398C3.82387 4.89356 3.837 4.98315 3.87045 5.06676L3.86925 5.06556Z" fill="#DBDBDB"/>
  </g>
</svg>
