<svg width="43" height="37" viewBox="0 0 43 37" fill="none" xmlns="http://www.w3.org/2000/svg">
<path d="M25.4675 12.2005C25.4315 12.4565 25.4022 12.7071 25.3608 12.9537C25.2928 13.363 25.1742 13.7576 24.9902 14.1309C24.5916 14.9362 23.9583 15.4374 23.0704 15.6041C22.1065 15.7854 21.2026 15.6174 20.3627 15.1148C20.0548 14.9308 19.7561 14.7309 19.4508 14.5429C19.1869 14.3802 18.9136 14.2416 18.6056 14.1829C18.2643 14.1176 17.935 14.1389 17.639 14.3429C17.4164 14.4962 17.2711 14.7135 17.1791 14.9602C17.0964 15.1815 17.0391 15.4108 16.9671 15.6468H14.906C14.91 15.5814 14.9127 15.5161 14.9193 15.4508C14.9607 15.0575 15.022 14.6682 15.138 14.2882C15.2713 13.8496 15.4646 13.4403 15.7632 13.087C16.1192 12.6658 16.5698 12.3951 17.1018 12.2671C18.075 12.0325 19.0042 12.1525 19.8774 12.6458C20.2174 12.8377 20.5427 13.0551 20.876 13.259C21.1573 13.431 21.4479 13.583 21.7759 13.647C22.1305 13.7163 22.4692 13.6896 22.7665 13.4577C22.9864 13.287 23.1237 13.0551 23.2144 12.7964C23.2811 12.6031 23.3291 12.4031 23.3877 12.2005H25.4675Z" fill="#DBDBDB"/>
<path d="M42.2978 15.9721C42.1284 15.0629 41.7072 14.291 41.0539 13.6524C40.0727 12.6912 38.8875 12.2659 37.513 12.3699C36.717 12.4299 35.9931 12.6952 35.3425 13.1431C34.6266 13.6351 34.0974 14.2883 33.7574 15.0909C33.7094 15.2029 33.6561 15.2429 33.5241 15.2149C32.9655 15.0962 32.4042 14.9856 31.8443 14.8709C31.8683 14.559 31.8909 14.247 31.8909 13.9284C31.8909 7.28646 26.5075 1.90173 19.8656 1.90173C15.8354 1.90173 12.2785 3.89084 10.0961 6.93316C9.6881 6.69719 9.28148 6.45855 8.87086 6.22658C8.72154 6.14259 8.71621 6.05593 8.74821 5.91595C8.82287 5.59198 8.90952 5.26936 8.95352 4.94006C9.0695 4.07883 8.90685 3.25225 8.5109 2.48833C7.77765 1.07916 6.61778 0.249921 5.03262 0.0406117C3.91808 -0.107372 2.89287 0.151266 1.97297 0.780529C0.863763 1.53911 0.222501 2.59765 0.0411879 3.9375C-0.0827981 4.8534 0.0745177 5.71863 0.49447 6.53054C1.12507 7.75174 2.11696 8.52632 3.45414 8.85961C4.22872 9.05293 4.9993 9.02759 5.75788 8.80628C6.59112 8.56365 7.30037 8.10903 7.87497 7.4531C7.95629 7.36112 8.01896 7.34112 8.13628 7.40778C8.5389 7.64242 8.94419 7.87172 9.34814 8.1037C8.39092 9.82884 7.84164 11.8139 7.84164 13.927C7.84164 20.3063 12.8131 25.5097 19.0897 25.9137C19.0777 26.3683 19.0617 26.8229 19.055 27.2762C19.0524 27.4469 18.9791 27.4948 18.8404 27.5322C18.5204 27.6202 18.1951 27.6988 17.8845 27.8161C17.0713 28.1254 16.4233 28.6627 15.9407 29.376C15.0515 30.6918 14.8769 32.1077 15.4488 33.6008C15.8514 34.6514 16.566 35.4286 17.5592 35.9366C18.7551 36.5498 19.9909 36.6085 21.2548 36.1285C22.1187 35.8006 22.804 35.2486 23.3172 34.4927C24.0891 33.3569 24.2971 32.1143 23.9518 30.7798C23.7518 30.0066 23.3626 29.3413 22.8053 28.78C22.1947 28.1628 21.4561 27.7575 20.6069 27.5655C20.4882 27.5375 20.4389 27.4922 20.4429 27.3575C20.4575 26.8776 20.4655 26.399 20.4775 25.919C26.0489 25.639 30.6217 21.5782 31.667 16.2468C32.1776 16.3534 32.6868 16.4628 33.1974 16.5627C33.3654 16.5961 33.3988 16.6761 33.4108 16.8187C33.4414 17.1493 33.4601 17.484 33.5214 17.8106C33.6814 18.6652 34.0947 19.3984 34.7119 19.9997C35.8491 21.1089 37.2117 21.5302 38.7822 21.2329C39.8874 21.0236 40.7793 20.457 41.4552 19.5717C42.2711 18.5025 42.5471 17.296 42.2991 15.9681L42.2978 15.9721ZM4.49802 7.58242C2.75688 7.58242 1.40104 6.22124 1.40371 4.47611C1.40637 2.75097 2.78488 1.40446 4.50602 1.39246C6.2045 1.39513 7.60967 2.79363 7.59367 4.49211C7.57767 6.21458 6.24049 7.58109 4.49802 7.58242ZM22.328 30.4718C23.1586 32.0023 22.6093 33.8435 21.0748 34.6727C19.5563 35.4926 17.7165 34.9247 16.8846 33.4182C16.0767 31.9237 16.6353 30.0226 18.1365 29.2253C19.6576 28.4187 21.4961 28.9413 22.328 30.4718ZM19.8643 23.9539C14.3356 23.9539 9.83875 19.4558 9.83875 13.9284C9.83875 8.401 14.3369 3.9015 19.8643 3.9015C25.3917 3.9015 29.8898 8.39967 29.8898 13.9284C29.8898 19.4571 25.3917 23.9539 19.8643 23.9539ZM38.8528 19.789C37.2397 20.3197 35.4665 19.4318 34.9492 17.8146C34.424 16.1735 35.2652 14.4563 36.9197 13.9097C38.5728 13.3631 40.2873 14.231 40.8313 15.8882C41.3699 17.528 40.4833 19.2384 38.8528 19.789Z" fill="#DBDBDB"/>
</svg>
