<?xml version="1.0" encoding="utf-8"?>
<svg viewBox="0 0 24 24" fill="none" xmlns="http://www.w3.org/2000/svg">
  <path d="M 15.597 15.375 C 14.597 15.375 13.597 15.375 12.597 15.375 C 12.483 15.375 12.426 15.433 12.426 15.55 C 12.426 16.183 12.426 16.816 12.426 17.449 C 12.426 17.609 12.435 17.607 12.591 17.642 C 13.153 17.769 13.638 18.038 14.025 18.466 C 14.596 19.096 14.85 19.836 14.738 20.684 C 14.598 21.745 14.017 22.49 13.044 22.908 C 11.748 23.464 10.188 22.881 9.548 21.635 C 9.251 21.058 9.149 20.45 9.279 19.819 C 9.463 18.936 9.96 18.275 10.77 17.872 C 10.988 17.764 11.232 17.708 11.467 17.637 C 11.543 17.613 11.57 17.572 11.569 17.499 C 11.569 17.368 11.569 17.237 11.569 17.106 C 11.569 16.585 11.569 16.065 11.569 15.544 C 11.569 15.433 11.513 15.377 11.402 15.377 C 9.447 15.377 7.492 15.378 5.537 15.375 C 4.917 15.374 4.441 15.101 4.141 14.558 C 3.848 14.03 3.883 13.499 4.179 12.978 C 4.754 11.97 5.329 10.961 5.905 9.953 C 6.301 9.26 6.697 8.566 7.095 7.874 C 7.143 7.79 7.138 7.74 7.045 7.687 C 6.48 7.368 5.916 7.044 5.355 6.717 C 5.284 6.675 5.244 6.688 5.195 6.745 C 4.841 7.148 4.404 7.429 3.89 7.579 C 3.423 7.715 2.948 7.731 2.471 7.612 C 1.647 7.406 1.035 6.928 0.647 6.177 C 0.389 5.676 0.291 5.143 0.368 4.579 C 0.479 3.753 0.874 3.102 1.558 2.633 C 2.125 2.246 2.757 2.087 3.443 2.177 C 4.42 2.307 5.136 2.817 5.587 3.686 C 5.831 4.156 5.931 4.666 5.859 5.196 C 5.832 5.399 5.779 5.598 5.733 5.798 C 5.713 5.883 5.716 5.937 5.808 5.989 C 6.365 6.303 6.916 6.624 7.467 6.945 C 7.552 6.995 7.599 6.988 7.65 6.896 C 8.395 5.589 9.144 4.285 9.891 2.98 C 10.146 2.533 10.399 2.085 10.657 1.638 C 10.967 1.102 11.602 0.807 12.211 0.897 C 12.791 0.981 13.168 1.319 13.446 1.813 C 14.035 2.861 14.637 3.901 15.234 4.944 C 15.606 5.596 15.979 6.246 16.349 6.899 C 16.395 6.981 16.437 6.996 16.516 6.95 C 17.085 6.622 17.654 6.294 18.224 5.968 C 18.309 5.919 18.272 5.854 18.258 5.791 C 18.219 5.616 18.178 5.443 18.139 5.268 C 18.072 4.965 18.105 4.661 18.167 4.364 C 18.292 3.757 18.586 3.238 19.06 2.835 C 19.683 2.303 20.405 2.073 21.223 2.179 C 22.196 2.306 22.909 2.817 23.359 3.681 C 23.616 4.174 23.709 4.708 23.629 5.27 C 23.497 6.186 23.032 6.878 22.231 7.334 C 21.614 7.685 20.951 7.769 20.258 7.61 C 19.686 7.479 19.208 7.189 18.819 6.754 C 18.761 6.69 18.716 6.684 18.646 6.724 C 18.075 7.055 17.502 7.384 16.928 7.711 C 16.859 7.751 16.867 7.797 16.898 7.851 C 17.133 8.262 17.369 8.674 17.604 9.085 C 18.116 9.983 18.628 10.881 19.14 11.779 C 19.382 12.204 19.622 12.63 19.866 13.053 C 20.3 13.807 19.98 14.835 19.196 15.209 C 18.958 15.322 18.713 15.379 18.449 15.378 C 17.498 15.375 16.547 15.377 15.595 15.377 L 15.597 15.375 Z M 11.995 14.51 C 14.119 14.51 16.243 14.51 18.366 14.51 C 18.448 14.51 18.531 14.511 18.613 14.502 C 19.018 14.457 19.32 13.968 19.161 13.593 C 19.079 13.398 18.966 13.216 18.861 13.032 C 18.098 11.693 17.336 10.354 16.571 9.016 C 15.962 7.95 15.348 6.886 14.738 5.821 C 14.033 4.587 13.33 3.35 12.624 2.117 C 12.487 1.878 12.277 1.74 12.002 1.74 C 11.722 1.739 11.51 1.878 11.37 2.12 C 10.807 3.101 10.246 4.082 9.685 5.064 C 8.911 6.418 8.137 7.773 7.363 9.127 C 6.537 10.572 5.711 12.017 4.887 13.463 C 4.754 13.695 4.758 13.936 4.897 14.167 C 5.045 14.415 5.27 14.512 5.556 14.512 C 7.702 14.509 9.849 14.51 11.995 14.51 Z M 3.121 3.009 C 2.061 3.016 1.212 3.846 1.21 4.909 C 1.208 5.984 2.043 6.823 3.116 6.823 C 4.189 6.823 5.013 5.98 5.023 4.919 C 5.033 3.871 4.168 3.01 3.121 3.009 Z M 20.882 3.009 C 19.833 3.009 18.968 3.864 18.972 4.911 C 18.976 5.974 19.805 6.826 20.882 6.823 C 21.952 6.821 22.783 5.99 22.785 4.917 C 22.788 3.845 21.938 3.021 20.882 3.009 Z M 11.998 18.443 C 10.96 18.425 10.091 19.285 10.091 20.341 C 10.091 21.4 10.947 22.245 11.994 22.247 C 13.05 22.249 13.903 21.4 13.907 20.351 C 13.911 19.29 13.04 18.425 11.998 18.443 Z" fill="#2F2F2F" style="" transform="matrix(0.9999999999999999, 0, 0, 0.9999999999999999, -4.440892098500626e-16, -4.440892098500626e-16)"/>
  <path d="M 15.081 8.929 C 15.059 9.086 15.041 9.241 15.015 9.393 C 14.973 9.645 14.9 9.888 14.787 10.118 C 14.541 10.614 14.151 10.923 13.604 11.026 C 13.01 11.138 12.453 11.034 11.935 10.724 C 11.746 10.611 11.562 10.488 11.373 10.372 C 11.211 10.272 11.042 10.186 10.853 10.15 C 10.642 10.11 10.439 10.123 10.257 10.249 C 10.12 10.343 10.03 10.477 9.974 10.629 C 9.923 10.766 9.887 10.907 9.843 11.052 L 8.573 11.052 C 8.575 11.012 8.577 10.972 8.581 10.931 C 8.607 10.689 8.644 10.449 8.716 10.215 C 8.798 9.945 8.917 9.693 9.101 9.475 C 9.321 9.215 9.598 9.049 9.926 8.97 C 10.526 8.825 11.098 8.899 11.636 9.203 C 11.846 9.321 12.046 9.455 12.252 9.581 C 12.425 9.687 12.604 9.781 12.806 9.82 C 13.025 9.863 13.233 9.846 13.417 9.703 C 13.552 9.598 13.637 9.455 13.693 9.296 C 13.734 9.177 13.763 9.054 13.799 8.929 L 15.081 8.929 Z" fill="#2F2F2F" style="" transform="matrix(0.9999999999999999, 0, 0, 0.9999999999999999, -4.440892098500626e-16, -4.440892098500626e-16)"/>
</svg>
