<?xml version="1.0" encoding="utf-8"?>
<svg viewBox="0 0 24 24" fill="none" xmlns="http://www.w3.org/2000/svg">
  <path d="M 11.87 1.16 C 14.991 1.16 18.11 1.156 21.231 1.166 C 21.526 1.166 21.836 1.215 22.113 1.313 C 22.596 1.485 22.938 1.842 23.095 2.332 C 23.176 2.581 23.207 2.855 23.212 3.119 C 23.228 3.82 23.218 4.522 23.218 5.223 C 23.218 5.655 22.964 5.907 22.53 5.908 C 22.305 5.908 22.08 5.902 21.856 5.912 C 21.798 5.914 21.718 5.953 21.686 6 C 20.544 7.668 19.405 9.338 18.266 11.008 C 17.2 12.569 16.131 14.129 15.073 15.695 C 14.997 15.808 14.967 15.971 14.966 16.111 C 14.959 17.343 14.963 18.574 14.961 19.805 C 14.961 20.444 14.726 20.98 14.191 21.336 C 13.857 21.559 13.482 21.723 13.121 21.906 C 12.618 22.162 12.107 22.404 11.605 22.662 C 10.753 23.101 9.62 22.703 9.221 21.825 C 9.094 21.546 9.045 21.261 9.045 20.959 C 9.047 19.398 9.039 17.838 9.051 16.279 C 9.054 15.973 8.97 15.724 8.799 15.477 C 7.869 14.131 6.948 12.779 6.024 11.428 C 5.171 10.18 4.32 8.93 3.466 7.681 C 3.081 7.117 2.699 6.552 2.308 5.992 C 2.275 5.944 2.197 5.904 2.138 5.901 C 1.904 5.891 1.669 5.899 1.434 5.897 C 1.05 5.893 0.788 5.672 0.785 5.291 C 0.78 4.409 0.76 3.525 0.822 2.647 C 0.868 2.008 1.274 1.549 1.868 1.312 C 2.131 1.207 2.435 1.167 2.721 1.166 C 5.77 1.156 8.82 1.16 11.87 1.16 Z M 11.992 2.361 C 9.909 2.361 7.825 2.361 5.742 2.361 C 4.706 2.361 3.669 2.361 2.631 2.361 C 2.227 2.361 1.987 2.578 1.982 2.966 C 1.973 3.506 1.977 4.046 1.984 4.586 C 1.984 4.623 2.052 4.688 2.094 4.693 C 2.23 4.707 2.369 4.703 2.507 4.697 C 2.77 4.687 2.954 4.805 3.1 5.02 C 3.866 6.154 4.639 7.283 5.409 8.414 C 6.155 9.509 6.899 10.606 7.645 11.701 C 8.351 12.739 9.052 13.78 9.769 14.81 C 10.069 15.24 10.232 15.691 10.22 16.224 C 10.199 17.103 10.215 17.981 10.215 18.86 C 10.215 19.585 10.211 20.309 10.217 21.034 C 10.22 21.521 10.676 21.786 11.107 21.567 C 11.804 21.215 12.501 20.858 13.207 20.526 C 13.58 20.351 13.762 20.109 13.752 19.678 C 13.731 18.693 13.741 17.706 13.75 16.72 C 13.751 16.542 13.696 16.498 13.526 16.502 C 13.043 16.511 12.56 16.508 12.077 16.503 C 11.966 16.502 11.843 16.493 11.744 16.449 C 11.478 16.328 11.341 16.047 11.398 15.791 C 11.463 15.503 11.676 15.323 11.989 15.317 C 12.505 15.308 13.022 15.301 13.538 15.315 C 13.776 15.322 13.911 15.267 14.058 15.042 C 14.831 13.857 15.64 12.695 16.437 11.526 C 17.058 10.616 17.68 9.709 18.301 8.8 C 19.174 7.521 20.048 6.241 20.92 4.962 C 21.033 4.796 21.188 4.703 21.391 4.7 C 21.548 4.698 21.706 4.694 21.864 4.7 C 21.965 4.704 21.999 4.665 21.998 4.565 C 21.995 4.041 22 3.518 21.993 2.994 C 21.992 2.884 21.964 2.766 21.917 2.666 C 21.798 2.413 21.567 2.36 21.311 2.36 C 18.204 2.36 15.098 2.36 11.99 2.36 L 11.992 2.361 Z" fill="#2F2F2F" style="" transform="matrix(1, 0, 0, 1, 0, 4.440892098500626e-16)"/>
  <path d="M 15.535 4.699 C 16.695 4.699 17.857 4.698 19.017 4.7 C 19.449 4.7 19.694 4.984 19.642 5.408 C 19.61 5.67 19.364 5.879 19.061 5.9 C 19.024 5.902 18.987 5.902 18.95 5.902 C 16.663 5.902 14.375 5.902 12.088 5.902 C 11.733 5.902 11.535 5.773 11.417 5.469 C 11.294 5.154 11.546 4.742 11.883 4.708 C 11.963 4.7 12.044 4.699 12.125 4.699 C 13.262 4.699 14.398 4.699 15.535 4.699 Z" fill="#2F2F2F" style="" transform="matrix(1, 0, 0, 1, 0, 4.440892098500626e-16)"/>
  <path d="M 14.328 9.38 C 13.557 9.38 12.785 9.381 12.014 9.38 C 11.657 9.38 11.388 9.12 11.388 8.785 C 11.388 8.454 11.669 8.176 12.022 8.18 C 13.112 8.189 14.201 8.207 15.291 8.22 C 15.747 8.226 16.203 8.228 16.659 8.231 C 17.027 8.235 17.304 8.494 17.302 8.833 C 17.3 9.166 17.013 9.433 16.651 9.434 C 15.877 9.434 15.102 9.434 14.328 9.434 C 14.328 9.417 14.328 9.398 14.328 9.38 Z" fill="#2F2F2F" style="" transform="matrix(1, 0, 0, 1, 0, 4.440892098500626e-16)"/>
  <path d="M 13.16 12.962 C 12.64 12.962 11.368 13.202 11.383 12.352 C 11.388 12.005 11.688 11.792 12.008 11.763 C 12.46 11.724 12.932 11.758 13.386 11.758 C 13.904 11.758 15.079 11.591 14.928 12.472 C 14.878 12.761 14.647 12.931 14.365 12.96 C 13.972 12.999 13.556 12.963 13.16 12.963 L 13.16 12.962 Z" fill="#2F2F2F" style="" transform="matrix(1, 0, 0, 1, 0, 4.440892098500626e-16)"/>
</svg>
