<svg width="24" height="24" viewBox="0 0 24 24" fill="none" xmlns="http://www.w3.org/2000/svg">
<rect width="24" height="24" />
<path d="M12 1C5.92483 1 1 5.92483 1 12C1 18.0752 5.92483 23 12 23C18.0752 23 23 18.0742 23 12C23 5.92584 18.0752 1 12 1ZM7.53814 11.0498C9.01296 8.61266 10.4817 6.17148 11.9525 3.7313C11.9869 3.67368 12.0273 3.6191 12.091 3.52509C12.19 3.68278 12.2699 3.8061 12.3447 3.93246C13.774 6.30289 15.2013 8.67432 16.6347 11.0437C16.7166 11.1782 16.7085 11.2398 16.569 11.3217C15.1164 12.1739 13.6669 13.0321 12.2183 13.8913C12.1203 13.9499 12.0435 13.9398 11.9505 13.8852C10.506 13.0301 9.06148 12.1759 7.61395 11.3258C7.48355 11.2489 7.45221 11.1933 7.53915 11.0508L7.53814 11.0498ZM12.0879 19.6349C10.5312 17.4424 9.00083 15.2873 7.47142 13.1332C7.48153 13.121 7.49265 13.1089 7.50276 13.0968C7.54521 13.116 7.58969 13.1321 7.63012 13.1554C8.86841 13.8852 10.1067 14.6161 11.345 15.3459C11.533 15.4561 11.7251 15.5592 11.906 15.6805C12.0313 15.7644 12.1284 15.7644 12.2628 15.6855C13.5618 14.9112 14.8647 14.145 16.1677 13.3768C16.3315 13.2797 16.4983 13.1867 16.663 13.0917C16.6772 13.1069 16.6913 13.122 16.7055 13.1362C15.1761 15.2883 13.6457 17.4414 12.0879 19.6349Z" fill="#2F2F2F"/>
</svg>
