<svg width="28" height="29" viewBox="0 0 28 29" fill="none" xmlns="http://www.w3.org/2000/svg">
<path d="M27.7661 14.6701C27.7248 15.2514 27.7088 15.8367 27.6328 16.4127C27.5608 16.9647 27.4461 17.5127 27.3128 18.054C27.1914 18.546 27.0528 19.0393 26.8634 19.5086C26.6141 20.13 26.3354 20.7419 26.0235 21.3339C25.5755 22.1859 25.0141 22.9672 24.3821 23.6939C23.4155 24.8059 22.3022 25.7445 21.0382 26.5032C20.4342 26.8658 19.8062 27.1818 19.1556 27.4471C18.5649 27.6885 17.957 27.8845 17.337 28.0418C16.2317 28.3218 15.113 28.4631 13.973 28.4631C13.5184 28.4631 13.1491 28.2924 12.8637 27.9431C12.3077 27.2631 12.5571 26.2138 13.3531 25.8432C13.5491 25.7512 13.7517 25.7205 13.9664 25.7072C14.5637 25.6672 15.165 25.6392 15.757 25.5552C16.4343 25.4592 17.0916 25.2698 17.7356 25.0325C19.5476 24.3659 21.0796 23.3006 22.3369 21.8366C22.9955 21.0699 23.5502 20.234 23.9528 19.3046C24.1782 18.7833 24.3968 18.254 24.5528 17.71C24.9195 16.43 25.0835 15.1221 24.9381 13.7914C24.8795 13.2501 24.8075 12.7061 24.6942 12.1741C24.5488 11.4901 24.3155 10.8302 24.0302 10.1888C23.4248 8.82886 22.5782 7.63955 21.4956 6.61957C20.7316 5.90092 19.8782 5.3076 18.9463 4.82894C18.3956 4.54628 17.8236 4.31296 17.2316 4.13163C16.6783 3.9623 16.1183 3.81296 15.541 3.75696C14.981 3.70229 14.4197 3.67296 13.8597 3.6263C13.3037 3.57963 12.9077 3.30231 12.6811 2.79032C12.3664 2.08366 12.7211 1.27968 13.3904 0.991688C13.5544 0.921023 13.7437 0.886357 13.9237 0.881024C14.6877 0.858357 15.449 0.926353 16.2023 1.05302C16.841 1.15968 17.469 1.31302 18.0876 1.50901C20.6209 2.31166 22.7449 3.72897 24.4715 5.74359C25.1488 6.53424 25.7368 7.38889 26.1941 8.3262C26.4635 8.87686 26.7194 9.43684 26.9314 10.0102C27.1194 10.5155 27.2554 11.0421 27.3848 11.5661C27.6514 12.6488 27.7434 13.6021 27.7661 14.6701Z" fill="#DBDBDB"/>
<path d="M11.8944 16.5715C12.1398 16.3195 12.3731 16.0768 12.6104 15.8381C14.5704 13.8728 16.5303 11.9089 18.4916 9.94493C19.1836 9.25295 20.3716 9.49827 20.7436 10.3969C20.9716 10.9476 20.8156 11.5436 20.4223 11.9369C18.2023 14.1542 15.9837 16.3728 13.7651 18.5914C13.4544 18.9021 13.1478 19.2167 12.8304 19.5221C12.2918 20.0421 11.4558 20.0447 10.9238 19.5181C9.7585 18.3634 8.59719 17.2061 7.44388 16.0395C6.78789 15.3755 6.9519 14.3048 7.76121 13.8502C8.27987 13.5595 8.96918 13.6515 9.39851 14.0795C10.1892 14.8675 10.9731 15.6608 11.7611 16.4501C11.7958 16.4848 11.8331 16.5155 11.8944 16.5715Z" fill="#DBDBDB"/>
<path d="M2.23736 19.9901C1.58004 20.0207 1.01205 19.5754 0.857382 19.0154C0.728052 18.5448 0.573389 18.0808 0.466725 17.6048C0.196064 16.3968 0.11341 15.1702 0.169409 13.9329C0.201408 13.2302 0.281401 12.5342 0.438731 11.8502C0.552062 11.3596 0.680067 10.8716 0.813397 10.3849C0.938728 9.92629 1.19871 9.56763 1.65337 9.38763C1.98803 9.2543 2.32135 9.23565 2.67068 9.39298C2.97867 9.53164 3.24134 9.70496 3.416 9.99429C3.63067 10.349 3.66133 10.7236 3.55333 11.1223C3.41733 11.6249 3.28268 12.1276 3.17201 12.6356C3.00935 13.3876 2.95735 14.1529 2.98002 14.9222C2.99735 15.4928 3.05867 16.0595 3.16133 16.6235C3.26266 17.1728 3.42801 17.7048 3.57734 18.2408C3.76 18.8954 3.47734 19.5448 2.85868 19.8541C2.65202 19.9568 2.43601 19.9954 2.23602 19.9914L2.23736 19.9901Z" fill="#DBDBDB"/>
<path d="M5.1652 22.042C5.55719 22.0553 5.88653 22.1993 6.15719 22.47C6.80251 23.114 7.51316 23.6753 8.30114 24.1353C8.49447 24.2473 8.70381 24.3339 8.88514 24.4619C9.1518 24.6499 9.43578 24.8246 9.60778 25.1179C9.75577 25.3699 9.83578 25.6406 9.81312 25.9339C9.77312 26.4552 9.44378 26.9312 8.93579 27.1259C8.50247 27.2925 8.09048 27.2365 7.68916 27.0246C6.90384 26.6099 6.15051 26.1419 5.46653 25.5739C5.02787 25.2099 4.61054 24.8206 4.19855 24.4286C3.82922 24.0766 3.71323 23.626 3.81989 23.1393C3.92656 22.6513 4.23189 22.306 4.71455 22.142C4.85855 22.0927 5.01587 22.0753 5.1652 22.042Z" fill="#DBDBDB"/>
<path d="M3.78257 5.87425C3.80657 5.49159 3.94125 5.16626 4.20657 4.90226C5.00256 4.10761 5.88254 3.41829 6.85319 2.85031C7.20385 2.64631 7.55983 2.44632 7.92915 2.28232C8.50781 2.02633 9.17314 2.24633 9.5398 2.74232C10.0625 3.44897 9.79978 4.43695 9.00646 4.8196C7.93848 5.33426 6.9905 6.02358 6.14119 6.85156C5.41453 7.55955 4.26657 7.31289 3.89591 6.37024C3.83458 6.21424 3.8199 6.03958 3.78257 5.87425Z" fill="#DBDBDB"/>
</svg>
