<?xml version="1.0" encoding="utf-8"?>
<svg viewBox="0 0 24 24" fill="none" xmlns="http://www.w3.org/2000/svg">
  <path d="M 17.617 6.046 C 16.623 6.046 15.688 6.292 14.864 6.721 C 14.027 6.277 13.074 6.022 12.06 6.022 C 11.047 6.022 10.085 6.278 9.245 6.727 C 8.396 6.262 7.42 5.998 6.384 5.998 C 3.082 5.998 0.405 8.675 0.405 11.976 C 0.405 15.278 3.082 17.955 6.384 17.955 C 7.402 17.955 8.36 17.699 9.199 17.251 C 10.049 17.715 11.024 17.979 12.06 17.979 C 13.054 17.979 13.989 17.733 14.814 17.304 C 15.65 17.749 16.603 18.003 17.617 18.003 C 20.919 18.003 23.596 15.327 23.596 12.025 C 23.596 8.723 20.919 6.046 17.617 6.046 Z M 12.056 7.582 C 12.074 7.551 12.096 7.522 12.13 7.471 C 12.184 7.556 12.227 7.622 12.267 7.69 C 12.436 7.97 12.604 8.25 12.773 8.529 C 13.374 9.526 13.974 10.522 14.576 11.518 C 14.62 11.591 14.616 11.624 14.541 11.668 C 13.782 12.113 13.024 12.562 12.267 13.011 C 12.326 12.675 12.362 12.331 12.362 11.977 C 12.362 11.271 12.234 10.597 12.009 9.969 C 11.849 9.519 11.64 9.094 11.382 8.701 C 11.606 8.327 11.831 7.955 12.056 7.583 L 12.056 7.582 Z M 5.174 16.227 C 5.139 16.288 5.068 16.313 4.997 16.289 C 3.773 15.883 2.864 15.112 2.291 13.952 C 2.083 13.527 1.949 13.079 1.888 12.61 C 1.741 11.478 1.984 10.435 2.619 9.488 C 3.07 8.814 3.669 8.308 4.401 7.96 C 4.576 7.876 4.757 7.806 4.942 7.745 C 4.969 7.736 4.995 7.72 5.022 7.715 C 5.117 7.699 5.206 7.769 5.215 7.87 C 5.221 7.944 5.216 8.019 5.216 8.094 L 5.217 8.094 C 5.217 8.159 5.219 8.223 5.217 8.288 C 5.212 8.404 5.15 8.479 5.044 8.518 C 4.806 8.608 4.579 8.718 4.364 8.854 C 3.671 9.293 3.174 9.893 2.878 10.66 C 2.768 10.944 2.688 11.236 2.649 11.539 C 2.615 11.803 2.609 12.067 2.632 12.332 C 2.679 12.874 2.836 13.383 3.108 13.854 C 3.555 14.63 4.199 15.177 5.037 15.494 C 5.136 15.532 5.219 15.649 5.219 15.755 C 5.219 15.859 5.217 15.963 5.221 16.066 C 5.223 16.126 5.202 16.177 5.173 16.226 L 5.174 16.227 Z M 6.74 14.781 C 6.74 14.846 6.715 14.901 6.673 14.949 C 6.637 14.991 6.589 15.009 6.535 15.009 C 6.417 15.009 6.3 15.012 6.182 15.009 C 6.054 15.006 5.967 14.914 5.966 14.786 C 5.966 14.61 5.966 14.434 5.966 14.257 C 5.966 14.212 5.966 14.212 5.921 14.205 C 5.669 14.162 5.429 14.086 5.215 13.943 C 4.928 13.752 4.755 13.483 4.674 13.151 C 4.665 13.114 4.657 13.076 4.651 13.037 C 4.633 12.93 4.685 12.845 4.78 12.823 C 4.799 12.819 4.819 12.819 4.839 12.818 C 4.969 12.818 5.098 12.818 5.228 12.818 C 5.33 12.818 5.395 12.871 5.42 12.971 C 5.432 13.018 5.443 13.066 5.459 13.112 C 5.531 13.325 5.673 13.472 5.887 13.543 C 6.026 13.589 6.167 13.613 6.308 13.615 C 6.429 13.617 6.55 13.605 6.672 13.571 C 6.853 13.521 7.005 13.423 7.102 13.256 C 7.203 13.083 7.212 12.899 7.15 12.711 C 7.115 12.603 7.036 12.529 6.939 12.473 C 6.81 12.398 6.669 12.353 6.525 12.325 C 6.382 12.296 6.238 12.273 6.094 12.249 C 6.053 12.242 6.013 12.235 5.972 12.227 C 5.751 12.188 5.533 12.134 5.33 12.036 C 5.13 11.94 4.964 11.808 4.855 11.61 C 4.781 11.473 4.745 11.324 4.73 11.17 C 4.712 10.996 4.72 10.824 4.773 10.656 C 4.863 10.373 5.042 10.16 5.292 10.004 C 5.475 9.89 5.676 9.822 5.889 9.788 C 5.941 9.78 5.942 9.781 5.942 9.727 C 5.942 9.564 5.942 9.4 5.942 9.237 C 5.942 9.175 5.964 9.12 6.004 9.073 C 6.039 9.029 6.086 9.008 6.142 9.008 C 6.262 9.007 6.381 9.005 6.501 9.008 C 6.625 9.01 6.714 9.103 6.715 9.226 C 6.715 9.262 6.715 9.299 6.715 9.335 C 6.715 9.386 6.715 9.438 6.715 9.489 C 6.715 9.582 6.715 9.675 6.715 9.767 C 6.715 9.794 6.722 9.805 6.751 9.809 C 7.288 9.876 7.707 10.254 7.825 10.775 C 7.829 10.792 7.833 10.809 7.835 10.826 C 7.845 10.941 7.77 11.025 7.653 11.025 C 7.526 11.026 7.398 11.025 7.271 11.025 C 7.182 11.025 7.118 10.978 7.086 10.896 C 7.061 10.834 7.036 10.771 7.003 10.714 C 6.914 10.558 6.779 10.461 6.608 10.418 C 6.509 10.394 6.409 10.384 6.31 10.38 C 6.189 10.377 6.067 10.387 5.945 10.417 C 5.864 10.437 5.789 10.471 5.722 10.521 C 5.598 10.613 5.533 10.738 5.523 10.891 C 5.519 10.958 5.522 11.027 5.531 11.093 C 5.556 11.266 5.664 11.375 5.816 11.447 C 5.909 11.491 6.006 11.518 6.105 11.541 C 6.15 11.551 6.194 11.562 6.239 11.57 C 6.442 11.604 6.645 11.63 6.847 11.667 C 7.042 11.703 7.232 11.761 7.41 11.851 C 7.731 12.013 7.915 12.272 7.966 12.626 C 7.997 12.843 7.995 13.059 7.929 13.271 C 7.828 13.59 7.625 13.826 7.341 13.997 C 7.169 14.101 6.981 14.167 6.784 14.205 C 6.755 14.21 6.74 14.228 6.74 14.258 C 6.74 14.412 6.74 14.566 6.74 14.72 C 6.74 14.741 6.74 14.761 6.74 14.782 L 6.74 14.781 Z M 7.856 16.249 C 7.826 16.26 7.798 16.275 7.767 16.285 C 7.742 16.294 7.716 16.305 7.692 16.316 C 7.621 16.348 7.527 16.315 7.489 16.239 C 7.474 16.209 7.463 16.174 7.463 16.142 C 7.461 16.036 7.462 15.929 7.464 15.823 C 7.464 15.797 7.464 15.771 7.464 15.744 C 7.468 15.635 7.529 15.563 7.63 15.525 C 7.966 15.398 8.279 15.23 8.566 15.015 C 9.016 14.679 9.372 14.264 9.63 13.765 C 9.753 13.527 9.841 13.277 9.914 13.022 C 9.935 12.947 9.952 12.871 9.968 12.795 C 9.984 12.722 10.009 12.652 10.02 12.578 C 10.057 12.341 10.064 12.104 10.053 11.865 C 10.05 11.813 10.053 11.761 10.048 11.708 C 10.029 11.496 9.989 11.292 9.938 11.093 C 9.81 10.595 9.586 10.136 9.257 9.718 C 8.834 9.181 8.299 8.792 7.658 8.553 C 7.567 8.519 7.459 8.391 7.461 8.277 C 7.461 8.245 7.461 8.214 7.461 8.182 C 7.461 8.095 7.461 8.009 7.461 7.922 C 7.461 7.863 7.489 7.814 7.521 7.769 C 7.557 7.719 7.623 7.705 7.686 7.726 C 7.734 7.742 7.778 7.763 7.825 7.781 C 8.452 8.008 9.012 8.346 9.49 8.819 C 9.908 9.231 10.226 9.706 10.455 10.236 C 10.512 10.368 10.568 10.501 10.613 10.64 C 10.724 10.98 10.794 11.328 10.821 11.683 C 10.831 11.803 10.833 11.924 10.838 12.038 C 10.837 12.133 10.829 12.226 10.822 12.32 C 10.8 12.628 10.753 12.926 10.676 13.213 C 10.622 13.416 10.551 13.613 10.469 13.805 C 10.281 14.243 10.023 14.653 9.686 15.033 C 9.182 15.598 8.566 15.997 7.856 16.249 Z M 12.129 16.143 C 11.896 15.815 11.666 15.491 11.435 15.166 C 11.659 14.812 11.845 14.433 11.992 14.034 C 11.996 14.022 12 14.01 12.005 13.999 C 12.013 14.004 12.023 14.009 12.031 14.015 C 12.099 14.06 12.151 14.06 12.224 14.017 C 12.923 13.601 13.624 13.188 14.325 12.775 C 14.414 12.722 14.503 12.672 14.592 12.621 C 14.6 12.629 14.607 12.637 14.615 12.645 C 13.97 13.553 13.323 14.464 12.671 15.382 C 12.49 15.636 12.312 15.888 12.13 16.143 L 12.129 16.143 Z M 20.953 13.32 C 20.92 13.436 20.856 13.521 20.767 13.566 C 20.668 13.615 20.553 13.643 20.45 13.643 C 20.387 13.643 20.328 13.633 20.275 13.613 C 19.904 13.473 19.537 13.324 19.169 13.174 L 18.824 13.034 L 18.759 13.008 L 18.527 12.914 L 18.609 13.108 C 18.824 13.614 19.039 14.121 19.249 14.63 C 19.314 14.789 19.302 15.001 19.219 15.145 C 19.135 15.289 18.957 15.341 18.817 15.341 C 18.755 15.341 18.698 15.33 18.648 15.309 C 18.526 15.26 18.429 15.149 18.351 14.969 C 18.165 14.538 17.982 14.106 17.798 13.673 C 17.952 13.141 18.04 12.581 18.04 12 C 18.04 11.413 17.952 10.848 17.794 10.312 L 18.01 9.778 L 18.104 9.546 C 18.172 9.38 18.239 9.215 18.305 9.048 C 18.427 8.74 18.625 8.675 18.768 8.675 C 18.835 8.675 18.904 8.69 18.975 8.719 C 19.107 8.774 19.392 8.95 19.209 9.404 C 18.979 9.97 18.751 10.536 18.523 11.102 L 18.515 11.122 L 18.684 11.05 C 19.198 10.832 19.712 10.613 20.229 10.402 C 20.289 10.378 20.356 10.366 20.428 10.366 C 20.529 10.366 20.643 10.391 20.739 10.435 C 20.796 10.462 20.873 10.519 20.915 10.641 C 20.949 10.74 20.965 10.9 20.901 11.024 C 20.843 11.137 20.731 11.229 20.569 11.299 C 20.04 11.527 19.51 11.753 18.98 11.978 L 18.893 12.015 L 19.057 12.082 C 19.568 12.288 20.078 12.495 20.587 12.705 C 20.729 12.764 20.852 12.864 20.924 12.98 C 21 13.103 20.976 13.245 20.955 13.319 L 20.953 13.32 Z" fill="#DBDBDB" style="" transform="matrix(1, 0, 0, 1, 0, -1.7763568394002505e-15)"/>
</svg>
