<?xml version="1.0" encoding="utf-8"?>
<svg viewBox="0 0 24 24" fill="none" xmlns="http://www.w3.org/2000/svg">
  <path d="M 14.361 8.672 C 14.341 8.814 14.325 8.952 14.302 9.088 C 14.264 9.315 14.199 9.533 14.097 9.739 C 13.877 10.184 13.527 10.461 13.037 10.553 C 12.504 10.653 12.005 10.56 11.541 10.282 C 11.371 10.181 11.206 10.07 11.037 9.966 C 10.891 9.877 10.74 9.8 10.57 9.768 C 10.381 9.732 10.199 9.743 10.036 9.856 C 9.913 9.941 9.833 10.061 9.782 10.197 C 9.736 10.319 9.705 10.446 9.665 10.576 L 8.526 10.576 C 8.528 10.54 8.53 10.504 8.533 10.468 C 8.556 10.251 8.59 10.036 8.654 9.826 C 8.728 9.583 8.835 9.357 9 9.162 C 9.196 8.929 9.445 8.78 9.739 8.709 C 10.277 8.58 10.79 8.646 11.273 8.918 C 11.46 9.024 11.64 9.145 11.824 9.257 C 11.98 9.352 12.14 9.436 12.321 9.472 C 12.517 9.51 12.704 9.495 12.869 9.367 C 12.99 9.273 13.066 9.145 13.116 9.002 C 13.153 8.895 13.18 8.784 13.212 8.672 L 14.361 8.672 Z" fill="#2F2F2F" style="" transform="matrix(0.9999999999999999, 0, 0, 0.9999999999999999, -4.440892098500626e-16, -4.440892098500626e-16)"/>
  <path d="M 23.659 10.756 C 23.566 10.254 23.333 9.827 22.972 9.475 C 22.43 8.943 21.775 8.709 21.016 8.766 C 20.576 8.799 20.176 8.946 19.817 9.193 C 19.421 9.465 19.129 9.826 18.941 10.269 C 18.914 10.331 18.885 10.353 18.812 10.338 C 18.503 10.272 18.193 10.211 17.884 10.148 C 17.897 9.975 17.91 9.803 17.91 9.627 C 17.91 5.958 14.936 2.983 11.266 2.983 C 9.04 2.983 7.074 4.082 5.869 5.762 C 5.643 5.632 5.419 5.5 5.192 5.372 C 5.109 5.326 5.106 5.278 5.124 5.2 C 5.165 5.021 5.213 4.843 5.238 4.661 C 5.302 4.185 5.212 3.729 4.993 3.307 C 4.588 2.528 3.947 2.07 3.071 1.954 C 2.456 1.873 1.889 2.016 1.381 2.363 C 0.768 2.782 0.414 3.367 0.314 4.107 C 0.245 4.613 0.332 5.091 0.564 5.54 C 0.913 6.215 1.461 6.643 2.199 6.827 C 2.627 6.933 3.053 6.919 3.472 6.797 C 3.932 6.663 4.324 6.412 4.642 6.05 C 4.687 5.999 4.721 5.988 4.786 6.025 C 5.008 6.154 5.232 6.281 5.456 6.409 C 4.927 7.362 4.623 8.459 4.623 9.626 C 4.623 13.151 7.37 16.025 10.837 16.248 C 10.831 16.5 10.822 16.751 10.818 17.001 C 10.817 17.096 10.776 17.122 10.7 17.143 C 10.523 17.191 10.343 17.235 10.172 17.299 C 9.722 17.47 9.364 17.767 9.098 18.161 C 8.606 18.888 8.51 19.67 8.826 20.495 C 9.048 21.076 9.443 21.505 9.992 21.786 C 10.653 22.125 11.335 22.157 12.034 21.892 C 12.511 21.711 12.889 21.406 13.173 20.988 C 13.599 20.361 13.714 19.674 13.524 18.937 C 13.413 18.51 13.198 18.142 12.89 17.832 C 12.553 17.491 12.145 17.267 11.676 17.161 C 11.61 17.146 11.583 17.121 11.585 17.046 C 11.593 16.781 11.598 16.517 11.604 16.251 C 14.682 16.097 17.208 13.853 17.786 10.908 C 18.068 10.967 18.349 11.027 18.631 11.082 C 18.724 11.101 18.743 11.145 18.749 11.224 C 18.766 11.406 18.777 11.591 18.81 11.772 C 18.899 12.244 19.127 12.649 19.468 12.981 C 20.096 13.594 20.849 13.827 21.717 13.662 C 22.327 13.547 22.82 13.234 23.194 12.745 C 23.644 12.154 23.797 11.487 23.66 10.754 L 23.659 10.756 Z M 2.776 6.121 C 1.814 6.121 1.065 5.369 1.067 4.405 C 1.068 3.452 1.83 2.708 2.78 2.701 C 3.719 2.703 4.495 3.475 4.486 4.414 C 4.477 5.365 3.739 6.12 2.776 6.121 Z M 12.626 18.767 C 13.085 19.612 12.782 20.629 11.934 21.088 C 11.095 21.54 10.079 21.227 9.619 20.394 C 9.173 19.569 9.481 18.518 10.311 18.078 C 11.151 17.632 12.167 17.921 12.626 18.767 Z M 11.265 15.166 C 8.211 15.166 5.727 12.681 5.727 9.627 C 5.727 6.573 8.212 4.087 11.265 4.087 C 14.319 4.087 16.804 6.573 16.804 9.627 C 16.804 12.681 14.319 15.166 11.265 15.166 Z M 21.756 12.865 C 20.865 13.158 19.885 12.667 19.599 11.774 C 19.309 10.867 19.774 9.919 20.688 9.617 C 21.601 9.315 22.548 9.794 22.849 10.71 C 23.147 11.616 22.657 12.561 21.756 12.865 Z" fill="#2F2F2F" style="" transform="matrix(0.9999999999999999, 0, 0, 0.9999999999999999, -4.440892098500626e-16, -4.440892098500626e-16)"/>
</svg>
