<svg width="28" height="27" viewBox="0 0 28 27" fill="none" xmlns="http://www.w3.org/2000/svg">
<path d="M13.4055 0.000639707C17.1771 0.000639707 20.9474 -0.00335846 24.719 0.00863605C25.0762 0.00863605 25.4507 0.0672759 25.7852 0.185888C26.3689 0.393793 26.7821 0.825595 26.9726 1.41732C27.0699 1.71852 27.1072 2.05037 27.1139 2.36889C27.1326 3.2165 27.1206 4.06411 27.1206 4.91172C27.1206 5.43415 26.814 5.73801 26.289 5.73935C26.0171 5.73935 25.7452 5.73268 25.4747 5.74468C25.404 5.74734 25.3081 5.79399 25.2694 5.85129C23.8887 7.86637 22.512 9.88545 21.1353 11.9032C19.8479 13.7903 18.5552 15.6748 17.2771 17.5686C17.1851 17.7045 17.1491 17.9018 17.1478 18.071C17.1385 19.5597 17.1438 21.047 17.1411 22.5357C17.1411 23.3073 16.8573 23.955 16.2109 24.3855C15.8071 24.6547 15.354 24.8533 14.9182 25.0745C14.3091 25.3837 13.6921 25.6769 13.0857 25.9887C12.0555 26.5192 10.6868 26.0381 10.2043 24.9772C10.0511 24.64 9.99108 24.2949 9.99108 23.9297C9.99375 22.0439 9.98442 20.1581 9.99908 18.2736C10.0017 17.9044 9.90046 17.6032 9.69389 17.3047C8.5704 15.6775 7.45758 14.0435 6.34076 12.411C5.30923 10.9023 4.28037 9.39234 3.24884 7.88236C2.78372 7.20134 2.32126 6.51766 1.84948 5.84063C1.8095 5.78333 1.71487 5.73535 1.64424 5.73135C1.36037 5.71936 1.0765 5.72868 0.792629 5.72602C0.328842 5.72202 0.0116537 5.45414 0.00898823 4.99435C0.00232462 3.92817 -0.0216644 2.85933 0.0529681 1.79848C0.108942 1.0255 0.599385 0.471091 1.31772 0.184555C1.63491 0.0579468 2.00274 0.00996877 2.34792 0.00863605C6.0329 -0.00335846 9.71921 0.000639707 13.4055 0.000639707ZM13.5535 1.45331C11.0359 1.45331 8.51709 1.45331 5.99958 1.45331C4.74682 1.45331 3.49406 1.45331 2.23997 1.45331C1.75086 1.45331 1.46166 1.71452 1.45499 2.18364C1.44433 2.83667 1.44966 3.48971 1.45766 4.14141C1.45766 4.18672 1.54029 4.26535 1.59093 4.27068C1.75486 4.28801 1.92278 4.28268 2.08937 4.27602C2.40789 4.26402 2.63045 4.40662 2.80637 4.6665C3.73262 6.03654 4.66686 7.40125 5.5971 8.76863C6.49802 10.092 7.3976 11.4181 8.29986 12.7415C9.1528 13.9956 10.0004 15.2537 10.8667 16.4984C11.2292 17.0182 11.4264 17.5633 11.4118 18.207C11.3864 19.2692 11.4051 20.3313 11.4051 21.3935C11.4051 22.2691 11.4011 23.1447 11.4078 24.0203C11.4118 24.6094 11.9622 24.9292 12.4833 24.6653C13.3256 24.2389 14.1678 23.8084 15.0221 23.4073C15.4726 23.1954 15.6925 22.9022 15.6805 22.3824C15.6552 21.1909 15.6672 19.9981 15.6778 18.8067C15.6791 18.5921 15.6125 18.5388 15.4073 18.5428C14.8235 18.5548 14.2398 18.5508 13.6561 18.5441C13.5215 18.5428 13.3735 18.5322 13.2536 18.4788C12.9324 18.3336 12.7658 17.9937 12.8351 17.6845C12.9137 17.3354 13.171 17.1181 13.5495 17.1115C14.1732 17.1008 14.7982 17.0915 15.4219 17.1088C15.7098 17.1168 15.8724 17.0502 16.0496 16.7783C16.9839 15.3469 17.9621 13.9423 18.9257 12.5296C19.676 11.4301 20.4276 10.3332 21.178 9.23508C22.2335 7.68912 23.289 6.14183 24.3432 4.59587C24.4804 4.39596 24.667 4.28268 24.9123 4.28001C25.1028 4.27735 25.2934 4.27202 25.484 4.28001C25.6066 4.28401 25.6479 4.23737 25.6466 4.11609C25.6426 3.48305 25.6492 2.85133 25.6399 2.21829C25.6386 2.08502 25.6053 1.94242 25.548 1.82114C25.404 1.51595 25.1255 1.45198 24.8163 1.45198C21.0607 1.45198 17.3064 1.45198 13.5508 1.45198L13.5535 1.45331Z" fill="#2F2F2F"/>
<path d="M17.8356 4.27865C19.2376 4.27865 20.6409 4.27732 22.043 4.27999C22.5654 4.27999 22.8613 4.6225 22.7986 5.13559C22.76 5.45145 22.4628 5.70467 22.0963 5.72999C22.0523 5.73265 22.007 5.73265 21.963 5.73265C19.1989 5.73265 16.4335 5.73265 13.6695 5.73265C13.2403 5.73265 13.0004 5.57673 12.8578 5.20889C12.7099 4.82774 13.0138 4.33063 13.4216 4.28932C13.5175 4.27999 13.6162 4.27865 13.7135 4.27865C15.0875 4.27865 16.4615 4.27865 17.8356 4.27865Z" fill="#2F2F2F"/>
<path d="M16.3763 9.93623C15.4447 9.93623 14.5118 9.93757 13.5802 9.93623C13.1484 9.93623 12.8232 9.62171 12.8232 9.21656C12.8232 8.81675 13.1631 8.4809 13.5896 8.4849C14.9063 8.49689 16.223 8.51822 17.5398 8.53421C18.0915 8.54087 18.6419 8.54354 19.1937 8.54754C19.6388 8.55153 19.9733 8.86472 19.9706 9.2752C19.968 9.67769 19.6215 10.0002 19.1843 10.0015C18.2488 10.0015 17.3119 10.0015 16.3763 10.0015C16.3763 9.98021 16.3763 9.95756 16.3763 9.93623Z" fill="#2F2F2F"/>
<path d="M14.9649 14.2648C14.3359 14.2648 12.7992 14.5554 12.8166 13.5278C12.8232 13.108 13.1857 12.8508 13.5722 12.8162C14.1186 12.7682 14.689 12.8095 15.2381 12.8095C15.8645 12.8095 17.2838 12.6083 17.1013 13.6731C17.0413 14.0223 16.7614 14.2275 16.4216 14.2622C15.9458 14.3102 15.4433 14.2662 14.9649 14.2662V14.2648Z" fill="#2F2F2F"/>
</svg>
