<svg width="24" height="24" viewBox="0 0 24 24" fill="none" xmlns="http://www.w3.org/2000/svg">
<rect width="24" height="24" />
<path d="M11.7598 0.966822C14.787 0.966822 17.8132 0.963613 20.8405 0.97324C21.1271 0.97324 21.4277 1.02031 21.6962 1.11551C22.1647 1.28238 22.4963 1.62896 22.6493 2.10391C22.7274 2.34566 22.7573 2.61201 22.7627 2.86767C22.7777 3.548 22.768 4.22833 22.768 4.90865C22.768 5.32797 22.522 5.57186 22.1006 5.57293C21.8823 5.57293 21.6641 5.56759 21.447 5.57721C21.3903 5.57935 21.3133 5.61679 21.2822 5.66279C20.174 7.28017 19.069 8.90076 17.964 10.5203C16.9307 12.035 15.8931 13.5475 14.8673 15.0676C14.7935 15.1767 14.7646 15.335 14.7635 15.4708C14.756 16.6657 14.7603 17.8595 14.7582 19.0543C14.7582 19.6737 14.5303 20.1935 14.0115 20.5391C13.6874 20.7551 13.3237 20.9145 12.9739 21.0921C12.4851 21.3403 11.9898 21.5756 11.5031 21.8259C10.6762 22.2516 9.57762 21.8655 9.19039 21.014C9.06738 20.7434 9.01924 20.4663 9.01924 20.1732C9.02138 18.6596 9.01389 17.146 9.02566 15.6334C9.0278 15.3371 8.9465 15.0954 8.7807 14.8558C7.87894 13.5497 6.98575 12.2382 6.08934 10.9278C5.2614 9.71694 4.43559 8.50497 3.60765 7.29301C3.23432 6.74639 2.86314 6.19764 2.48446 5.65423C2.45237 5.60823 2.37643 5.56973 2.31973 5.56652C2.09189 5.55689 1.86404 5.56438 1.6362 5.56224C1.26394 5.55903 1.00935 5.34402 1.00721 4.97497C1.00187 4.11922 0.982611 3.26132 1.04251 2.40984C1.08744 1.78942 1.48109 1.34442 2.05766 1.11444C2.31224 1.01282 2.60748 0.97431 2.88453 0.97324C5.84224 0.963613 8.80102 0.966822 11.7598 0.966822ZM11.8785 2.13279C9.85788 2.13279 7.83615 2.13279 5.8155 2.13279C4.80998 2.13279 3.80447 2.13279 2.79789 2.13279C2.40531 2.13279 2.17318 2.34245 2.16783 2.71898C2.15928 3.24314 2.16356 3.76729 2.16997 4.29037C2.16997 4.32674 2.2363 4.38985 2.27694 4.39413C2.40852 4.40803 2.5433 4.40376 2.67701 4.39841C2.93267 4.38878 3.11131 4.50324 3.25251 4.71183C3.99595 5.81148 4.7458 6.90685 5.49245 8.00435C6.21557 9.06656 6.93761 10.1309 7.66179 11.1931C8.3464 12.1997 9.02673 13.2095 9.72203 14.2086C10.013 14.6258 10.1713 15.0633 10.1595 15.5799C10.1392 16.4325 10.1542 17.285 10.1542 18.1376C10.1542 18.8404 10.151 19.5432 10.1563 20.246C10.1595 20.7188 10.6013 20.9755 11.0196 20.7637C11.6956 20.4214 12.3717 20.0759 13.0573 19.7539C13.4189 19.5838 13.5954 19.3485 13.5858 18.9313C13.5654 17.975 13.5751 17.0176 13.5836 16.0613C13.5847 15.8891 13.5312 15.8463 13.3665 15.8495C12.898 15.8591 12.4294 15.8559 11.9609 15.8506C11.8529 15.8495 11.7341 15.8409 11.6379 15.7982C11.3801 15.6816 11.2463 15.4088 11.302 15.1606C11.3651 14.8804 11.5715 14.706 11.8753 14.7007C12.3759 14.6921 12.8776 14.6846 13.3783 14.6985C13.6093 14.7049 13.7398 14.6514 13.8821 14.4332C14.6319 13.2844 15.4171 12.1569 16.1905 11.023C16.7927 10.1405 17.396 9.26018 17.9983 8.37875C18.8455 7.1379 19.6927 5.89598 20.5388 4.65513C20.649 4.49468 20.7987 4.40376 20.9956 4.40162C21.1485 4.39948 21.3015 4.3952 21.4545 4.40162C21.5529 4.40483 21.586 4.36739 21.585 4.27004C21.5818 3.76194 21.5871 3.2549 21.5796 2.7468C21.5785 2.63983 21.5518 2.52537 21.5058 2.42803C21.3903 2.18307 21.1667 2.13172 20.9185 2.13172C17.9041 2.13172 14.8908 2.13172 11.8764 2.13172L11.8785 2.13279Z" fill="#2F2F2F"/>
<path d="M15.3155 4.40066C16.4408 4.40066 17.5672 4.39959 18.6925 4.40173C19.1119 4.40173 19.3493 4.67664 19.2991 5.08847C19.268 5.34199 19.0295 5.54523 18.7353 5.56556C18.7 5.5677 18.6637 5.5677 18.6284 5.5677C16.4098 5.5677 14.1902 5.5677 11.9716 5.5677C11.6272 5.5677 11.4346 5.44254 11.3202 5.14731C11.2015 4.84137 11.4453 4.44238 11.7727 4.40922C11.8497 4.40173 11.9288 4.40066 12.0069 4.40066C13.1098 4.40066 14.2126 4.40066 15.3155 4.40066Z" fill="#2F2F2F"/>
<path d="M14.1442 8.94129C13.3965 8.94129 12.6477 8.94236 11.8999 8.94129C11.5534 8.94129 11.2924 8.68885 11.2924 8.36366C11.2924 8.04275 11.5651 7.77319 11.9074 7.7764C12.9643 7.78602 14.0212 7.80314 15.078 7.81597C15.5209 7.82132 15.9627 7.82346 16.4055 7.82667C16.7628 7.82988 17.0313 8.08126 17.0291 8.41073C17.027 8.73377 16.7489 8.99264 16.398 8.99371C15.6471 8.99371 14.8951 8.99371 14.1442 8.99371C14.1442 8.97659 14.1442 8.95841 14.1442 8.94129Z" fill="#2F2F2F"/>
<path d="M13.0113 12.4158C12.5064 12.4158 11.2731 12.6489 11.287 11.8242C11.2923 11.4873 11.5833 11.2808 11.8935 11.253C12.3321 11.2145 12.7899 11.2476 13.2306 11.2476C13.7334 11.2476 14.8726 11.0861 14.7261 11.9408C14.6779 12.2211 14.4533 12.3858 14.1805 12.4136C13.7986 12.4521 13.3954 12.4168 13.0113 12.4168V12.4158Z" fill="#2F2F2F"/>
</svg>
