<svg width="38" height="37" viewBox="0 0 38 37" fill="none" xmlns="http://www.w3.org/2000/svg">
<path d="M24.7662 24.1487C23.1435 24.1487 21.5209 24.1487 19.8969 24.1487C19.712 24.1487 19.6196 24.2434 19.6196 24.4327C19.6196 25.4593 19.6196 26.4873 19.6196 27.514C19.6196 27.7739 19.6343 27.7713 19.8876 27.8286C20.7996 28.0339 21.5876 28.4699 22.2155 29.1646C23.1422 30.1872 23.5542 31.3885 23.3728 32.7658C23.1449 34.4871 22.2022 35.6964 20.6222 36.3751C18.5196 37.2764 15.9877 36.3311 14.949 34.3085C14.4677 33.3725 14.301 32.3859 14.513 31.3605C14.8104 29.9286 15.617 28.8553 16.933 28.2019C17.2863 28.0259 17.6823 27.9353 18.0636 27.8193C18.1876 27.7806 18.2303 27.714 18.229 27.5966C18.229 27.3833 18.229 27.1713 18.229 26.958C18.229 26.1126 18.229 25.2687 18.229 24.4233C18.229 24.242 18.1387 24.1514 17.9583 24.1514C14.785 24.1514 11.6118 24.154 8.43983 24.1487C7.43318 24.1474 6.6612 23.7047 6.17321 22.8234C5.69856 21.9661 5.75455 21.1034 6.23588 20.2581C7.16919 18.6221 8.10117 16.9848 9.03582 15.3489C9.67847 14.2236 10.3225 13.0983 10.9678 11.9743C11.0464 11.8383 11.0384 11.757 10.8864 11.6716C9.96913 11.153 9.05448 10.6276 8.14384 10.097C8.02784 10.029 7.96384 10.0503 7.88384 10.1423C7.30919 10.797 6.59987 11.253 5.76656 11.4956C5.00791 11.7169 4.23725 11.7423 3.4626 11.549C2.12529 11.2156 1.13198 10.4396 0.502659 9.21967C0.0840011 8.40768 -0.0746573 7.54237 0.0493401 6.62639C0.23067 5.28642 0.871986 4.22911 1.9813 3.46913C2.90128 2.83981 3.92659 2.58248 5.04123 2.72914C6.62653 2.9398 7.78784 3.76778 8.51982 5.17709C8.91715 5.94107 9.07848 6.76772 8.96248 7.62903C8.91848 7.95836 8.83182 8.28102 8.75716 8.60502C8.72516 8.74368 8.73049 8.83168 8.87982 8.91568C9.78247 9.425 10.6771 9.94632 11.5718 10.4676C11.7091 10.5476 11.7851 10.537 11.8691 10.3876C13.0771 8.26635 14.293 6.1504 15.505 4.03178C15.9197 3.30646 16.3303 2.57848 16.749 1.8545C17.2516 0.983847 18.2823 0.505191 19.2716 0.650521C20.2129 0.787851 20.8236 1.33584 21.2756 2.13849C22.2315 3.83845 23.2089 5.52641 24.1768 7.21971C24.7808 8.27702 25.3861 9.333 25.9861 10.393C26.0608 10.525 26.1301 10.5503 26.2581 10.4756C27.1808 9.94232 28.1048 9.41033 29.0301 8.88101C29.1687 8.80235 29.1074 8.69569 29.0847 8.59435C29.0221 8.31036 28.9554 8.02903 28.8927 7.74504C28.7834 7.25305 28.8367 6.75973 28.9367 6.2784C29.1407 5.29309 29.6167 4.45043 30.386 3.79578C31.398 2.93313 32.57 2.55981 33.8966 2.73181C35.4766 2.93714 36.6339 3.76646 37.3632 5.16909C37.7805 5.97041 37.9325 6.83706 37.8019 7.7477C37.5872 9.23567 36.8339 10.3583 35.5339 11.0983C34.5326 11.6676 33.4566 11.8036 32.3313 11.5463C31.402 11.333 30.6274 10.8623 29.9954 10.157C29.902 10.053 29.8287 10.0436 29.7154 10.109C28.7874 10.645 27.8581 11.1796 26.9261 11.7103C26.8141 11.7743 26.8274 11.8503 26.8781 11.9369C27.2594 12.6049 27.6421 13.2729 28.0234 13.9409C28.8554 15.3982 29.6861 16.8555 30.5167 18.3128C30.91 19.0021 31.2994 19.6941 31.6953 20.3808C32.3993 21.6034 31.8793 23.2727 30.6074 23.8794C30.222 24.0634 29.8234 24.1554 29.3954 24.154C27.8514 24.1487 26.3075 24.1514 24.7635 24.1514L24.7662 24.1487ZM18.9209 22.7447C22.3675 22.7447 25.8141 22.7447 29.2607 22.7447C29.3941 22.7447 29.5287 22.7461 29.6607 22.7314C30.3194 22.6581 30.8087 21.8647 30.5514 21.2567C30.418 20.9408 30.234 20.6448 30.0634 20.3461C28.8261 18.1728 27.5888 15.9995 26.3475 13.8276C25.3581 12.0983 24.3622 10.3716 23.3728 8.64235C22.2275 6.63972 21.0876 4.6331 19.9409 2.63048C19.7196 2.24382 19.3783 2.01983 18.9316 2.01849C18.4769 2.01716 18.133 2.24249 17.9063 2.63581C16.993 4.22778 16.0823 5.82108 15.1717 7.41438C13.9157 9.61166 12.6584 11.8103 11.4024 14.0076C10.0625 16.3529 8.72116 18.6981 7.38385 21.0461C7.16919 21.4221 7.17452 21.8127 7.39985 22.1874C7.64118 22.5901 8.00651 22.7487 8.4705 22.7474C11.9531 22.7434 15.437 22.7447 18.9209 22.7447ZM4.51858 4.07845C2.79728 4.09045 1.41998 5.43708 1.41598 7.16238C1.41331 8.90767 2.76795 10.269 4.50925 10.269C6.25188 10.269 7.58918 8.90101 7.60518 7.17838C7.62118 5.47841 6.21721 4.07978 4.51858 4.07845ZM33.3446 4.07845C31.642 4.07845 30.238 5.46641 30.2447 7.16504C30.25 8.89167 31.5953 10.273 33.3433 10.269C35.0806 10.265 36.4299 8.91701 36.4326 7.17571C36.4366 5.43575 35.0579 4.09845 33.3446 4.07845ZM18.9249 29.1286C17.241 29.0992 15.8303 30.4952 15.8303 32.2085C15.8303 33.9272 17.2196 35.2978 18.9196 35.3018C20.6329 35.3058 22.0169 33.9272 22.0235 32.2245C22.0302 30.5019 20.6169 29.0992 18.9249 29.1286Z" fill="#DBDBDB"/>
<path d="M23.9289 13.6863C23.8929 13.9423 23.8636 14.193 23.8222 14.4396C23.7542 14.849 23.6356 15.2436 23.4516 15.617C23.0529 16.4223 22.4196 16.9236 21.5316 17.0902C20.5676 17.2716 19.6637 17.1036 18.8237 16.6009C18.5157 16.4169 18.217 16.2169 17.9117 16.0289C17.6477 15.8663 17.3744 15.7276 17.0664 15.669C16.7251 15.6036 16.3957 15.6249 16.0997 15.8289C15.8771 15.9823 15.7317 16.1996 15.6397 16.4463C15.5571 16.6676 15.4997 16.8969 15.4277 17.1329H13.3665C13.3705 17.0676 13.3731 17.0023 13.3798 16.9369C13.4211 16.5436 13.4824 16.1543 13.5984 15.7743C13.7318 15.3356 13.9251 14.9263 14.2238 14.573C14.5798 14.1516 15.0304 13.881 15.5624 13.753C16.5357 13.5183 17.465 13.6383 18.3383 14.1317C18.6783 14.3236 19.0037 14.541 19.337 14.745C19.6183 14.917 19.909 15.069 20.237 15.133C20.5916 15.2023 20.9303 15.1756 21.2276 14.9436C21.4476 14.773 21.585 14.541 21.6756 14.2823C21.7423 14.089 21.7903 13.889 21.8489 13.6863H23.9289Z" fill="#DBDBDB"/>
</svg>
