<svg width="28" height="28" viewBox="0 0 28 28" fill="none" xmlns="http://www.w3.org/2000/svg">
<path d="M27.5818 13.777C27.5405 14.3576 27.5245 14.9422 27.4486 15.5175C27.3767 16.0689 27.2622 16.6162 27.129 17.1569C27.0078 17.6483 26.8693 18.141 26.6802 18.6098C26.4312 19.2304 26.1528 19.8416 25.8412 20.4329C25.3938 21.2839 24.8331 22.0643 24.2019 22.7901C23.2364 23.9007 22.1244 24.8383 20.8619 25.596C20.2586 25.9582 19.6314 26.2739 18.9815 26.5389C18.3916 26.7799 17.7843 26.9757 17.165 27.1328C16.0611 27.4125 14.9437 27.5536 13.8051 27.5536C13.351 27.5536 12.9821 27.3832 12.6971 27.0343C12.1418 26.3551 12.3908 25.307 13.1859 24.9368C13.3816 24.8449 13.584 24.8143 13.7985 24.801C14.3951 24.761 14.9957 24.7331 15.587 24.6492C16.2635 24.5533 16.92 24.3642 17.5632 24.1271C19.373 23.4613 20.9032 22.3972 22.159 20.935C22.8169 20.1692 23.3709 19.3343 23.7731 18.406C23.9981 17.8853 24.2165 17.3566 24.3723 16.8133C24.7386 15.5349 24.9024 14.2284 24.7572 12.8994C24.6986 12.3587 24.6267 11.8154 24.5135 11.284C24.3683 10.6008 24.1353 9.94162 23.8503 9.30106C23.2457 7.94271 22.4 6.75481 21.3187 5.73604C20.5556 5.01824 19.7033 4.42563 18.7724 3.94754C18.2224 3.66521 17.6511 3.43216 17.0598 3.25105C16.5072 3.08192 15.9479 2.93277 15.3712 2.87683C14.8119 2.82223 14.2512 2.79294 13.6919 2.74633C13.1366 2.69972 12.7411 2.42272 12.5147 1.91134C12.2004 1.20552 12.5546 0.402494 13.2232 0.114842C13.387 0.0442611 13.5761 0.00963634 13.7558 0.00430945C14.5189 -0.0183298 15.2793 0.049588 16.0318 0.176102C16.6696 0.282639 17.2969 0.435787 17.9148 0.631551C20.4451 1.43325 22.5665 2.84887 24.2911 4.8611C24.9676 5.65081 25.5549 6.50445 26.0117 7.44065C26.2807 7.99065 26.5364 8.54997 26.7481 9.12261C26.9359 9.62733 27.0717 10.1534 27.2009 10.6767C27.4672 11.7581 27.5591 12.7103 27.5818 13.777Z" fill="#2F2F2F"/>
<path d="M11.7289 15.6759C11.9739 15.4242 12.207 15.1818 12.444 14.9435C14.4017 12.9805 16.3593 11.0189 18.3183 9.05725C19.0094 8.36609 20.196 8.61112 20.5675 9.5087C20.7953 10.0587 20.6395 10.654 20.2466 11.0468C18.0293 13.2615 15.8133 15.4775 13.5973 17.6935C13.287 18.0038 12.9807 18.318 12.6638 18.623C12.1258 19.1424 11.2908 19.145 10.7594 18.619C9.59548 17.4657 8.43555 16.3098 7.28361 15.1446C6.6284 14.4814 6.79221 13.412 7.60056 12.9579C8.1186 12.6675 8.8071 12.7594 9.23592 13.1869C10.0256 13.974 10.8087 14.7663 11.5957 15.5547C11.6304 15.5893 11.6676 15.62 11.7289 15.6759Z" fill="#2F2F2F"/>
<path d="M2.08194 19.0906C1.4254 19.1213 0.858082 18.6765 0.703603 18.1172C0.574426 17.6471 0.419946 17.1836 0.313408 16.7082C0.0444002 15.5017 -0.0394983 14.2765 0.016434 13.0406C0.0483953 12.3388 0.128299 11.6437 0.285442 10.9605C0.398638 10.4704 0.526484 9.983 0.659656 9.49692C0.784838 9.03881 1.04452 8.68058 1.49864 8.50079C1.8329 8.36762 2.16583 8.34898 2.51474 8.50612C2.82237 8.64462 3.08472 8.81774 3.25918 9.10673C3.47358 9.46096 3.50421 9.83518 3.39634 10.2334C3.26051 10.7354 3.12601 11.2375 3.01547 11.7449C2.853 12.496 2.80106 13.2604 2.8237 14.0288C2.84102 14.5987 2.90228 15.1647 3.00482 15.7281C3.10603 16.2767 3.27116 16.8081 3.42032 17.3434C3.60276 17.9973 3.32044 18.6459 2.70252 18.9548C2.4961 19.0574 2.28036 19.096 2.0806 19.092L2.08194 19.0906Z" fill="#2F2F2F"/>
<path d="M5.00767 21.1387C5.3992 21.152 5.72813 21.2958 5.99847 21.5662C6.64303 22.2094 7.35284 22.77 8.13988 23.2295C8.33298 23.3413 8.54206 23.4279 8.72318 23.5557C8.98952 23.7435 9.27318 23.918 9.44497 24.211C9.59279 24.4627 9.67269 24.733 9.65006 25.026C9.6101 25.5467 9.28117 26.0221 8.77378 26.2165C8.34097 26.383 7.92947 26.3271 7.52862 26.1153C6.74424 25.7012 5.99182 25.2337 5.30864 24.6664C4.87051 24.3028 4.45368 23.914 4.04217 23.5225C3.67329 23.1709 3.55743 22.7208 3.66396 22.2347C3.7705 21.7473 4.07547 21.4024 4.55755 21.2386C4.70138 21.1893 4.85852 21.172 5.00767 21.1387Z" fill="#2F2F2F"/>
<path d="M3.6267 4.99022C3.65067 4.60801 3.78517 4.28307 4.05019 4.01939C4.84522 3.22569 5.72416 2.53719 6.69365 1.96987C7.0439 1.76612 7.39947 1.56636 7.76835 1.40256C8.34632 1.14687 9.01085 1.3666 9.37707 1.862C9.89911 2.56782 9.63676 3.55462 8.84439 3.93683C7.77768 4.45087 6.83082 5.13937 5.98251 5.96637C5.25673 6.67351 4.11011 6.42715 3.73989 5.48562C3.67864 5.32981 3.66265 5.15535 3.62537 4.99022H3.6267Z" fill="#2F2F2F"/>
</svg>
