<svg width="24" height="24" viewBox="0 0 24 24" fill="none" xmlns="http://www.w3.org/2000/svg">
<rect width="24" height="24" />
<path d="M20.4752 8.96213C20.3545 8.63448 20.2043 8.29361 19.9895 7.85468C19.7062 7.27411 19.3397 6.72545 18.8696 6.17679C17.742 4.86078 16.3396 3.93 14.7029 3.41169C14.2943 3.2825 13.8795 3.18289 13.4717 3.1144C13.0157 3.03736 12.5915 3 12.1806 3C12.1184 3 12.0561 3.00156 11.9946 3.00311C11.9005 3.00623 11.8117 3.02335 11.7433 3.05292C11.5907 3.11829 11.4678 3.24593 11.4055 3.40391C11.3448 3.55878 11.3487 3.72766 11.4156 3.87786C11.5246 4.12145 11.6997 4.24597 11.9674 4.26776L12.4102 4.30122C12.6421 4.31757 12.874 4.33391 13.1052 4.35648C13.5379 4.3985 13.9527 4.51291 14.3006 4.6203C14.7107 4.7456 15.1154 4.91059 15.5037 5.10904C16.1645 5.44758 16.7645 5.86939 17.2882 6.36279C18.0447 7.07411 18.6408 7.91383 19.0619 8.86018C19.2805 9.35125 19.4339 9.80808 19.5296 10.2556C19.6144 10.6587 19.6642 11.0649 19.6977 11.3747C19.7942 12.258 19.7062 13.1584 19.4284 14.1266C19.3171 14.511 19.1623 14.8877 19.0113 15.2371C18.742 15.8581 18.3716 16.4403 17.8774 17.0162C17.0018 18.0357 15.9178 18.7875 14.6562 19.2528C14.1543 19.4373 13.699 19.5579 13.2632 19.6202C12.92 19.6684 12.5729 19.691 12.2258 19.7128L12.0351 19.7252C11.8973 19.7346 11.8055 19.7533 11.7261 19.7906C11.5502 19.8723 11.4242 20.0311 11.3806 20.2256C11.3362 20.4163 11.3806 20.6093 11.4997 20.7564C11.6351 20.9222 11.8001 20.9992 12.0203 20.9992H12.0289C12.7635 20.9992 13.499 20.9074 14.215 20.7245C14.6266 20.6202 15.0259 20.4903 15.4018 20.3369C15.8197 20.1665 16.2329 19.9595 16.6306 19.7213C17.4462 19.2326 18.1809 18.6155 18.8136 17.8878C19.2572 17.3773 19.6066 16.8745 19.8814 16.3531C20.079 15.978 20.265 15.5733 20.4347 15.1507C20.5662 14.8223 20.6588 14.4752 20.7242 14.2098C20.8222 13.8098 20.8915 13.4588 20.9343 13.1351C20.9693 12.872 20.9841 12.6051 20.9997 12.3389L21.0215 11.9942C21.0044 11.2229 20.9296 10.6182 20.7724 9.97851C20.6907 9.6462 20.5997 9.29444 20.4767 8.96135L20.4752 8.96213Z" fill="#DBDBDB"/>
<path d="M10.3798 13.4587L10.323 13.4066L8.73225 11.8089C8.61318 11.6906 8.44352 11.6275 8.2762 11.6275C8.17192 11.6275 8.06763 11.6516 7.97736 11.703C7.79447 11.8057 7.67306 11.9785 7.64505 12.1785C7.61781 12.3754 7.68396 12.5715 7.82793 12.7171C8.60384 13.5023 9.38598 14.2813 10.1704 15.0588C10.4133 15.2977 10.7985 15.3001 11.0467 15.0588C11.1876 14.9226 11.3246 14.7841 11.4631 14.6456L16.1575 9.95196C16.3513 9.75818 16.412 9.47646 16.3108 9.23287C16.2299 9.03675 16.0547 8.89433 15.8423 8.85308C15.6306 8.80795 15.4197 8.87176 15.2687 9.02352L10.6288 13.6891L10.4195 13.4961" fill="#DBDBDB"/>
<path d="M4.67373 14.2703C4.5889 13.9715 4.50407 13.6742 4.44804 13.3683C4.37566 12.9753 4.33363 12.5745 4.32118 12.1784C4.30484 11.6002 4.34842 11.0733 4.45738 10.5682C4.53287 10.2211 4.6247 9.87715 4.71731 9.53394C4.77256 9.33082 4.75389 9.16116 4.65661 9.00162C4.58501 8.88255 4.4745 8.79539 4.28538 8.71212C4.21145 8.67865 4.13985 8.66309 4.0667 8.66309C3.99043 8.66309 3.9126 8.67943 3.827 8.71367C3.62621 8.79305 3.50169 8.94481 3.43476 9.19074C3.34682 9.51448 3.25966 9.83901 3.18495 10.1659C3.09078 10.5791 3.03397 11.0219 3.0114 11.5169C2.97171 12.373 3.03552 13.1567 3.20518 13.9139C3.2511 14.1194 3.31102 14.3209 3.37017 14.5233L3.46434 14.8501C3.52582 15.0766 3.77252 15.3023 4.09861 15.2922H4.11884C4.19355 15.2867 4.29317 15.2844 4.39979 15.2307C4.68929 15.0859 4.82004 14.7933 4.73365 14.4836L4.67295 14.2703H4.67373Z" fill="#DBDBDB"/>
<path d="M8.4863 18.8785L8.42482 18.8357C8.36101 18.7898 8.29019 18.7548 8.22014 18.7198C8.16333 18.6902 8.10652 18.6614 8.05049 18.6287C7.51739 18.3182 7.01153 17.9244 6.5477 17.4613C6.42318 17.3368 6.28154 17.2722 6.10643 17.2598L6.04262 17.273C5.98736 17.2831 5.93055 17.2917 5.87841 17.3104C5.65116 17.3874 5.51653 17.5376 5.46594 17.7687C5.4138 18.01 5.46983 18.2046 5.63793 18.3641C5.91032 18.624 6.18659 18.8816 6.47688 19.1221C6.87612 19.4536 7.34929 19.7626 7.92363 20.0669C8.13454 20.179 8.32599 20.1976 8.52366 20.1198C8.74935 20.0334 8.90811 19.8155 8.92757 19.5673C8.93769 19.4412 8.905 19.3182 8.82873 19.189C8.75713 19.0676 8.63184 18.9805 8.48708 18.8801L8.4863 18.8785Z" fill="#DBDBDB"/>
<path d="M5.50333 6.30044C5.58582 6.51135 5.75159 6.65766 5.9586 6.70201C6.17106 6.75104 6.37963 6.68334 6.54073 6.5238C7.15243 5.92688 7.82794 5.44826 8.54782 5.10117C8.72837 5.014 8.85912 4.85602 8.90659 4.66535C8.95251 4.48013 8.91437 4.29257 8.79919 4.13848C8.62409 3.90034 8.31668 3.80773 8.06764 3.92135C7.82717 4.02719 7.59758 4.15716 7.37034 4.28946C6.75475 4.64901 6.17495 5.09883 5.64653 5.62648C5.53057 5.74244 5.46675 5.88019 5.44885 6.05841L5.46286 6.13001C5.47376 6.18837 5.48232 6.24674 5.50411 6.30122L5.50333 6.30044Z" fill="#DBDBDB"/>
</svg>
