<?xml version="1.0" encoding="utf-8"?>
<svg viewBox="0 0 24 24" fill="none" xmlns="http://www.w3.org/2000/svg">
  <path d="M 23.355 11.752 C 23.476 18.015 18.559 23.174 12.32 23.347 C 6.012 23.522 0.833 18.581 0.648 12.345 C 0.461 6.038 5.419 0.816 11.718 0.652 C 17.984 0.488 23.188 5.452 23.355 11.752 Z M 7.536 12.37 C 7.52 12.403 7.51 12.413 7.51 12.423 C 7.573 13.314 7.636 14.205 7.706 15.095 C 7.709 15.133 7.782 15.193 7.828 15.198 C 8.523 15.275 9.217 15.362 9.914 15.415 C 11.998 15.574 14.074 15.497 16.144 15.208 C 16.251 15.194 16.294 15.155 16.301 15.053 C 16.363 14.207 16.426 13.362 16.491 12.516 C 16.5 12.404 16.459 12.367 16.346 12.368 C 15.589 12.372 14.831 12.371 14.074 12.368 C 13.968 12.368 13.932 12.41 13.9 12.509 C 13.845 12.682 13.784 12.86 13.687 13.013 C 13.232 13.73 12.565 14.064 11.728 13.948 C 10.898 13.834 10.351 13.334 10.103 12.532 C 10.062 12.398 10.004 12.363 9.877 12.368 C 9.642 12.376 9.407 12.37 9.171 12.37 C 8.627 12.37 8.082 12.37 7.536 12.37 Z M 16.479 11.633 C 16.487 11.581 16.494 11.558 16.492 11.536 C 16.43 10.673 16.365 9.811 16.303 8.949 C 16.296 8.841 16.246 8.811 16.143 8.796 C 14.756 8.591 13.359 8.506 11.959 8.508 C 10.576 8.509 9.198 8.599 7.827 8.799 C 7.713 8.816 7.702 8.88 7.696 8.962 C 7.632 9.802 7.571 10.642 7.506 11.481 C 7.497 11.605 7.545 11.637 7.663 11.636 C 8.403 11.631 9.143 11.63 9.883 11.636 C 10.015 11.636 10.067 11.597 10.105 11.467 C 10.358 10.603 11.109 10.038 11.99 10.036 C 12.876 10.033 13.632 10.588 13.888 11.45 C 13.934 11.607 14.003 11.639 14.15 11.637 C 14.821 11.63 15.492 11.633 16.163 11.633 L 16.479 11.633 Z M 15.432 18.823 L 8.592 18.823 C 8.6 18.865 8.6 18.895 8.611 18.918 C 8.859 19.458 9.086 20.01 9.364 20.535 C 9.697 21.162 10.126 21.722 10.706 22.148 C 11.142 22.471 11.624 22.663 12.18 22.607 C 12.711 22.552 13.148 22.303 13.535 21.955 C 14.25 21.313 14.71 20.498 15.098 19.635 C 15.214 19.376 15.314 19.11 15.432 18.823 Z M 15.439 5.186 C 15.282 4.818 15.149 4.479 14.995 4.15 C 14.628 3.366 14.187 2.631 13.532 2.049 C 13.056 1.625 12.514 1.345 11.85 1.4 C 11.202 1.454 10.702 1.798 10.263 2.246 C 9.599 2.925 9.165 3.75 8.8 4.614 C 8.722 4.797 8.654 4.982 8.574 5.187 L 15.439 5.186 Z M 16.142 8.052 C 16.145 8.002 16.151 7.98 16.147 7.96 C 16.002 7.324 15.859 6.688 15.704 6.054 C 15.692 6.004 15.589 5.944 15.527 5.944 C 13.176 5.939 10.824 5.94 8.472 5.938 C 8.361 5.938 8.306 5.974 8.28 6.084 C 8.204 6.396 8.112 6.703 8.04 7.016 C 7.963 7.348 7.902 7.684 7.825 8.056 C 10.62 7.679 13.378 7.679 16.142 8.052 Z M 16.179 15.947 C 13.37 16.329 10.613 16.324 7.799 15.947 C 7.965 16.624 8.124 17.243 8.265 17.867 C 8.302 18.032 8.376 18.072 8.534 18.072 C 10.261 18.066 11.988 18.068 13.715 18.068 C 14.306 18.068 14.897 18.065 15.487 18.07 C 15.622 18.072 15.695 18.039 15.725 17.892 C 15.77 17.668 15.848 17.451 15.9 17.228 C 15.994 16.818 16.079 16.404 16.179 15.947 Z M 7.545 5.95 C 7.46 5.945 7.399 5.941 7.337 5.941 C 6.047 5.941 4.756 5.943 3.466 5.938 C 3.329 5.938 3.247 5.982 3.172 6.095 C 2.509 7.091 2.02 8.165 1.722 9.323 C 1.641 9.637 1.581 9.955 1.51 10.278 C 1.55 10.278 1.565 10.282 1.572 10.278 C 1.664 10.209 1.753 10.137 1.845 10.069 C 2.746 9.409 3.766 9.003 4.828 8.705 C 5.511 8.514 6.209 8.376 6.901 8.219 C 7.015 8.193 7.074 8.15 7.095 8.024 C 7.149 7.685 7.217 7.348 7.291 7.013 C 7.367 6.668 7.456 6.325 7.546 5.953 L 7.545 5.95 Z M 22.466 10.287 C 22.468 10.253 22.473 10.236 22.471 10.221 C 22.212 8.709 21.653 7.316 20.786 6.05 C 20.745 5.99 20.637 5.945 20.56 5.945 C 19.253 5.939 17.945 5.94 16.638 5.941 C 16.579 5.941 16.521 5.954 16.477 5.959 C 16.623 6.647 16.771 7.311 16.898 7.979 C 16.928 8.141 16.997 8.194 17.144 8.225 C 17.637 8.326 18.133 8.422 18.621 8.547 C 19.679 8.815 20.707 9.168 21.648 9.733 C 21.926 9.899 22.185 10.095 22.466 10.287 Z M 7.548 18.056 C 7.525 17.962 7.507 17.891 7.491 17.82 C 7.359 17.222 7.221 16.626 7.101 16.025 C 7.071 15.879 7.019 15.815 6.872 15.781 C 6.07 15.594 5.261 15.425 4.472 15.194 C 3.535 14.919 2.643 14.525 1.847 13.942 C 1.747 13.869 1.65 13.79 1.55 13.714 C 1.537 13.737 1.528 13.746 1.527 13.755 C 1.524 13.772 1.527 13.789 1.53 13.806 C 1.792 15.306 2.347 16.686 3.198 17.95 C 3.268 18.053 3.35 18.068 3.459 18.068 C 4.756 18.066 6.052 18.068 7.349 18.066 C 7.409 18.066 7.47 18.059 7.547 18.055 L 7.548 18.056 Z M 16.452 18.056 C 16.526 18.06 16.587 18.067 16.647 18.067 C 17.944 18.067 19.24 18.066 20.537 18.07 C 20.666 18.07 20.746 18.03 20.818 17.922 C 21.516 16.878 22.014 15.746 22.318 14.53 C 22.383 14.266 22.427 13.998 22.488 13.701 C 22.432 13.731 22.41 13.737 22.394 13.751 C 21.538 14.455 20.542 14.892 19.494 15.203 C 18.732 15.428 17.951 15.595 17.177 15.775 C 17.006 15.814 16.915 15.866 16.89 16.06 C 16.852 16.377 16.777 16.691 16.707 17.004 C 16.629 17.349 16.541 17.691 16.452 18.056 Z M 22.563 12.428 C 22.547 12.412 22.532 12.397 22.516 12.381 C 22.482 12.378 22.449 12.371 22.415 12.371 C 20.741 12.371 19.066 12.371 17.391 12.368 C 17.259 12.368 17.232 12.419 17.224 12.539 C 17.177 13.305 17.12 14.071 17.068 14.837 C 17.064 14.903 17.068 14.97 17.068 15.054 C 17.176 15.033 17.264 15.018 17.353 14.999 C 18.508 14.77 19.637 14.457 20.707 13.957 C 21.249 13.703 21.769 13.409 22.177 12.96 C 22.323 12.798 22.435 12.606 22.563 12.428 Z M 6.94 15.061 C 6.935 14.951 6.933 14.872 6.928 14.794 C 6.877 14.051 6.819 13.309 6.779 12.565 C 6.771 12.404 6.72 12.367 6.568 12.367 C 4.928 12.371 3.288 12.37 1.648 12.37 C 1.589 12.37 1.53 12.377 1.409 12.387 C 1.564 12.603 1.674 12.791 1.815 12.949 C 2.172 13.349 2.625 13.62 3.097 13.858 C 3.997 14.31 4.953 14.609 5.93 14.84 C 6.257 14.918 6.586 14.985 6.94 15.061 Z M 17.058 8.942 C 17.063 9.058 17.065 9.131 17.071 9.204 C 17.122 9.947 17.18 10.689 17.22 11.433 C 17.23 11.602 17.282 11.64 17.442 11.64 C 19.076 11.635 20.712 11.637 22.346 11.637 C 22.407 11.637 22.466 11.63 22.592 11.623 C 22.439 11.408 22.329 11.222 22.189 11.062 C 21.884 10.712 21.496 10.464 21.091 10.246 C 20.14 9.735 19.12 9.415 18.076 9.165 C 17.749 9.087 17.417 9.021 17.058 8.942 Z M 1.435 11.579 C 1.451 11.595 1.467 11.611 1.484 11.626 C 1.518 11.629 1.551 11.636 1.585 11.636 C 3.26 11.636 4.934 11.636 6.608 11.639 C 6.739 11.639 6.767 11.59 6.775 11.469 C 6.821 10.709 6.877 9.949 6.929 9.189 C 6.934 9.117 6.929 9.045 6.929 8.971 C 6.886 8.971 6.857 8.967 6.83 8.971 C 5.696 9.187 4.585 9.482 3.526 9.945 C 2.904 10.216 2.305 10.531 1.834 11.037 C 1.683 11.201 1.567 11.398 1.435 11.579 Z M 20.129 18.834 C 20.075 18.821 20.055 18.811 20.035 18.811 C 18.796 18.811 17.557 18.809 16.318 18.814 C 16.269 18.814 16.196 18.871 16.175 18.92 C 16.08 19.141 16.006 19.37 15.915 19.592 C 15.503 20.588 14.996 21.527 14.231 22.304 C 14.218 22.317 14.214 22.339 14.189 22.394 C 16.581 21.861 18.538 20.682 20.129 18.834 Z M 9.819 22.393 C 9.563 22.075 9.325 21.806 9.116 21.514 C 8.566 20.744 8.174 19.892 7.866 19.001 C 7.818 18.864 7.76 18.804 7.602 18.805 C 6.426 18.812 5.25 18.809 4.074 18.809 C 4.016 18.809 3.958 18.815 3.859 18.822 C 5.468 20.682 7.424 21.863 9.819 22.393 Z M 20.146 5.199 C 19.352 4.256 18.468 3.505 17.459 2.9 C 16.449 2.294 15.37 1.863 14.21 1.644 C 14.329 1.807 14.463 1.947 14.585 2.098 C 15.29 2.961 15.764 3.949 16.131 4.992 C 16.183 5.141 16.25 5.205 16.421 5.203 C 17.585 5.194 18.75 5.199 19.914 5.199 C 19.973 5.199 20.034 5.199 20.146 5.199 Z M 9.82 1.611 C 7.423 2.145 5.466 3.321 3.899 5.145 C 3.905 5.163 3.911 5.181 3.918 5.199 C 3.978 5.199 4.04 5.199 4.1 5.199 C 5.259 5.199 6.419 5.194 7.578 5.203 C 7.746 5.204 7.816 5.148 7.869 4.994 C 8.178 4.109 8.565 3.259 9.114 2.495 C 9.323 2.203 9.562 1.932 9.82 1.611 Z M 13.237 12.014 C 13.241 11.332 12.689 10.77 12.012 10.766 C 11.331 10.762 10.766 11.314 10.762 11.989 C 10.758 12.67 11.311 13.233 11.987 13.237 C 12.668 13.242 13.233 12.69 13.236 12.013 L 13.237 12.014 Z" fill="#2F2F2F" style=""/>
</svg>
