<svg width="24" height="24" viewBox="0 0 24 24" fill="none" xmlns="http://www.w3.org/2000/svg">
<rect width="24" height="24" />
<path d="M19.7864 4.23881C17.7083 2.15447 14.946 1.0042 12.0084 1H11.9905C9.06659 1 6.31266 2.14083 4.23357 4.21677C2.15238 6.29481 1.00316 9.05399 1.00001 11.9863C0.996858 14.9229 2.14083 17.6863 4.22097 19.7696C6.30112 21.8539 9.0645 23.001 12 23.001H12.0031C18.0568 23.001 22.9884 18.0767 23 12.022C23.0052 9.08548 21.8644 6.32315 19.7864 4.23881ZM18.8082 18.7946C16.9862 20.6197 14.5682 21.6262 12.001 21.6262H11.9979C9.43497 21.6262 7.02004 20.6239 5.19807 18.8019C3.37611 16.9799 2.37277 14.565 2.37173 12.001C2.37173 6.69783 6.68839 2.37697 11.9958 2.36962H12.0073C17.3043 2.36962 21.6178 6.68523 21.6241 11.9947C21.6272 14.5545 20.6281 16.9694 18.8072 18.7925L18.8082 18.7946Z" fill="#2F2F2F"/>
<path d="M11.3409 6.41325C9.61129 6.72286 8.33298 8.25516 8.36446 9.98056C8.37181 10.3636 8.67092 10.6659 9.0477 10.6669H9.05084C9.41608 10.6669 9.71624 10.3741 9.73513 9.99735C9.74353 9.85567 9.75402 9.71293 9.77711 9.5723C9.87262 8.98667 10.2253 8.45246 10.7416 8.10612C11.2601 7.75768 11.8919 7.63594 12.4723 7.77238C13.6225 8.04 14.3761 9.12416 14.2229 10.2954C14.0843 11.3722 13.1314 12.2055 12.0073 12.2349C11.5896 12.2454 11.3115 12.5214 11.2979 12.9402C11.2937 13.063 11.2947 13.1847 11.2958 13.3075V13.6287L11.2895 13.6308C11.2895 13.6602 11.2895 13.6896 11.2916 13.7189C11.2947 13.8921 11.2979 14.0558 11.323 14.2133C11.3724 14.5208 11.6358 14.7433 11.9654 14.7506C11.9737 14.7506 11.9811 14.7506 11.9884 14.7506C12.3117 14.7506 12.5741 14.5523 12.6486 14.2531C12.679 14.1314 12.6769 13.9876 12.6748 13.8606C12.6748 13.6486 12.7714 13.5206 12.9697 13.4671C13.9238 13.2089 14.7109 12.5792 15.1842 11.6955C15.6565 10.8149 15.7468 9.77066 15.433 8.82924C14.8568 7.10593 13.1303 6.0879 11.3398 6.41115L11.3409 6.41325Z" fill="#2F2F2F"/>
<path d="M12.0651 16.2716C12.0472 16.2716 12.0304 16.2716 12.0126 16.2716L11.9433 16.2748C11.8982 16.2748 11.8552 16.2779 11.8121 16.2821C11.5455 16.3136 11.3084 16.5141 11.2475 16.7597C11.1698 17.0682 11.2443 17.3075 11.4721 17.4901C11.6967 17.6696 11.9737 17.7042 12.3463 17.593C12.5237 17.5415 12.6528 17.4156 12.7325 17.2193C12.8218 16.9968 12.7924 16.7492 12.6549 16.5571C12.5216 16.3724 12.3096 16.2695 12.0661 16.2695L12.0651 16.2716Z" fill="#2F2F2F"/>
</svg>
