<svg width="24" height="24" viewBox="0 0 24 24" fill="none" xmlns="http://www.w3.org/2000/svg">
<g clip-path="url(#clip0_2498_1234)">
<rect width="24" height="24" />
<path d="M23.2511 5.22526H21.0204V2.99346C21.0204 2.57955 20.6853 2.24561 20.2714 2.24561C19.8575 2.24561 19.5224 2.58073 19.5224 2.99346V5.22526H17.2918C16.8778 5.22526 16.5427 5.56038 16.5427 5.97311C16.5427 6.38584 16.8778 6.72214 17.2918 6.72214H19.5224V8.95277C19.5224 9.36667 19.8575 9.70179 20.2714 9.70179C20.6853 9.70179 21.0204 9.36667 21.0204 8.95277V6.72214H23.2511C23.665 6.72214 24.0001 6.38702 24.0001 5.97311C24.0001 5.55921 23.665 5.22526 23.2511 5.22526Z" fill="#2F2F2F"/>
<path d="M21.8527 11.0609C21.8704 11.2243 21.8927 11.3901 21.9033 11.5477C21.5388 11.5477 21.159 11.5477 20.7804 11.5477C20.6157 11.5806 20.4464 11.5994 20.2712 11.5994C20.1007 11.5994 19.9337 11.5794 19.7715 11.5488C19.4046 11.5488 19.0342 11.5488 18.6803 11.5512C18.3404 11.5571 18.2464 11.3337 18.2393 11.1467C18.2287 10.9468 18.204 10.7575 18.1876 10.5635C17.8419 10.1166 17.6267 9.5628 17.6267 8.95488V8.61975H17.2915C17.0905 8.61975 16.8965 8.59271 16.7083 8.55038C16.9117 9.3923 17.0505 10.2836 17.1069 11.2466C17.0999 11.296 17.0611 11.4524 17.0493 11.503L16.8553 11.5371H12.621V7.18049C13.3594 7.13228 14.0861 7.00176 14.8116 6.86536C14.7105 6.58668 14.647 6.28918 14.647 5.97522C14.647 5.89879 14.6635 5.82824 14.6694 5.75298C13.8862 5.87528 12.8985 6.02931 12.6257 6.07165V2.28417C12.9949 2.24066 13.3912 2.26888 13.6264 2.58284C14.2119 3.28483 14.66 3.91157 15.0562 4.57476C15.2679 4.23729 15.5513 3.95273 15.8887 3.74107C15.7265 3.46592 15.5324 3.11198 15.4019 2.87798L16.004 3.1014C16.2321 3.18253 16.4626 3.28836 16.693 3.40477C16.8859 3.35891 17.0846 3.33069 17.2915 3.33069H17.6267V2.99557C17.6267 2.86975 17.6467 2.74981 17.6631 2.62988C16.0004 1.61863 14.0697 1.04128 12.0366 1.08243V0.964844C12.0366 0.964844 12.0272 0.964844 12.0213 0.964844L12.0072 1.08243C2.32861 0.995416 -2.72058 13.1833 4.22293 19.934C10.5162 26.4847 22.135 22.408 23.0169 13.3585C23.1838 12.0897 23.0968 10.8386 22.8134 9.64511C22.657 10.2189 22.316 10.7116 21.8527 11.0609ZM6.05964 4.22788C6.78986 3.65288 7.70821 3.19194 8.61481 2.80978C8.47135 3.14961 8.24793 3.66346 8.04216 3.96566C7.72702 4.33371 7.71409 4.91812 7.19083 5.06863C6.7146 4.95104 6.2125 4.65002 5.74098 4.47246L6.05964 4.22788ZM11.2111 11.53H6.87452C6.94742 10.0426 7.23551 8.46219 7.72938 7.17344C7.82933 6.90534 7.91634 6.67369 8.21266 6.67369C9.20274 6.89593 10.2998 7.08172 11.4487 7.18519V11.5312H11.2111V11.53ZM11.4463 12.7094V17.0625C10.3951 17.1448 9.17805 17.3729 8.21031 17.5834C8.02334 17.5834 7.88577 17.4799 7.80228 17.2765C7.27431 16.0019 6.92508 14.2287 6.8804 12.7106H11.4451L11.4463 12.7094ZM2.15575 11.289C2.40621 9.13361 3.19405 6.64194 4.96373 5.38494C5.49522 5.52016 6.04906 5.9035 6.51823 6.07517C6.83101 6.21745 6.78868 6.46203 6.73577 6.59491C6.19957 7.94128 5.88561 9.37114 5.77508 10.968C5.75274 11.2913 5.4917 11.5477 5.16716 11.5477C4.79676 11.55 2.44855 11.5477 2.13341 11.5477L2.15575 11.2902V11.289ZM2.14517 12.6965C2.49323 12.693 3.07058 12.6988 3.42452 12.6965C4.03244 12.6988 4.70622 12.6965 5.31061 12.693C5.55167 12.6906 5.74686 12.8835 5.76097 13.1245C5.8421 14.7672 6.18193 16.1571 6.72636 17.634C6.76516 17.7457 6.86746 18.042 6.49589 18.2043C6.06317 18.3548 5.52227 18.7393 4.98137 18.8722C3.15642 17.6293 2.31685 14.8366 2.14635 12.6965H2.14517ZM8.06803 21.1839C7.24374 20.8464 6.47002 20.3479 5.7398 19.7694C6.18076 19.58 6.66992 19.3601 7.10381 19.1861C7.72232 19.2202 7.83168 20.1256 8.2009 20.5619C8.3079 20.7465 8.60775 21.2651 8.71946 21.4567L8.0692 21.1827L8.06803 21.1839ZM11.4475 18.4877V21.9718C11.0994 21.9447 10.8548 22.0823 10.508 21.7319C9.66368 20.7383 8.99579 19.807 8.48311 18.7099C9.4144 18.4488 10.3763 18.296 11.4475 18.2313V18.4865V18.4877ZM11.4463 6.00227C10.4539 5.96582 9.44615 5.79767 8.42549 5.52369C8.71711 5.05805 8.97933 4.55477 9.28858 4.11029C9.64604 3.60232 10.0211 3.12139 10.4057 2.63223C10.6667 2.23243 10.9642 2.27711 11.4087 2.27006C11.4886 2.54521 11.4287 5.72476 11.4463 6.00227ZM12.6198 16.8003V12.7188C13.0137 12.6871 13.6428 12.7012 14.0426 12.6988C14.8928 12.6988 15.7947 12.6988 16.6425 12.6941C16.7612 12.6941 16.8988 12.7083 16.9988 12.8164C17.2386 14.3239 16.606 15.9489 16.1804 17.2271C16.1451 17.3165 16.0498 17.554 15.757 17.554C14.7352 17.3882 13.6522 17.173 12.6186 17.0002V16.8015L12.6198 16.8003ZM13.3865 21.7601C13.1948 21.9541 12.8538 22.0611 12.6292 22.2175V18.2407C13.584 18.276 14.5647 18.4371 15.556 18.6981C15.2232 19.212 14.9186 19.7658 14.5671 20.2562C14.192 20.7759 13.7828 21.2733 13.3853 21.7613L13.3865 21.7601ZM18.0171 20.0104C17.201 20.6524 16.2027 21.131 15.1997 21.5249C15.3819 21.1827 15.6594 20.6548 15.8676 20.3326C16.2086 19.9422 16.2403 19.3084 16.7883 19.1414C17.2951 19.272 17.8383 19.5765 18.344 19.7611L18.0171 20.0092V20.0104ZM21.955 12.9811C21.5729 15.0882 20.9391 17.5834 19.1118 18.8545C18.5497 18.7075 17.9559 18.3089 17.4632 18.1302C17.1657 17.9973 17.1822 17.7739 17.2492 17.6093C17.8007 16.2617 18.1205 14.8025 18.2264 13.1504C18.3663 12.3696 19.4387 12.8023 19.9843 12.7H20.7122C21.059 12.7035 21.6705 12.6941 22.0127 12.6977L21.955 12.9822V12.9811Z" fill="#2F2F2F"/>
</g>
<defs>
<clipPath id="clip0_2498_1234">
<rect width="24" height="24" />
</clipPath>
</defs>
</svg>
