<svg width="24" height="24" viewBox="0 0 24 24" fill="none" xmlns="http://www.w3.org/2000/svg">
<rect width="24" height="24" />
<path d="M17.0944 16.6904L21 21.0342L19.9185 22C18.6188 20.5538 17.3165 19.1064 16.009 17.6524C13.791 19.2248 11.3706 19.7754 8.7308 19.1662C6.57034 18.6677 4.83961 17.491 3.57259 15.6777C1.02418 12.0317 1.63157 7.07102 4.97023 4.16827C8.30759 1.26553 13.1837 1.29937 16.4531 4.13703C20.3678 7.53442 20.3717 13.3399 17.0957 16.6917L17.0944 16.6904ZM15.6158 16.1372C18.6044 13.4623 18.8513 8.87125 16.1657 5.893C13.4789 2.91345 8.88755 2.67264 5.8898 5.35541C2.91035 8.01995 2.67131 12.5967 5.35687 15.5775C8.03851 18.5532 12.6364 18.8057 15.6171 16.1385L15.6158 16.1372Z" fill="#2F2F2F"/>
</svg>
