<svg width="20" height="21" viewBox="0 0 20 21" fill="none" xmlns="http://www.w3.org/2000/svg">
<path d="M15.3788 15.0193L19.358 19.4602L18.2561 20.4477C16.9319 18.9691 15.6051 17.4893 14.2729 16.0027C12.0132 17.6104 9.5472 18.1733 6.85762 17.5505C4.65645 17.0408 2.89311 15.8377 1.60222 13.9839C-0.994203 10.2563 -0.375373 5.18453 3.02619 2.21681C6.42643 -0.750913 11.3944 -0.716312 14.7254 2.18487C18.7139 5.6583 18.7179 11.5937 15.3802 15.0206L15.3788 15.0193ZM13.8724 14.4537C16.9173 11.7188 17.1688 7.02505 14.4326 3.98014C11.6951 0.933901 7.01731 0.6877 3.96309 3.43051C0.927497 6.1547 0.683957 10.8338 3.42012 13.8814C6.15228 16.9237 10.8368 17.1818 13.8737 14.455L13.8724 14.4537Z" fill="#2F2F2F"/>
</svg>
