<svg width="24" height="24" viewBox="0 0 24 24" fill="none" xmlns="http://www.w3.org/2000/svg">
<rect width="24" height="24" />
<path d="M15.8025 14.815L13.2848 11.6905C13.2104 11.5978 13.1695 11.4835 13.1673 11.365L13.1113 7.30597C13.1059 6.9255 12.7394 6.62156 12.2932 6.62803C11.847 6.6345 11.4892 6.94814 11.4946 7.3286L11.5571 11.8683C11.5571 11.8931 11.5582 11.9136 11.5625 11.9384C11.57 12.0666 11.612 12.1927 11.695 12.2951L14.5437 15.8303C14.7829 16.1267 15.2582 16.1396 15.6053 15.8594C15.9523 15.5792 16.0407 15.1114 15.8025 14.815Z" fill="#2F2F2F"/>
<path d="M23 4.32723C22.9612 5.80597 22.9202 7.28471 22.8782 8.76346C22.8642 9.23877 22.515 9.57181 22.0408 9.56103C21.5396 9.55025 21.0384 9.53301 20.5372 9.51899C19.5553 9.49205 18.5724 9.46618 17.5894 9.43708C17.2144 9.42523 16.9331 9.21505 16.8285 8.88417C16.6625 8.35928 17.0452 7.84086 17.6067 7.84948C18.3935 7.86134 19.1814 7.88936 19.9681 7.90984C20.0188 7.91091 20.0705 7.90768 20.1417 7.90553L18.4086 6.07434C18.4086 6.07434 18.4043 6.07003 18.401 6.06788C18.3978 6.06572 18.3924 6.06356 18.3892 6.06033C18.387 6.05818 18.3859 6.05602 18.3849 6.05386C15.3401 2.90669 10.3067 2.78489 7.11861 5.80274C3.90892 8.83998 3.7688 13.9229 6.80605 17.1326C9.84329 20.3423 14.9262 20.4824 18.1348 17.4451C18.4592 17.138 18.9712 17.1531 19.2773 17.4764C19.5834 17.7997 19.5694 18.3128 19.246 18.6189C15.3886 22.2683 9.28068 22.1002 5.63124 18.2427C1.98073 14.3853 2.14995 8.27737 6.00632 4.62686C9.79479 1.04209 15.7464 1.14987 19.4163 4.80577C19.4756 4.84242 19.537 4.87259 19.5866 4.92541C19.606 4.94589 19.6136 4.97283 19.6308 4.99546L21.3294 6.79108C21.3348 6.693 21.3402 6.64019 21.3423 6.58522C21.3639 5.81351 21.3822 5.04181 21.4081 4.2701C21.4221 3.84437 21.7163 3.52211 22.113 3.48223C22.6174 3.4305 23.0119 3.80449 22.9978 4.32831L23 4.32723Z" fill="#2F2F2F"/>
</svg>
