<?xml version="1.0" encoding="utf-8"?>
<svg viewBox="0 0 24 24" fill="none" xmlns="http://www.w3.org/2000/svg">
  <path d="M 6.917 5.299 C 9.877 5.299 12.837 5.297 15.797 5.3 C 16.579 5.3 17.145 5.657 17.459 6.376 C 17.539 6.559 17.576 6.773 17.588 6.975 C 17.609 7.326 17.598 7.68 17.594 8.032 C 17.59 8.438 17.285 8.754 16.88 8.778 C 16.503 8.8 16.151 8.51 16.12 8.116 C 16.094 7.793 16.108 7.468 16.105 7.144 C 16.103 6.862 16.028 6.787 15.744 6.786 C 9.862 6.786 8.349 6.786 2.467 6.786 C 2.175 6.786 2.103 6.859 2.102 7.153 C 2.102 7.44 2.108 10.305 2.099 10.591 C 2.087 10.997 1.86 11.264 1.471 11.343 C 1.07 11.424 0.631 11.093 0.619 10.684 C 0.607 10.267 0.602 7.269 0.622 6.852 C 0.653 6.193 1.207 5.536 1.864 5.372 C 2.053 5.325 2.253 5.302 2.447 5.302 C 5.394 5.297 3.97 5.299 6.917 5.299 Z" fill="#DBDBDB" style=""/>
  <path d="M 6.917 18.701 C 3.961 18.701 5.376 18.7 2.421 18.701 C 1.806 18.701 1.306 18.474 0.939 17.977 C 0.728 17.69 0.614 17.365 0.613 17.006 C 0.612 16.659 0.61 14.132 0.613 13.785 C 0.617 13.378 0.927 13.061 1.33 13.043 C 1.714 13.026 2.058 13.313 2.087 13.707 C 2.111 14.029 2.098 16.533 2.101 16.857 C 2.103 17.134 2.18 17.212 2.452 17.212 C 8.343 17.212 9.866 17.212 15.757 17.212 C 16.023 17.212 16.103 17.133 16.104 16.868 C 16.105 16.573 16.1 16.276 16.107 15.981 C 16.116 15.605 16.334 15.328 16.67 15.249 C 17.015 15.168 17.345 15.307 17.503 15.618 C 17.555 15.722 17.586 15.849 17.59 15.967 C 17.602 16.296 17.596 16.625 17.594 16.953 C 17.588 17.923 16.852 18.673 15.881 18.699 C 15.712 18.704 15.543 18.7 15.374 18.7 C 12.555 18.7 9.736 18.7 6.917 18.7 L 6.917 18.701 Z" fill="#DBDBDB" style=""/>
  <path d="M 11.853 12.643 C 11.871 12.643 11.884 12.635 11.901 12.634 L 20.814 12.634 C 20.76 12.692 20.726 12.731 20.69 12.767 C 20.175 13.281 19.66 13.795 19.146 14.31 C 18.839 14.618 18.831 15.068 19.125 15.37 C 19.414 15.669 19.881 15.678 20.187 15.374 C 21.184 14.385 22.177 13.392 23.166 12.396 C 23.471 12.088 23.465 11.641 23.16 11.333 C 22.174 10.341 21.183 9.352 20.193 8.364 C 20.062 8.234 19.901 8.158 19.716 8.146 C 19.396 8.125 19.113 8.298 18.981 8.59 C 18.854 8.871 18.911 9.188 19.141 9.42 C 19.654 9.936 20.17 10.45 20.683 10.964 C 20.721 11.002 20.756 11.042 20.816 11.105 L 11.896 11.105 C 11.881 11.105 11.869 11.097 11.854 11.097 C 11.427 11.097 11.082 11.443 11.082 11.869 C 11.082 12.295 11.428 12.641 11.854 12.641 L 11.853 12.643 Z" fill="#DBDBDB" style=""/>
</svg>
