<svg width="24" height="24" viewBox="0 0 24 24" fill="none" xmlns="http://www.w3.org/2000/svg">
<rect width="24" height="24" />
<path d="M9.62377 15.1C7.86126 16.0039 6.0785 16.1011 4.28764 15.2498C2.89772 14.5889 1.91846 13.5173 1.38145 12.0731C0.839571 10.6143 0.870351 9.15149 1.50375 7.72431C2.11123 6.35464 3.11317 5.3608 4.48689 4.75737C5.34304 4.38073 6.24293 4.23331 7.17764 4.29163C8.11559 4.34995 8.98388 4.62777 9.78495 5.11457C10.5836 5.59974 11.2291 6.24124 11.7184 7.03988C12.206 7.8369 12.4725 8.706 12.5559 9.64476C14.1985 8.76999 15.8808 8.64849 17.5939 9.34102C19.0503 9.92987 20.0887 10.9747 20.7051 12.4165C21.3158 13.8445 21.3417 15.3024 20.7844 16.7507C20.2069 18.2516 19.1653 19.341 17.6871 19.9703C15.8784 20.7406 14.0916 20.6232 12.4085 19.6123C10.7213 18.5999 9.84246 17.0504 9.62296 15.1008L9.62377 15.1ZM15.3892 10.0927C12.8556 10.1056 10.795 12.1273 10.8112 14.7095C10.8266 17.2189 12.8418 19.2843 15.4353 19.2657C17.9325 19.2478 20.002 17.2423 19.985 14.6447C19.968 12.1395 17.9552 10.0967 15.3892 10.0927ZM6.73944 14.6302C7.40281 14.6366 7.99328 14.5143 8.56189 14.2762C8.96688 14.1069 9.33622 13.8826 9.67722 13.6088C9.70395 13.5877 9.73149 13.5561 9.73878 13.5245C9.81492 13.1916 9.90888 12.8652 10.0344 12.5469C10.1778 12.1848 10.356 11.8422 10.5674 11.5158C10.778 11.191 11.0234 10.8946 11.2931 10.6184C11.3182 10.5924 11.3425 10.5552 11.3474 10.5195C11.3628 10.407 11.3766 10.2927 11.3782 10.1793C11.3879 9.50464 11.2729 8.85423 11.004 8.23216C10.8363 7.845 10.6249 7.48699 10.3584 7.16138C10.045 6.77907 9.68209 6.45265 9.26333 6.18616C8.91504 5.96423 8.54569 5.7909 8.15447 5.66373C7.82886 5.55762 7.4911 5.4993 7.15091 5.47014C6.56206 5.41912 5.98535 5.49606 5.42242 5.66778C5.07737 5.77308 4.74852 5.91968 4.4383 6.10598C3.99443 6.37246 3.60564 6.70374 3.27436 7.10225C2.88719 7.56717 2.58912 8.08313 2.41984 8.66631C2.3437 8.92955 2.27323 9.19766 2.2384 9.46819C2.16955 10.0012 2.19547 10.5317 2.3194 11.0582C2.40526 11.4251 2.52594 11.7774 2.69523 12.1119C2.95766 12.6287 3.30595 13.0823 3.7401 13.4687C4.31032 13.9757 4.96721 14.3191 5.7051 14.5054C6.05906 14.5945 6.42031 14.6407 6.73944 14.6285V14.6302Z" fill="#DBDBDB"/>
<path d="M16.046 18.076C15.5908 18.0809 15.1413 18.0242 14.6999 17.9165C14.1005 17.7698 13.5367 17.535 13.024 17.1891C12.7648 17.0149 12.5137 16.8254 12.2748 16.6245C12.0674 16.4504 12.0415 16.1653 12.1574 15.9385C12.2797 15.6987 12.5486 15.5643 12.807 15.6307C12.9204 15.6599 13.0248 15.7344 13.1253 15.8016C13.3942 15.9814 13.6477 16.1872 13.928 16.3459C14.1693 16.4828 14.4342 16.5816 14.6958 16.6764C15.2928 16.8926 15.914 16.9064 16.5385 16.8651C16.6074 16.8602 16.6754 16.8424 16.7443 16.8343C17.0091 16.8011 17.2254 16.8805 17.3768 17.1097C17.5866 17.4264 17.4141 17.8897 17.0456 17.9813C16.7175 18.0631 16.3814 18.0744 16.0444 18.0752L16.046 18.076Z" fill="#DBDBDB"/>
<path d="M17.56 15.3711C17.176 15.3719 16.8869 14.9985 16.9889 14.6307C17.0432 14.4363 17.095 14.2403 17.1566 14.0484C17.2238 13.8386 17.4433 13.6515 17.726 13.6563C18.0905 13.6636 18.3667 14.0046 18.2971 14.3594C18.2695 14.4979 18.225 14.6324 18.182 14.7668C18.1464 14.877 18.114 14.9904 18.0589 15.0908C17.9625 15.2666 17.7609 15.3711 17.56 15.3711Z" fill="#DBDBDB"/>
<path d="M14.2737 13.0823C14.2478 13.1924 14.2267 13.3042 14.196 13.4127C14.153 13.5618 14.1133 13.7124 14.0526 13.855C13.9619 14.0672 13.7845 14.1782 13.5585 14.196C13.3544 14.2122 13.1827 14.1304 13.0555 13.97C12.9065 13.7821 12.9081 13.5723 12.9745 13.3536C13.0174 13.2135 13.0612 13.0726 13.0968 12.93C13.1592 12.6813 13.4054 12.4772 13.6614 12.478C13.9862 12.478 14.2729 12.7299 14.2745 13.0823H14.2737Z" fill="#DBDBDB"/>
<path d="M6.43244 13.4056C6.09063 13.3724 5.77069 13.3522 5.4548 13.3076C5.23611 13.2768 5.01903 13.2226 4.80601 13.161C4.51847 13.0784 4.35971 12.6937 4.46258 12.4102C4.56464 12.1291 4.91374 11.9622 5.20938 12.0441C5.67674 12.1728 6.15867 12.2336 6.64547 12.2012C7.03426 12.1753 7.41494 12.1064 7.78672 11.9801C8.20953 11.8359 8.59913 11.6302 8.97253 11.388C9.24063 11.2138 9.55814 11.2535 9.75739 11.4811C9.99067 11.7484 9.94288 12.1566 9.64886 12.3583C9.28923 12.6046 8.90854 12.8119 8.50355 12.9771C8.14797 13.1229 7.78267 13.2388 7.40522 13.3003C7.07718 13.3538 6.74347 13.3732 6.43244 13.4056Z" fill="#DBDBDB"/>
<path d="M5.2272 9.8837C5.21343 10.168 5.06358 10.4215 4.71772 10.496C4.49093 10.5446 4.18071 10.3875 4.09323 10.1518C4.03734 9.99953 4.0179 9.83429 3.98469 9.67473C3.97011 9.60669 3.96201 9.53784 3.95067 9.4698C3.87292 9.02513 4.30544 8.66469 4.69909 8.79509C4.96233 8.88257 5.09193 9.06643 5.13405 9.32806C5.15754 9.47304 5.18427 9.61803 5.20857 9.76301C5.21667 9.80918 5.22234 9.85616 5.2272 9.88451V9.8837Z" fill="#DBDBDB"/>
<path d="M8.68173 8.05243C8.9312 8.04514 9.20417 8.25331 9.24791 8.49549C9.28678 8.70851 9.33133 8.92073 9.35887 9.13456C9.40747 9.51525 9.06728 9.83033 8.68821 9.77768C8.42173 9.74042 8.21195 9.50229 8.1836 9.25444C8.1674 9.11107 8.13743 8.96933 8.10503 8.8292C8.02565 8.48253 8.19494 8.17636 8.53432 8.07268C8.58129 8.0581 8.63232 8.05891 8.68173 8.05243Z" fill="#DBDBDB"/>
<path d="M23.3601 6.54657H21.4534V4.63988C21.4534 4.28592 21.1675 4 20.8135 4C20.4596 4 20.1736 4.28592 20.1736 4.63988V6.54657H18.267C17.913 6.54657 17.6271 6.83249 17.6271 7.18645C17.6271 7.54041 17.913 7.82633 18.267 7.82633H20.1736V9.73301C20.1736 10.087 20.4596 10.3729 20.8135 10.3729C21.1675 10.3729 21.4534 10.087 21.4534 9.73301V7.82633H23.3601C23.714 7.82633 24 7.54041 24 7.18645C24 6.83249 23.714 6.54657 23.3601 6.54657Z" fill="#DBDBDB"/>
</svg>
