<?xml version="1.0" encoding="utf-8"?>
<svg viewBox="0 0 24 24" fill="none" xmlns="http://www.w3.org/2000/svg">
  <path d="M 8.932 16.552 C 8.594 16.4 8.214 16.467 7.936 16.743 C 7.317 17.358 6.701 17.977 6.084 18.593 C 6.038 18.638 5.991 18.681 5.913 18.752 L 5.913 2.446 C 5.937 2.184 5.424 2.173 4.962 2.157 C 4.474 2.141 4.096 2.296 4.082 2.606 L 4.082 18.751 C 4.012 18.686 3.966 18.646 3.923 18.603 C 3.305 17.986 2.69 17.368 2.071 16.752 C 1.703 16.383 1.162 16.375 0.8 16.727 C 0.442 17.074 0.43 17.634 0.795 18 C 1.982 19.195 3.173 20.386 4.368 21.573 C 4.737 21.938 5.273 21.932 5.642 21.566 C 6.833 20.383 8.017 19.194 9.203 18.007 C 9.359 17.851 9.45 17.658 9.465 17.435 C 9.489 17.051 9.283 16.713 8.933 16.555 L 8.932 16.552 Z" fill="#2F2F2F" style="" transform="matrix(0.9999999999999999, 0, 0, 0.9999999999999999, 0, 0)"/>
  <path d="M 20.59 8.921 L 16.011 8.921 L 15.68 10.192 L 13.139 10.192 L 15.255 2.18 L 21.356 2.18 L 23.474 10.193 L 20.922 10.193 L 20.59 8.921 Z M 20.006 6.689 L 19.411 4.388 L 17.179 4.388 L 16.583 6.689 L 20.006 6.689 Z" fill="#2F2F2F" style="" transform="matrix(0.9999999999999999, 0, 0, 0.9999999999999999, 0, 0)"/>
  <path d="M 22.611 14.219 L 17.872 17.813 L 22.611 17.813 L 22.611 20.023 L 13.957 20.023 L 13.957 17.813 L 18.593 14.219 L 13.957 14.219 L 13.957 12.009 L 22.611 12.009 L 22.611 14.219 Z" fill="#2F2F2F" style="" transform="matrix(0.9999999999999999, 0, 0, 0.9999999999999999, 0, 0)"/>
</svg>
