<?xml version="1.0" encoding="utf-8"?>
<svg viewBox="0 0 24 24" fill="none" xmlns="http://www.w3.org/2000/svg">
  <path d="M 16.593 15.319 L 13.95 12.038 C 13.872 11.941 13.829 11.821 13.827 11.697 L 13.768 7.435 C 13.762 7.035 13.377 6.716 12.909 6.723 C 12.44 6.73 12.065 7.059 12.07 7.459 L 12.136 12.225 C 12.136 12.251 12.137 12.273 12.142 12.299 C 12.15 12.433 12.194 12.566 12.281 12.673 L 15.272 16.385 C 15.523 16.696 16.022 16.71 16.386 16.416 C 16.751 16.121 16.844 15.63 16.593 15.319 Z" fill="#2F2F2F" style="" transform="matrix(0.9999999999999999, 0, 0, 0.9999999999999999, 0, 0)"/>
  <path d="M 1.049 17.397 C 2.391 18.179 3.735 18.957 5.079 19.736 C 5.511 19.986 6.001 19.857 6.254 19.428 C 6.521 18.974 6.782 18.517 7.046 18.062 C 7.564 17.17 8.083 16.277 8.598 15.383 C 8.795 15.043 8.762 14.675 8.524 14.399 C 8.146 13.961 7.471 14.016 7.169 14.523 C 6.746 15.233 6.336 15.951 5.921 16.666 C 5.894 16.712 5.862 16.755 5.821 16.818 L 5.141 14.26 C 5.141 14.26 5.14 14.253 5.139 14.249 C 5.139 14.245 5.139 14.239 5.139 14.235 C 5.139 14.233 5.137 14.23 5.134 14.227 C 4.003 9.77 6.672 5.208 11.126 4.024 C 15.61 2.832 20.228 5.512 21.42 9.997 C 22.611 14.48 19.932 19.099 15.448 20.289 C 14.996 20.409 14.725 20.874 14.846 21.327 C 14.967 21.779 15.431 22.05 15.884 21.929 C 21.273 20.497 24.492 14.948 23.061 9.56 C 21.629 4.172 16.08 0.95 10.692 2.382 C 5.4 3.787 2.211 9.164 3.453 14.46 C 3.453 14.532 3.446 14.605 3.465 14.677 C 3.473 14.706 3.492 14.727 3.504 14.754 L 4.17 17.262 C 4.08 17.213 4.029 17.188 3.98 17.16 C 3.279 16.754 2.579 16.344 1.875 15.941 C 1.487 15.719 1.038 15.803 0.782 16.136 C 0.458 16.558 0.574 17.117 1.049 17.393 L 1.049 17.397 Z" fill="#2F2F2F" style="" transform="matrix(0.9999999999999999, 0, 0, 0.9999999999999999, 0, 0)"/>
</svg>
