<svg width="28" height="21" viewBox="0 0 28 21" fill="none" xmlns="http://www.w3.org/2000/svg">
<path d="M12.9067 14.8577C12.2215 15.163 11.5069 15.371 10.7696 15.4963C9.76842 15.6656 8.7632 15.6803 7.76332 15.4936C7.25804 15.399 6.75543 15.279 6.26215 15.131C5.83553 15.003 5.61023 14.5897 5.63689 14.1724C5.66489 13.7311 5.98218 13.3525 6.4168 13.2832C6.60745 13.2525 6.81409 13.2979 7.00873 13.3339C7.53267 13.4298 8.04995 13.5738 8.57789 13.6312C9.03117 13.6805 9.49645 13.6565 9.95373 13.6285C10.9976 13.5645 11.9442 13.1792 12.8614 12.7086C12.9627 12.6566 13.0534 12.5846 13.152 12.5273C13.5307 12.3033 13.9093 12.282 14.2879 12.5299C14.8119 12.8712 14.8545 13.6831 14.3572 14.0631C13.9146 14.4017 13.4147 14.639 12.9067 14.8603V14.8577Z" fill="#2F2F2F"/>
<path d="M13.4254 9.78225C12.8454 10.0356 12.1655 9.65959 12.0789 9.037C12.0335 8.7077 11.9842 8.3784 11.9522 8.04777C11.9175 7.68782 12.1255 7.25986 12.5561 7.08388C13.1121 6.85591 13.752 7.19054 13.8787 7.7718C13.928 7.99845 13.948 8.23176 13.9706 8.4624C13.9893 8.65171 14.0133 8.84502 13.996 9.03167C13.9653 9.35963 13.7307 9.64893 13.4267 9.78091L13.4254 9.78225Z" fill="#2F2F2F"/>
<path d="M6.96474 8.47444C6.99807 8.65708 7.0394 8.83973 7.0634 9.02505C7.0954 9.27835 7.13406 9.53299 7.13539 9.78629C7.13673 10.1662 6.94208 10.4502 6.61145 10.6249C6.31415 10.7822 6.00085 10.7715 5.70355 10.6115C5.35692 10.4249 5.22094 10.1076 5.17828 9.7343C5.15161 9.49432 5.12495 9.25302 5.08629 9.01571C5.01829 8.59976 5.25561 8.13048 5.64356 7.96383C6.13551 7.75185 6.73277 7.94516 6.96474 8.47444Z" fill="#2F2F2F"/>
<path d="M6.48594 3.55972C10.3628 1.88124 14.8823 3.67037 16.5595 7.54593C18.2366 11.4215 16.4488 15.9423 12.5732 17.6208C8.69769 19.2993 4.17686 17.5101 2.49839 13.6346C0.81991 9.75902 2.61038 5.23819 6.48594 3.55972ZM5.74469 1.84658C0.9159 3.93701 -1.30385 9.54704 0.786579 14.3758C2.87701 19.2046 8.48571 21.4244 13.3158 19.3339C18.146 17.2435 20.3644 11.6335 18.2739 6.80601C16.1835 1.97856 10.5748 -0.242521 5.74602 1.84791L5.74469 1.84658Z" fill="#2F2F2F"/>
<path d="M26.7691 1.99977H18.1327C17.5808 1.99977 17.1328 1.55182 17.1328 0.999887C17.1328 0.447949 17.5808 0 18.1327 0H26.7691C27.321 0 27.7689 0.447949 27.7689 0.999887C27.7689 1.55182 27.321 1.99977 26.7691 1.99977Z" fill="#2F2F2F"/>
</svg>
