<?xml version="1.0" encoding="utf-8"?>
<svg viewBox="0 0 24 24" fill="none" xmlns="http://www.w3.org/2000/svg">
  <path d="M 15.202 15.646 L 12.325 12.075 C 12.24 11.969 12.193 11.839 12.19 11.703 L 12.127 7.064 C 12.121 6.63 11.702 6.283 11.192 6.29 C 10.682 6.298 10.273 6.656 10.279 7.09 L 10.351 12.278 C 10.351 12.306 10.352 12.33 10.357 12.358 C 10.366 12.505 10.413 12.648 10.509 12.766 L 13.764 16.805 C 14.037 17.144 14.58 17.159 14.977 16.839 C 15.374 16.519 15.474 15.984 15.202 15.646 Z" fill="#2F2F2F" style=""/>
  <path d="M 23.427 3.661 C 23.382 5.351 23.336 7.04 23.288 8.73 C 23.272 9.273 22.873 9.654 22.331 9.641 C 21.758 9.629 21.186 9.609 20.613 9.593 C 19.491 9.562 18.367 9.533 17.244 9.5 C 16.816 9.486 16.495 9.246 16.375 8.868 C 16.185 8.269 16.622 7.676 17.264 7.686 C 18.163 7.699 19.063 7.732 19.962 7.755 C 20.02 7.755 20.08 7.753 20.161 7.75 L 18.18 5.657 C 18.18 5.657 18.175 5.652 18.171 5.65 C 18.168 5.647 18.162 5.645 18.158 5.641 C 18.155 5.638 18.154 5.636 18.153 5.634 C 14.674 2.037 8.923 1.898 5.279 5.347 C 1.611 8.818 1.451 14.625 4.922 18.293 C 8.393 21.962 14.201 22.122 17.868 18.651 C 18.238 18.3 18.824 18.317 19.173 18.687 C 19.523 19.056 19.507 19.642 19.137 19.992 C 14.729 24.162 7.75 23.969 3.579 19.562 C -0.592 15.154 -0.399 8.174 4.008 4.003 C 8.337 -0.093 15.138 0.03 19.332 4.207 C 19.399 4.249 19.47 4.284 19.527 4.344 C 19.549 4.367 19.558 4.398 19.576 4.424 L 21.518 6.477 C 21.524 6.364 21.531 6.304 21.533 6.241 C 21.557 5.359 21.578 4.478 21.608 3.596 C 21.624 3.109 21.96 2.74 22.414 2.696 C 22.99 2.636 23.44 3.064 23.424 3.662 L 23.427 3.661 Z" fill="#2F2F2F" style=""/>
</svg>
