<?xml version="1.0" encoding="utf-8"?>
<svg viewBox="0 0 24 24" fill="none" xmlns="http://www.w3.org/2000/svg">
  <path d="M 8.934 16.549 C 8.596 16.396 8.217 16.463 7.939 16.739 C 7.32 17.353 6.705 17.972 6.089 18.587 C 6.043 18.632 5.996 18.675 5.918 18.746 L 5.918 2.457 C 5.943 2.195 5.429 2.183 4.968 2.168 C 4.481 2.151 4.104 2.306 4.089 2.616 L 4.089 18.744 C 4.019 18.679 3.973 18.639 3.93 18.596 C 3.313 17.979 2.698 17.362 2.081 16.747 C 1.712 16.378 1.172 16.37 0.81 16.722 C 0.453 17.069 0.441 17.628 0.806 17.994 C 1.991 19.188 3.181 20.377 4.375 21.562 C 4.743 21.928 5.279 21.921 5.647 21.556 C 6.837 20.374 8.02 19.187 9.205 18 C 9.361 17.844 9.451 17.652 9.466 17.429 C 9.49 17.045 9.284 16.708 8.935 16.55 L 8.934 16.549 Z" fill="#2F2F2F" style=""/>
  <path d="M 20.579 19.409 L 16.005 19.409 L 15.675 20.679 L 13.136 20.679 L 15.252 12.674 L 21.347 12.674 L 23.463 20.679 L 20.913 20.679 L 20.581 19.409 L 20.579 19.409 Z M 19.996 17.18 L 19.402 14.881 L 17.172 14.881 L 16.576 17.18 L 19.996 17.18 Z" fill="#2F2F2F" style=""/>
  <path d="M 22.598 4.378 L 17.864 7.968 L 22.598 7.968 L 22.598 10.176 L 13.954 10.176 L 13.954 7.968 L 18.585 4.378 L 13.954 4.378 L 13.954 2.171 L 22.598 2.171 L 22.598 4.378 Z" fill="#2F2F2F" style=""/>
</svg>
