<svg width="26" height="25" viewBox="0 0 26 25" fill="none" xmlns="http://www.w3.org/2000/svg">
<path d="M16.2348 16.542L13.1205 12.6771C13.0285 12.5625 12.9778 12.4212 12.9752 12.2745L12.9059 7.25374C12.8992 6.78312 12.4459 6.40717 11.894 6.41516C11.342 6.42316 10.8994 6.81112 10.9061 7.28173L10.9834 12.8971C10.9834 12.9278 10.9847 12.9531 10.9901 12.9838C10.9994 13.1424 11.0514 13.2984 11.1541 13.425L14.6777 17.7979C14.9736 18.1645 15.5616 18.1805 15.9908 17.8339C16.4201 17.4872 16.5294 16.9086 16.2348 16.542Z" fill="#DBDBDB"/>
<path d="M25.1379 3.56909C25.0899 5.39821 25.0392 7.22734 24.9872 9.05647C24.9699 9.6444 24.5379 10.0564 23.9513 10.043C23.3314 10.0297 22.7115 10.0084 22.0916 9.99103C20.877 9.9577 19.6612 9.9257 18.4453 9.88971C17.9813 9.87504 17.6334 9.61507 17.5041 9.20578C17.2988 8.55652 17.772 7.91526 18.4666 7.92593C19.4399 7.94059 20.4144 7.97526 21.3876 8.00059C21.4503 8.00192 21.5143 7.99792 21.6023 7.99525L19.4585 5.73018C19.4585 5.73018 19.4532 5.72484 19.4492 5.72218C19.4452 5.71951 19.4385 5.71685 19.4345 5.71285C19.4319 5.71018 19.4305 5.70751 19.4292 5.70485C15.6629 1.81195 9.43698 1.6613 5.49343 5.39422C1.52321 9.15112 1.34989 15.4384 5.1068 19.4086C8.86371 23.3789 15.151 23.5522 19.1199 19.7953C19.5212 19.4153 20.1544 19.434 20.5331 19.8339C20.9117 20.2339 20.8944 20.8685 20.4944 21.2471C15.7229 25.7612 8.16779 25.5533 3.65363 20.7818C-0.861856 16.0103 -0.652546 8.4552 4.11758 3.93971C8.80372 -0.494453 16.1656 -0.361135 20.705 4.16102C20.7784 4.20635 20.8544 4.24368 20.9157 4.309C20.9397 4.33433 20.949 4.36766 20.9703 4.39566L23.0714 6.61674C23.0781 6.49542 23.0848 6.4301 23.0874 6.36211C23.1141 5.40755 23.1368 4.45299 23.1688 3.49843C23.1861 2.97182 23.5501 2.5732 24.0407 2.52387C24.6646 2.45988 25.1525 2.92249 25.1352 3.57042L25.1379 3.56909Z" fill="#DBDBDB"/>
</svg>
