<?xml version="1.0" encoding="utf-8"?>
<svg viewBox="0 0 24 24" fill="none" xmlns="http://www.w3.org/2000/svg">
  <path d="M 11.185 15.999 C 10.613 16.254 10.018 16.427 9.403 16.532 C 8.568 16.673 7.73 16.685 6.897 16.529 C 6.476 16.45 6.057 16.35 5.645 16.227 C 5.29 16.12 5.102 15.776 5.124 15.428 C 5.148 15.06 5.412 14.744 5.774 14.687 C 5.933 14.661 6.106 14.699 6.268 14.729 C 6.705 14.809 7.136 14.929 7.576 14.977 C 7.954 15.018 8.342 14.998 8.723 14.974 C 9.593 14.921 10.382 14.6 11.147 14.208 C 11.231 14.164 11.307 14.104 11.389 14.056 C 11.705 13.87 12.021 13.852 12.336 14.059 C 12.773 14.343 12.808 15.02 12.394 15.337 C 12.025 15.619 11.608 15.817 11.185 16.001 L 11.185 15.999 Z" fill="#2F2F2F" style="" transform="matrix(1, 0, 0, 1, 8.881784197001252e-16, 0)"/>
  <path d="M 11.617 11.768 C 11.134 11.979 10.567 11.666 10.495 11.147 C 10.457 10.872 10.416 10.598 10.389 10.322 C 10.36 10.022 10.533 9.665 10.892 9.518 C 11.356 9.328 11.889 9.607 11.995 10.092 C 12.036 10.281 12.053 10.475 12.072 10.668 C 12.087 10.826 12.107 10.987 12.093 11.142 C 12.067 11.416 11.872 11.657 11.618 11.767 L 11.617 11.768 Z" fill="#2F2F2F" style="" transform="matrix(1, 0, 0, 1, 8.881784197001252e-16, 0)"/>
  <path d="M 6.231 10.678 C 6.259 10.83 6.293 10.982 6.313 11.137 C 6.34 11.348 6.372 11.56 6.373 11.771 C 6.375 12.088 6.212 12.325 5.937 12.47 C 5.689 12.602 5.428 12.593 5.18 12.459 C 4.891 12.304 4.777 12.039 4.742 11.728 C 4.72 11.528 4.697 11.327 4.665 11.129 C 4.609 10.782 4.806 10.391 5.13 10.252 C 5.54 10.075 6.038 10.237 6.231 10.678 Z" fill="#2F2F2F" style="" transform="matrix(1, 0, 0, 1, 8.881784197001252e-16, 0)"/>
  <path d="M 5.832 6.581 C 9.064 5.181 12.832 6.673 14.23 9.904 C 15.628 13.135 14.138 16.903 10.907 18.303 C 7.676 19.702 3.907 18.21 2.508 14.98 C 1.109 11.749 2.601 7.98 5.832 6.581 Z M 5.214 5.152 C 1.189 6.895 -0.662 11.572 1.081 15.597 C 2.823 19.623 7.499 21.474 11.526 19.731 C 15.552 17.988 17.402 13.311 15.659 9.287 C 13.916 5.262 9.241 3.411 5.215 5.154 L 5.214 5.152 Z" fill="#2F2F2F" style="" transform="matrix(1, 0, 0, 1, 8.881784197001252e-16, 0)"/>
  <path d="M 22.741 5.28 L 15.541 5.28 C 15.081 5.28 14.708 4.907 14.708 4.447 C 14.708 3.986 15.081 3.613 15.541 3.613 L 22.741 3.613 C 23.201 3.613 23.575 3.986 23.575 4.447 C 23.575 4.907 23.201 5.28 22.741 5.28 Z" fill="#2F2F2F" style="" transform="matrix(1, 0, 0, 1, 8.881784197001252e-16, 0)"/>
</svg>
