<svg width="24" height="24" viewBox="0 0 24 24" fill="none" xmlns="http://www.w3.org/2000/svg">
<rect width="24" height="24" />
<path d="M16.6119 19.1699C16.6119 19.0878 16.6119 19.0045 16.6119 18.9224C16.6119 15.9414 16.6119 12.9603 16.6107 9.97806C16.6107 9.60109 16.679 9.25766 16.9865 9.00095C17.308 8.73152 17.6723 8.67139 18.0562 8.81477C18.4574 8.9651 18.6771 9.27963 18.7338 9.70285C18.7477 9.80345 18.7419 9.90868 18.7419 10.0104C18.7419 13.0042 18.7419 15.9969 18.7419 18.9907C18.7419 19.067 18.7419 19.1421 18.7419 19.2185C18.7569 19.2242 18.772 19.23 18.787 19.2358C18.8413 19.1849 18.898 19.1352 18.95 19.082C19.6508 18.3813 20.3515 17.6817 21.0488 16.9786C21.2489 16.7774 21.4709 16.6144 21.7565 16.5693C22.2583 16.4918 22.655 16.6872 22.8793 17.1116C23.0932 17.5175 23.0273 17.9927 22.6804 18.3466C22.1011 18.9375 21.5137 19.5203 20.9239 20.1007C20.584 20.4349 20.2544 20.7853 19.8855 21.0836C18.5534 22.1579 16.5148 22.0897 15.2752 20.9171C14.3975 20.0869 13.5545 19.2208 12.7 18.3662C12.2629 17.9291 12.2513 17.2804 12.663 16.8537C13.0665 16.4351 13.7361 16.4236 14.1801 16.8445C14.5837 17.2261 14.9699 17.6262 15.363 18.0182C15.7134 18.3674 16.0626 18.7178 16.4142 19.0681C16.4593 19.1121 16.5078 19.1525 16.5541 19.1953C16.5737 19.1861 16.5934 19.178 16.613 19.1687L16.6119 19.1699Z" fill="#DBDBDB"/>
<path d="M10.7504 4.13925C7.89658 4.13925 5.0427 4.13925 2.18768 4.13925C1.75289 4.13925 1.38864 3.99817 1.15968 3.61426C0.731834 2.89733 1.20709 2.06244 2.06973 2.00347C2.1183 2 2.16686 2.00116 2.21427 2.00116C7.90467 2 13.5951 2 19.2855 2C19.6289 2 19.9457 2.06938 20.1944 2.32956C20.495 2.64409 20.5725 3.02221 20.4349 3.42C20.2822 3.86057 19.9376 4.08837 19.4763 4.13462C19.3861 4.14387 19.2947 4.13925 19.2045 4.13925C16.3865 4.13925 13.5685 4.13925 10.7504 4.13925Z" fill="#DBDBDB"/>
<path d="M6.32507 12.2915C4.93977 12.2915 3.55562 12.2915 2.17031 12.2915C1.70546 12.2915 1.33774 12.1157 1.11456 11.689C0.809287 11.1051 1.1585 10.3431 1.80143 10.202C1.92979 10.1731 2.06393 10.1557 2.19575 10.1557C4.94786 10.1534 7.69882 10.1534 10.4509 10.1546C10.9921 10.1546 11.3968 10.4032 11.5552 10.8206C11.8143 11.5087 11.4014 12.1851 10.6614 12.2811C10.5723 12.2927 10.481 12.2927 10.3896 12.2927C9.03556 12.2927 7.68032 12.2927 6.32623 12.2927L6.32507 12.2915Z" fill="#DBDBDB"/>
<path d="M4.72226 20.4435C3.87003 20.4435 3.01664 20.4458 2.16441 20.4435C1.73772 20.4424 1.38041 20.2932 1.15608 19.9139C0.73401 19.1993 1.22662 18.3378 2.07653 18.3066C2.40262 18.295 2.72987 18.3043 3.05596 18.3043C4.47133 18.3043 5.8867 18.3043 7.30208 18.3043C7.75421 18.3043 8.11846 18.4824 8.32776 18.8952C8.7001 19.6271 8.17512 20.432 7.31711 20.4412C6.45216 20.4505 5.58721 20.4435 4.72226 20.4435Z" fill="#DBDBDB"/>
</svg>
