<svg width="33" height="20" viewBox="0 0 33 20" fill="none" xmlns="http://www.w3.org/2000/svg">
<path d="M9.10599 0.000870323C13.3788 0.000870323 17.6517 -0.0017955 21.9245 0.00220405C23.0537 0.00220405 23.871 0.518146 24.3243 1.55536C24.4403 1.82067 24.4936 2.12863 24.5109 2.4206C24.5402 2.92721 24.5243 3.43782 24.5189 3.94576C24.5136 4.53236 24.0736 4.98831 23.4884 5.02297C22.9444 5.05497 22.4365 4.63635 22.3912 4.06708C22.3538 3.6018 22.3738 3.13252 22.3698 2.66457C22.3672 2.25662 22.2592 2.14863 21.8485 2.14729C13.3575 2.14729 11.1738 2.14729 2.68271 2.14729C2.26143 2.14729 2.15744 2.25262 2.15611 2.6779C2.15611 3.09119 2.16411 7.22672 2.15211 7.64001C2.13478 8.22661 1.80682 8.6119 1.24555 8.72522C0.666946 8.84254 0.0323455 8.36526 0.0150141 7.77466C-0.00231729 7.17206 -0.0089854 2.84455 0.0190114 2.24328C0.0643397 1.29139 0.864251 0.343498 1.81214 0.106192C2.08545 0.0381994 2.37342 0.00487022 2.65472 0.00487022C6.90757 -0.0017957 4.85314 0.000870323 9.10599 0.000870323Z" fill="#2F2F2F"/>
<path d="M9.10596 19.3468C4.83978 19.3468 6.88222 19.3455 2.61603 19.3468C1.72814 19.3468 1.00688 19.0188 0.477605 18.3016C0.172306 17.8883 0.00832837 17.419 0.00699519 16.9004C0.005662 16.3991 0.00299564 12.7515 0.00699519 12.2503C0.0123279 11.6637 0.460279 11.205 1.04155 11.1797C1.59615 11.1557 2.09209 11.569 2.13476 12.1383C2.16942 12.6035 2.15075 16.2178 2.15475 16.6858C2.15742 17.0844 2.26807 17.1977 2.66136 17.1977C11.1657 17.1977 13.3628 17.1977 21.8672 17.1977C22.2511 17.1977 22.3671 17.083 22.3685 16.7017C22.3698 16.2751 22.3618 15.8472 22.3725 15.4206C22.3858 14.878 22.7004 14.478 23.1857 14.3647C23.683 14.2474 24.1589 14.4473 24.3869 14.8966C24.4629 15.0473 24.5069 15.2299 24.5136 15.4006C24.5309 15.8752 24.5216 16.3498 24.5189 16.8244C24.5109 18.2242 23.4483 19.3068 22.0458 19.3441C21.8019 19.3508 21.5579 19.3455 21.3139 19.3455C17.245 19.3455 13.1762 19.3455 9.10596 19.3455V19.3468Z" fill="#2F2F2F"/>
<path d="M16.2319 10.6024C16.2572 10.6024 16.2772 10.5904 16.3012 10.5891H29.1677C29.0891 10.6731 29.0397 10.7291 28.9878 10.7811C28.2452 11.5237 27.5012 12.2649 26.7587 13.0088C26.316 13.4528 26.3054 14.1034 26.7293 14.5393C27.1466 14.97 27.8199 14.9833 28.2625 14.5447C29.701 13.1168 31.1342 11.6837 32.562 10.2452C33.002 9.8012 32.994 9.15594 32.554 8.71199C31.1302 7.27882 29.6997 5.85232 28.2705 4.42581C28.0812 4.23783 27.8492 4.12851 27.5826 4.11118C27.12 4.08052 26.712 4.32982 26.5214 4.75111C26.3374 5.15773 26.42 5.61501 26.752 5.94964C27.4919 6.69489 28.2372 7.43614 28.9784 8.17872C29.0331 8.23338 29.0837 8.29071 29.1704 8.3827H16.2932C16.2719 8.3827 16.2545 8.3707 16.2332 8.3707C15.6173 8.3707 15.1187 8.87064 15.1187 9.48524C15.1187 10.0998 15.6186 10.5998 16.2332 10.5998L16.2319 10.6024Z" fill="#2F2F2F"/>
</svg>
