<svg width="24" height="24" viewBox="0 0 24 24" fill="none" xmlns="http://www.w3.org/2000/svg">
<rect width="24" height="24" />
<path d="M10.1815 16.7744C9.85262 16.6256 9.48279 16.6914 9.21215 16.9599C8.60943 17.5583 8.00993 18.161 7.40936 18.7605C7.36515 18.8047 7.31879 18.8468 7.24331 18.9158V3.04431C7.26703 2.78877 6.76674 2.77799 6.31712 2.76289C5.8427 2.74672 5.47502 2.89767 5.461 3.19958V18.9147C5.39308 18.8511 5.34779 18.8123 5.30574 18.7702C4.70517 18.1697 4.10567 17.568 3.50402 16.9685C3.14498 16.6095 2.6188 16.6019 2.26622 16.9448C1.91795 17.2823 1.90609 17.8268 2.26191 18.1837C3.41669 19.3471 4.57578 20.5062 5.73919 21.661C6.09824 22.0168 6.6201 22.0103 6.97915 21.6545C8.13824 20.5029 9.29086 19.346 10.4456 18.1901C10.5977 18.0381 10.6861 17.8505 10.7001 17.6338C10.7238 17.2596 10.5233 16.9308 10.1826 16.7766L10.1815 16.7744Z" fill="#DBDBDB"/>
<path d="M16.4235 18.364C14.3123 18.1127 13.0077 16.8544 12.5591 15.3126C12.4869 15.0635 12.6497 14.8037 12.8977 14.7303L14.4482 14.2743C14.6875 14.2042 14.9409 14.3249 15.0293 14.5578C15.3248 15.3374 16.1183 15.9132 17.2505 15.9132C18.5788 15.9132 19.3217 15.3956 19.3217 14.6527C19.3217 13.9982 18.8214 13.6694 18.1314 13.4969L16.251 13.0311C14.542 12.6159 12.9376 11.6326 12.9376 9.42331C12.9376 7.76608 14.2314 6.21344 16.5442 5.93741C16.5442 5.93741 16.4795 4.86889 16.7146 4.63384C16.9691 4.37937 17.9567 4.43221 18.0958 4.59178C18.3168 4.84625 18.305 5.95574 18.305 5.95574C19.9633 6.22098 21.1957 7.15365 21.6432 8.59739C21.7219 8.85078 21.5515 9.1171 21.296 9.18611L19.7099 9.61308C19.4695 9.67778 19.2333 9.54515 19.132 9.31873C18.8937 8.78393 18.3341 8.30304 17.3033 8.30304C16.1819 8.30304 15.6126 8.85617 15.6126 9.42547C15.6126 10.0304 16.0795 10.3226 16.8903 10.5296L18.7546 11.0126C20.9811 11.5819 22.0001 12.7895 22.0001 14.6538C22.0001 16.4307 20.6717 18.0373 18.1853 18.364C18.1853 18.364 18.278 19.4012 18.0516 19.632C17.8952 19.7926 16.6973 19.8271 16.5518 19.6589C16.3404 19.4142 16.4256 18.364 16.4256 18.364H16.4235Z" fill="#DBDBDB"/>
</svg>
