<svg width="24" height="24" viewBox="0 0 24 24" fill="none" xmlns="http://www.w3.org/2000/svg">
<rect width="24" height="24" />
<path d="M11.9013 15.0958C11.4818 15.2827 11.0444 15.41 10.593 15.4867C9.98007 15.5904 9.36468 15.5993 8.75256 15.4851C8.44323 15.4271 8.13553 15.3537 7.83355 15.2631C7.57237 15.1847 7.43444 14.9317 7.45076 14.6763C7.4679 14.4061 7.66215 14.1743 7.92822 14.1319C8.04493 14.1131 8.17144 14.1408 8.2906 14.1629C8.61136 14.2216 8.92803 14.3098 9.25124 14.3449C9.52873 14.3751 9.81358 14.3604 10.0935 14.3433C10.7326 14.3041 11.3121 14.0682 11.8736 13.7801C11.9356 13.7483 11.9911 13.7042 12.0515 13.6691C12.2833 13.532 12.5151 13.5189 12.7469 13.6707C13.0676 13.8797 13.0938 14.3767 12.7893 14.6093C12.5184 14.8166 12.2123 14.9619 11.9013 15.0974V15.0958Z" fill="#2F2F2F"/>
<path d="M12.219 11.9886C11.8639 12.1437 11.4477 11.9135 11.3946 11.5323C11.3669 11.3308 11.3367 11.1292 11.3171 10.9268C11.2959 10.7064 11.4232 10.4444 11.6868 10.3367C12.0272 10.1971 12.4189 10.402 12.4965 10.7578C12.5267 10.8966 12.5389 11.0394 12.5528 11.1806C12.5642 11.2965 12.5789 11.4148 12.5683 11.5291C12.5495 11.7299 12.4059 11.907 12.2198 11.9878L12.219 11.9886Z" fill="#2F2F2F"/>
<path d="M8.26376 11.188C8.28417 11.2998 8.30947 11.4116 8.32416 11.5251C8.34375 11.6802 8.36742 11.8361 8.36823 11.9911C8.36905 12.2237 8.24989 12.3976 8.04748 12.5045C7.86547 12.6008 7.67367 12.5943 7.49167 12.4963C7.27946 12.3821 7.19621 12.1878 7.17009 11.9593C7.15377 11.8124 7.13745 11.6647 7.11378 11.5194C7.07215 11.2647 7.21743 10.9774 7.45494 10.8754C7.75611 10.7457 8.12175 10.864 8.26376 11.188Z" fill="#2F2F2F"/>
<path d="M7.97067 8.1788C10.3441 7.15124 13.1109 8.24654 14.1377 10.6191C15.1644 12.9918 14.0699 15.7594 11.6973 16.7869C9.3247 17.8145 6.55706 16.7192 5.5295 14.3466C4.50195 11.974 5.59806 9.20636 7.97067 8.1788ZM7.51688 7.13002C4.56071 8.40978 3.20179 11.8442 4.48154 14.8004C5.7613 17.7566 9.19492 19.1155 12.1519 17.8357C15.1089 16.556 16.467 13.1215 15.1872 10.1662C13.9075 7.21082 10.4739 5.85108 7.5177 7.13084L7.51688 7.13002Z" fill="#2F2F2F"/>
<path d="M20.3879 7.22426H15.1008C14.7629 7.22426 14.4886 6.95002 14.4886 6.61213C14.4886 6.27423 14.7629 6 15.1008 6H20.3879C20.7258 6 21.0001 6.27423 21.0001 6.61213C21.0001 6.95002 20.7258 7.22426 20.3879 7.22426Z" fill="#2F2F2F"/>
</svg>
