<svg width="38" height="28" viewBox="0 0 38 28" fill="none" xmlns="http://www.w3.org/2000/svg">
<path d="M14.344 18.8191C11.443 20.3069 8.50863 20.4669 5.56096 19.0657C3.27322 17.9778 1.6614 16.214 0.777499 13.837C-0.1144 11.4359 -0.063738 9.02818 0.978811 6.67912C1.9787 4.4247 3.62784 2.78889 5.88892 1.79567C7.2981 1.17574 8.77926 0.933098 10.3178 1.02909C11.8616 1.12508 13.2908 1.58236 14.6093 2.3836C15.9238 3.18218 16.9863 4.23806 17.7916 5.55258C18.5942 6.86443 19.0328 8.29493 19.1701 9.84009C21.8738 8.40025 24.6428 8.20028 27.4625 9.34015C29.8596 10.3094 31.5687 12.0292 32.5832 14.4022C33.5885 16.7526 33.6311 19.1524 32.7139 21.5361C31.7633 24.0065 30.0489 25.7996 27.6158 26.8355C24.6388 28.1034 21.6978 27.9101 18.9275 26.2462C16.1504 24.5798 14.7039 22.0294 14.3426 18.8204L14.344 18.8191ZM23.8336 10.5773C19.6634 10.5987 16.2718 13.9263 16.2984 18.1765C16.3237 22.3067 19.6407 25.7063 23.9096 25.6756C28.0198 25.6463 31.426 22.3453 31.398 18.0698C31.37 13.9463 28.0571 10.584 23.8336 10.5773ZM9.59651 18.0458C10.6884 18.0565 11.6603 17.8552 12.5962 17.4632C13.2628 17.1846 13.8707 16.8153 14.432 16.3647C14.476 16.33 14.5213 16.278 14.5333 16.226C14.6586 15.6781 14.8132 15.1408 15.0199 14.6169C15.2559 14.021 15.5492 13.457 15.8971 12.9197C16.2438 12.3851 16.6477 11.8972 17.0917 11.4426C17.133 11.3999 17.173 11.3386 17.181 11.2799C17.2063 11.0946 17.229 10.9066 17.2316 10.72C17.2476 9.60945 17.0583 8.53891 16.6157 7.51502C16.3397 6.87776 15.9918 6.28849 15.5532 5.75255C15.0372 5.12329 14.44 4.58602 13.7507 4.1474C13.1774 3.78211 12.5695 3.49681 11.9256 3.2875C11.3896 3.11285 10.8337 3.01686 10.2738 2.96887C9.30454 2.88488 8.35531 3.01153 7.42875 3.29416C6.86081 3.46748 6.31954 3.70878 5.80893 4.01542C5.07835 4.45403 4.43842 4.99931 3.89315 5.65523C3.25589 6.42048 2.76528 7.26972 2.48664 8.22961C2.36132 8.66289 2.24534 9.10418 2.18801 9.54946C2.07469 10.4267 2.11735 11.2999 2.32133 12.1665C2.46264 12.7704 2.66129 13.3504 2.93992 13.901C3.37187 14.7515 3.94514 15.4981 4.65973 16.134C5.59829 16.9686 6.6795 17.5339 7.89403 17.8405C8.47663 17.9872 9.07123 18.0632 9.59651 18.0432V18.0458Z" fill="#DBDBDB"/>
<path d="M24.9148 23.7173C24.1656 23.7253 23.4257 23.632 22.6991 23.4547C21.7125 23.2134 20.7846 22.8267 19.9407 22.2575C19.5141 21.9708 19.1008 21.6589 18.7075 21.3282C18.3662 21.0416 18.3236 20.5723 18.5142 20.199C18.7155 19.8044 19.1581 19.5831 19.5834 19.6924C19.7701 19.7404 19.9421 19.8631 20.1074 19.9737C20.55 20.2697 20.9673 20.6083 21.4286 20.8696C21.8258 21.0949 22.2618 21.2576 22.6924 21.4136C23.675 21.7695 24.6975 21.7922 25.7254 21.7242C25.8387 21.7162 25.9507 21.6869 26.064 21.6735C26.5 21.6189 26.8559 21.7495 27.1052 22.1268C27.4505 22.6481 27.1666 23.4107 26.56 23.5613C26.02 23.696 25.4668 23.7146 24.9122 23.716L24.9148 23.7173Z" fill="#DBDBDB"/>
<path d="M27.4066 19.2644C26.7746 19.2657 26.2987 18.6511 26.4667 18.0459C26.556 17.7259 26.6413 17.4033 26.7426 17.0873C26.8533 16.742 27.2146 16.434 27.6799 16.442C28.2798 16.454 28.7344 17.0153 28.6197 17.5992C28.5744 17.8272 28.5011 18.0485 28.4304 18.2698C28.3718 18.4512 28.3184 18.6378 28.2278 18.8031C28.0691 19.0924 27.7372 19.2644 27.4066 19.2644Z" fill="#DBDBDB"/>
<path d="M21.9977 15.4982C21.955 15.6795 21.9204 15.8635 21.8697 16.0422C21.7991 16.2875 21.7337 16.5354 21.6338 16.7701C21.4844 17.1194 21.1925 17.302 20.8205 17.3313C20.4845 17.358 20.2019 17.2234 19.9926 16.9594C19.7473 16.6501 19.75 16.3048 19.8593 15.9448C19.9299 15.7142 20.0019 15.4822 20.0606 15.2476C20.1633 14.8383 20.5685 14.5023 20.9898 14.5037C21.5244 14.5037 21.9964 14.9183 21.999 15.4982H21.9977Z" fill="#DBDBDB"/>
<path d="M9.09127 16.03C8.52867 15.9754 8.00206 15.942 7.48212 15.8687C7.12216 15.8181 6.76487 15.7287 6.41424 15.6274C5.94096 15.4914 5.67966 14.8582 5.84897 14.3916C6.01695 13.9289 6.59155 13.6543 7.07817 13.789C7.84741 14.0009 8.64065 14.1009 9.4419 14.0476C10.0818 14.0049 10.7084 13.8916 11.3204 13.6836C12.0163 13.4463 12.6575 13.1077 13.2721 12.7091C13.7134 12.4224 14.236 12.4878 14.564 12.8624C14.9479 13.3023 14.8693 13.9743 14.3853 14.3062C13.7934 14.7115 13.1668 15.0528 12.5002 15.3248C11.915 15.5648 11.3137 15.7554 10.6924 15.8567C10.1525 15.9447 9.60321 15.9767 9.09127 16.03Z" fill="#DBDBDB"/>
<path d="M7.10748 10.2335C7.08482 10.7014 6.83818 11.1187 6.26891 11.2414C5.89562 11.3214 5.38501 11.0627 5.24102 10.6748C5.14904 10.4241 5.11704 10.1522 5.06238 9.88954C5.03838 9.77755 5.02505 9.66423 5.00639 9.55224C4.8784 8.82032 5.59032 8.22706 6.23825 8.4417C6.67153 8.58568 6.88484 8.88832 6.95416 9.31893C6.99283 9.55757 7.03683 9.79622 7.07682 10.0349C7.09015 10.1108 7.09948 10.1882 7.10748 10.2348V10.2335Z" fill="#DBDBDB"/>
<path d="M12.7934 7.21906C13.204 7.20706 13.6533 7.54969 13.7253 7.94831C13.7893 8.29893 13.8626 8.64823 13.908 9.00019C13.988 9.62678 13.428 10.1454 12.8041 10.0587C12.3655 9.99741 12.0202 9.60545 11.9735 9.1975C11.9469 8.96153 11.8975 8.72822 11.8442 8.49758C11.7136 7.92698 11.9922 7.42303 12.5508 7.25239C12.6281 7.22839 12.7121 7.22972 12.7934 7.21906Z" fill="#DBDBDB"/>
<path d="M36.9534 4.74036H33.815V1.60204C33.815 1.01944 33.3444 0.548828 32.7618 0.548828C32.1792 0.548828 31.7086 1.01944 31.7086 1.60204V4.74036H28.5703C27.9877 4.74036 27.5171 5.21097 27.5171 5.79357C27.5171 6.37617 27.9877 6.84678 28.5703 6.84678H31.7086V9.9851C31.7086 10.5677 32.1792 11.0383 32.7618 11.0383C33.3444 11.0383 33.815 10.5677 33.815 9.9851V6.84678H36.9534C37.536 6.84678 38.0066 6.37617 38.0066 5.79357C38.0066 5.21097 37.536 4.74036 36.9534 4.74036Z" fill="#DBDBDB"/>
</svg>
