<svg width="26" height="23" viewBox="0 0 26 23" fill="none" xmlns="http://www.w3.org/2000/svg">
<path d="M17.972 19.765C17.972 19.6705 17.972 19.5747 17.972 19.4802C17.972 16.0484 17.972 12.6167 17.9707 9.18365C17.9707 8.74969 18.0492 8.35433 18.4033 8.05882C18.7734 7.74866 19.1927 7.67944 19.6346 7.8445C20.0965 8.01755 20.3494 8.37963 20.4147 8.86683C20.4306 8.98264 20.424 9.10378 20.424 9.22092C20.424 12.6673 20.424 16.1123 20.424 19.5587C20.424 19.6466 20.424 19.7331 20.424 19.8209C20.4413 19.8276 20.4586 19.8342 20.4759 19.8409C20.5385 19.7823 20.6037 19.7251 20.6636 19.6639C21.4703 18.8572 22.277 18.0518 23.0796 17.2425C23.3099 17.0109 23.5655 16.8232 23.8943 16.7712C24.472 16.6821 24.9286 16.907 25.1869 17.3956C25.4331 17.8628 25.3573 18.4099 24.9579 18.8172C24.291 19.4975 23.6148 20.1684 22.9359 20.8366C22.5445 21.2213 22.1651 21.6247 21.7405 21.9681C20.207 23.2047 17.8602 23.1262 16.4332 21.7764C15.4228 20.8206 14.4524 19.8236 13.4687 18.8399C12.9655 18.3367 12.9522 17.5899 13.4261 17.0987C13.8907 16.6168 14.6614 16.6035 15.1726 17.0881C15.6371 17.5273 16.0818 17.9879 16.5343 18.4392C16.9377 18.8412 17.3397 19.2445 17.7444 19.6479C17.7963 19.6985 17.8522 19.7451 17.9054 19.7943C17.9281 19.7837 17.9507 19.7743 17.9733 19.7637L17.972 19.765Z" fill="#DBDBDB"/>
<path d="M11.2245 2.46264C7.93915 2.46264 4.65385 2.46264 1.36722 2.46264C0.866707 2.46264 0.447392 2.30024 0.183823 1.8583C-0.308706 1.03298 0.2384 0.0718825 1.23144 0.00399347C1.28735 0 1.34326 0.00133116 1.39784 0.00133116C7.94847 0 14.4991 0 21.0497 0C21.4451 0 21.8098 0.0798695 22.096 0.37938C22.4421 0.741455 22.5313 1.17674 22.3729 1.63466C22.1972 2.14183 21.8005 2.40407 21.2694 2.45732C21.1655 2.46797 21.0604 2.46264 20.9565 2.46264C17.7125 2.46264 14.4685 2.46264 11.2245 2.46264Z" fill="#DBDBDB"/>
<path d="M6.12998 11.8473C4.53525 11.8473 2.94186 11.8473 1.34713 11.8473C0.812003 11.8473 0.388694 11.645 0.131781 11.1538C-0.219645 10.4816 0.182365 9.60433 0.922489 9.44193C1.07025 9.40865 1.22466 9.38868 1.37641 9.38868C4.54457 9.38602 7.7114 9.38602 10.8796 9.38735C11.5025 9.38735 11.9684 9.67355 12.1508 10.1541C12.449 10.9461 11.9738 11.7249 11.1218 11.8353C11.0193 11.8487 10.9142 11.8487 10.809 11.8487C9.25021 11.8487 7.6901 11.8487 6.13131 11.8487L6.12998 11.8473Z" fill="#DBDBDB"/>
<path d="M4.28498 21.2321C3.30392 21.2321 2.32152 21.2347 1.34046 21.2321C0.849261 21.2307 0.437933 21.059 0.179688 20.6224C-0.306185 19.7997 0.260889 18.808 1.23929 18.7721C1.61468 18.7588 1.99139 18.7694 2.36678 18.7694C3.99612 18.7694 5.62546 18.7694 7.25479 18.7694C7.77528 18.7694 8.19459 18.9744 8.43553 19.4496C8.86416 20.2923 8.25982 21.2187 7.2721 21.2294C6.27639 21.24 5.28069 21.2321 4.28498 21.2321Z" fill="#DBDBDB"/>
</svg>
