<svg width="34" height="21" viewBox="0 0 34 21" fill="none" xmlns="http://www.w3.org/2000/svg">
<path d="M9.69534 0.783097C13.9682 0.783097 18.241 0.780431 22.5139 0.784431C23.6431 0.784431 24.4603 1.30037 24.9136 2.33759C25.0296 2.60289 25.0829 2.91086 25.1003 3.20282C25.1296 3.70943 25.1136 4.22004 25.1083 4.72799C25.1029 5.31459 24.663 5.77053 24.0777 5.8052C23.5338 5.83719 23.0258 5.41857 22.9805 4.84931C22.9432 4.38402 22.9632 3.91474 22.9592 3.4468C22.9565 3.03884 22.8485 2.93085 22.4379 2.92952C13.9469 2.92952 11.7631 2.92952 3.27207 2.92952C2.85078 2.92952 2.7468 3.03484 2.74546 3.46013C2.74546 3.87342 2.75347 8.00895 2.74147 8.42224C2.72414 9.00884 2.39617 9.39413 1.8349 9.50745C1.2563 9.62477 0.621701 9.14749 0.60437 8.55689C0.587038 7.95429 0.58037 3.62678 0.608367 3.02551C0.653695 2.07362 1.45361 1.12572 2.4015 0.888418C2.6748 0.820426 2.96277 0.787097 3.24408 0.787097C7.49693 0.780431 5.44249 0.783097 9.69534 0.783097Z" fill="#DBDBDB"/>
<path d="M9.69532 20.129C5.42913 20.129 7.47158 20.1277 3.20539 20.129C2.31749 20.129 1.59623 19.801 1.06696 19.0838C0.761661 18.6705 0.597684 18.2012 0.596351 17.6826C0.595017 17.1813 0.592351 13.5338 0.596351 13.0325C0.601683 12.4459 1.04963 11.9873 1.6309 11.9619C2.18551 11.9379 2.68145 12.3512 2.72411 12.9205C2.75877 13.3858 2.74011 17 2.74411 17.468C2.74677 17.8666 2.85742 17.9799 3.25071 17.9799C11.7551 17.9799 13.9522 17.9799 22.4565 17.9799C22.8405 17.9799 22.9565 17.8653 22.9578 17.484C22.9592 17.0574 22.9512 16.6294 22.9618 16.2028C22.9752 15.6602 23.2898 15.2602 23.7751 15.1469C24.2723 15.0296 24.7483 15.2296 24.9763 15.6788C25.0522 15.8295 25.0962 16.0121 25.1029 16.1828C25.1202 16.6574 25.1109 17.132 25.1083 17.6066C25.1003 19.0065 24.0377 20.089 22.6352 20.1263C22.3912 20.133 22.1472 20.1277 21.9033 20.1277C17.8344 20.1277 13.7655 20.1277 9.69532 20.1277V20.129Z" fill="#DBDBDB"/>
<path d="M16.8212 11.3847C16.8465 11.3847 16.8665 11.3727 16.8905 11.3713H29.7571C29.6784 11.4553 29.6291 11.5113 29.5771 11.5633C28.8345 12.3059 28.0906 13.0472 27.348 13.7911C26.9054 14.235 26.8947 14.8856 27.3187 15.3216C27.736 15.7522 28.4092 15.7655 28.8519 15.3269C30.2904 13.8991 31.7235 12.4659 33.1514 11.0274C33.5913 10.5834 33.5833 9.93817 33.1434 9.49422C31.7195 8.06105 30.289 6.63454 28.8599 5.20804C28.6705 5.02006 28.4386 4.91074 28.1719 4.89341C27.7093 4.86274 27.3014 5.11205 27.1107 5.53333C26.9267 5.93995 27.0094 6.39724 27.3414 6.73187C28.0813 7.47711 28.8265 8.21836 29.5678 8.96095C29.6224 9.01561 29.6731 9.07293 29.7598 9.16492H16.8825C16.8612 9.16492 16.8439 9.15293 16.8225 9.15293C16.2066 9.15293 15.708 9.65287 15.708 10.2675C15.708 10.8821 16.2079 11.382 16.8225 11.382L16.8212 11.3847Z" fill="#DBDBDB"/>
</svg>
