<svg width="24" height="24" viewBox="0 0 24 24" fill="none" xmlns="http://www.w3.org/2000/svg">
<rect width="24" height="24" />
<path d="M8.69196 16.1743C8.38278 16.0344 8.03507 16.0963 7.78063 16.3487C7.21396 16.9113 6.65034 17.4779 6.0857 18.0416C6.04414 18.0831 6.00055 18.1227 5.92959 18.1875V3.26568C5.95189 3.02543 5.48153 3.0153 5.05881 3.00111C4.61278 2.9859 4.2671 3.12782 4.25393 3.41166V18.1865C4.19006 18.1267 4.14749 18.0902 4.10795 18.0507C3.54332 17.4861 2.97969 16.9204 2.41403 16.3568C2.07647 16.0192 1.58178 16.0121 1.2503 16.3345C0.922867 16.6518 0.91171 17.1637 1.24624 17.4992C2.33192 18.593 3.42167 19.6828 4.51547 20.7685C4.85303 21.103 5.34366 21.0969 5.68123 20.7624C6.77097 19.6797 7.85463 18.592 8.94032 17.5053C9.08325 17.3624 9.16638 17.186 9.17956 16.9822C9.20186 16.6305 9.01332 16.3213 8.69298 16.1763L8.69196 16.1743Z" fill="#2F2F2F"/>
<path d="M19.3602 9.19094H15.1706L14.8674 10.3537H12.542L14.4782 3.02148H20.0617L21.9999 10.3547H19.6643L19.3602 9.19094ZM18.826 7.14831L18.2816 5.04283H16.239L15.6936 7.14831H18.826Z" fill="#2F2F2F"/>
<path d="M21.2101 14.0394L16.8735 17.3279H21.2101V19.3503H13.291V17.3279L17.5334 14.0394H13.291V12.0171H21.2101V14.0394Z" fill="#2F2F2F"/>
</svg>
