<svg width="38" height="28" viewBox="0 0 38 28" fill="none" xmlns="http://www.w3.org/2000/svg">
<path d="M14.1943 18.2703C11.2933 19.7581 8.35897 19.9181 5.4113 18.5169C3.12356 17.429 1.51174 15.6652 0.627841 13.2881C-0.264058 10.8871 -0.213396 8.47936 0.829153 6.13029C1.82904 3.87588 3.47819 2.24006 5.73926 1.24684C7.14844 0.626909 8.62961 0.38427 10.1681 0.480259C11.7119 0.576248 13.1411 1.03353 14.4596 1.83477C15.7741 2.63335 16.8367 3.68923 17.6419 5.00375C18.4445 6.3156 18.8831 7.74611 19.0204 9.29126C21.7241 7.85143 24.4931 7.65145 27.3128 8.79132C29.7099 9.76054 31.419 11.4804 32.4336 13.8534C33.4388 16.2038 33.4815 18.6035 32.5642 20.9873C31.6137 23.4577 29.8992 25.2508 27.4661 26.2867C24.4891 27.5545 21.5481 27.3612 18.7778 25.6974C16.0008 24.0309 14.5543 21.4806 14.193 18.2716L14.1943 18.2703ZM23.6839 10.0285C19.5137 10.0498 16.1221 13.3775 16.1488 17.6277C16.1741 21.7579 19.491 25.1575 23.7599 25.1268C27.8701 25.0975 31.2764 21.7965 31.2484 17.521C31.2204 13.3975 27.9074 10.0352 23.6839 10.0285ZM9.44685 17.497C10.5387 17.5077 11.5106 17.3064 12.4465 16.9144C13.1131 16.6358 13.721 16.2665 14.2823 15.8159C14.3263 15.7812 14.3716 15.7292 14.3836 15.6772C14.5089 15.1293 14.6636 14.592 14.8702 14.0681C15.1062 13.4721 15.3995 12.9082 15.7475 12.3709C16.0941 11.8363 16.498 11.3484 16.942 10.8938C16.9833 10.8511 17.0233 10.7898 17.0313 10.7311C17.0567 10.5458 17.0793 10.3578 17.082 10.1712C17.098 9.06062 16.9087 7.99008 16.4661 6.96619C16.1901 6.32893 15.8421 5.73967 15.4035 5.20373C14.8876 4.57446 14.2903 4.03719 13.601 3.59857C13.0278 3.23328 12.4198 2.94798 11.7759 2.73867C11.24 2.56402 10.684 2.46803 10.1241 2.42004C9.15488 2.33605 8.20565 2.4627 7.27909 2.74534C6.71116 2.91865 6.16988 3.15996 5.65928 3.46659C4.92869 3.90521 4.28876 4.45048 3.74349 5.1064C3.10623 5.87165 2.61562 6.72089 2.33698 7.68078C2.21166 8.11406 2.09568 8.55535 2.03835 9.00063C1.92503 9.87786 1.96769 10.7511 2.17167 11.6177C2.31298 12.2216 2.51163 12.8015 2.79027 13.3521C3.22222 14.2027 3.79549 14.9493 4.51007 15.5852C5.44863 16.4198 6.52984 16.9851 7.74437 17.2917C8.32697 17.4383 8.92157 17.5143 9.44685 17.4943V17.497Z" fill="#2F2F2F"/>
<path d="M24.7652 23.1685C24.0159 23.1765 23.276 23.0831 22.5494 22.9058C21.5629 22.6645 20.635 22.2779 19.7911 21.7086C19.3644 21.422 18.9512 21.11 18.5579 20.7794C18.2166 20.4928 18.1739 20.0235 18.3646 19.6502C18.5659 19.2556 19.0085 19.0343 19.4338 19.1436C19.6204 19.1916 19.7924 19.3142 19.9577 19.4249C20.4003 19.7209 20.8176 20.0595 21.2789 20.3208C21.6762 20.5461 22.1121 20.7087 22.5428 20.8647C23.5253 21.2207 24.5479 21.2434 25.5757 21.1754C25.6891 21.1674 25.8011 21.138 25.9144 21.1247C26.3503 21.07 26.7063 21.2007 26.9556 21.578C27.3009 22.0993 27.0169 22.8618 26.4103 23.0125C25.8704 23.1471 25.3171 23.1658 24.7625 23.1671L24.7652 23.1685Z" fill="#2F2F2F"/>
<path d="M27.2569 18.7156C26.625 18.7169 26.149 18.1023 26.317 17.497C26.4063 17.1771 26.4916 16.8544 26.593 16.5385C26.7036 16.1932 27.0649 15.8852 27.5302 15.8932C28.1301 15.9052 28.5847 16.4665 28.4701 17.0504C28.4248 17.2784 28.3514 17.4997 28.2808 17.721C28.2221 17.9023 28.1688 18.089 28.0781 18.2543C27.9195 18.5436 27.5875 18.7156 27.2569 18.7156Z" fill="#2F2F2F"/>
<path d="M21.8481 14.9494C21.8054 15.1307 21.7707 15.3147 21.7201 15.4933C21.6494 15.7386 21.5841 15.9866 21.4841 16.2212C21.3348 16.5705 21.0428 16.7532 20.6709 16.7825C20.3349 16.8092 20.0523 16.6745 19.8429 16.4106C19.5976 16.1013 19.6003 15.756 19.7096 15.396C19.7803 15.1654 19.8523 14.9334 19.9109 14.6988C20.0136 14.2895 20.4189 13.9535 20.8402 13.9548C21.3748 13.9548 21.8467 14.3695 21.8494 14.9494H21.8481Z" fill="#2F2F2F"/>
<path d="M8.94161 15.4812C8.37901 15.4265 7.85241 15.3932 7.33246 15.3199C6.9725 15.2692 6.61521 15.1799 6.26458 15.0786C5.7913 14.9426 5.53 14.3093 5.69931 13.8427C5.86729 13.3801 6.4419 13.1055 6.92851 13.2401C7.69775 13.4521 8.491 13.5521 9.29224 13.4988C9.93217 13.4561 10.5588 13.3428 11.1707 13.1348C11.8666 12.8975 12.5079 12.5589 13.1225 12.1602C13.5638 11.8736 14.0864 11.9389 14.4143 12.3136C14.7983 12.7535 14.7196 13.4254 14.2357 13.7574C13.6437 14.1627 13.0172 14.504 12.3506 14.7759C11.7653 15.0159 11.164 15.2066 10.5428 15.3079C10.0028 15.3959 9.45355 15.4279 8.94161 15.4812Z" fill="#2F2F2F"/>
<path d="M6.95782 9.68467C6.93516 10.1526 6.68852 10.5699 6.11925 10.6926C5.74596 10.7725 5.23535 10.5139 5.09137 10.126C4.99938 9.87532 4.96738 9.60335 4.91272 9.34071C4.88872 9.22872 4.87539 9.1154 4.85673 9.00341C4.72874 8.2715 5.44066 7.67823 6.08859 7.89287C6.52187 8.03686 6.73518 8.33949 6.80451 8.77011C6.84317 9.00875 6.88717 9.24739 6.92716 9.48603C6.94049 9.56202 6.94983 9.63934 6.95782 9.686V9.68467Z" fill="#2F2F2F"/>
<path d="M12.6438 6.67023C13.0544 6.65823 13.5037 7.00086 13.5757 7.39948C13.6397 7.75011 13.713 8.0994 13.7583 8.45136C13.8383 9.07796 13.2784 9.59656 12.6544 9.50991C12.2158 9.44858 11.8705 9.05663 11.8239 8.64867C11.7972 8.4127 11.7479 8.17939 11.6945 7.94875C11.5639 7.37815 11.8425 6.8742 12.4011 6.70356C12.4785 6.67956 12.5624 6.68089 12.6438 6.67023Z" fill="#2F2F2F"/>
<path d="M36.8037 4.19153H33.6654V1.05321C33.6654 0.470614 33.1948 0 32.6122 0C32.0296 0 31.559 0.470614 31.559 1.05321V4.19153H28.4206C27.838 4.19153 27.3674 4.66214 27.3674 5.24474C27.3674 5.82734 27.838 6.29796 28.4206 6.29796H31.559V9.43627C31.559 10.0189 32.0296 10.4895 32.6122 10.4895C33.1948 10.4895 33.6654 10.0189 33.6654 9.43627V6.29796H36.8037C37.3863 6.29796 37.8569 5.82734 37.8569 5.24474C37.8569 4.66214 37.3863 4.19153 36.8037 4.19153Z" fill="#2F2F2F"/>
</svg>
