<svg width="25" height="24" viewBox="0 0 25 24" fill="none" xmlns="http://www.w3.org/2000/svg">
<path d="M15.8359 15.8516L12.7216 11.9867C12.6296 11.872 12.5789 11.7307 12.5763 11.5841L12.5069 6.56331C12.5003 6.09269 12.047 5.71674 11.495 5.72473C10.9431 5.73273 10.5005 6.12069 10.5072 6.5913L10.5845 12.2067C10.5845 12.2373 10.5858 12.2627 10.5911 12.2933C10.6005 12.452 10.6525 12.608 10.7551 12.7346L14.2787 17.1075C14.5747 17.4741 15.1626 17.4901 15.5919 17.1434C16.0212 16.7968 16.1305 16.2182 15.8359 15.8516Z" fill="#2F2F2F"/>
<path d="M24.7389 2.87866C24.691 4.70779 24.6403 6.53691 24.5883 8.36604C24.571 8.95397 24.139 9.36593 23.5524 9.35259C22.9325 9.33926 22.3126 9.31793 21.6926 9.3006C20.4781 9.26727 19.2622 9.23527 18.0464 9.19928C17.5824 9.18461 17.2345 8.92464 17.1051 8.51536C16.8998 7.86609 17.3731 7.22483 18.0677 7.2355C19.0409 7.25016 20.0155 7.28483 20.9887 7.31016C21.0514 7.31149 21.1154 7.30749 21.2033 7.30483L19.0596 5.03975C19.0596 5.03975 19.0543 5.03441 19.0503 5.03175C19.0463 5.02908 19.0396 5.02642 19.0356 5.02242C19.0329 5.01975 19.0316 5.01708 19.0303 5.01442C15.264 1.12152 9.03805 0.970874 5.0945 4.70379C1.12428 8.46069 0.950969 14.748 4.70788 18.7182C8.46479 22.6884 14.7521 22.8617 18.721 19.1048C19.1222 18.7249 19.7555 18.7435 20.1341 19.1435C20.5128 19.5434 20.4954 20.178 20.0955 20.5567C15.324 25.0708 7.76887 24.8628 3.25471 20.0914C-1.26078 15.3199 -1.05147 7.76477 3.71866 3.24928C8.40479 -1.18488 15.7666 -1.05157 20.3061 3.47059C20.3794 3.51592 20.4554 3.55325 20.5168 3.61857C20.5408 3.6439 20.5501 3.67723 20.5714 3.70523L22.6725 5.92631C22.6792 5.80499 22.6858 5.73967 22.6885 5.67168C22.7152 4.71712 22.7378 3.76256 22.7698 2.808C22.7872 2.28139 23.1511 1.88277 23.6417 1.83344C24.2657 1.76945 24.7536 2.23206 24.7363 2.87999L24.7389 2.87866Z" fill="#2F2F2F"/>
</svg>
