<svg width="27" height="24" viewBox="0 0 27 24" fill="none" xmlns="http://www.w3.org/2000/svg">
<path d="M18.843 15.6416L15.7287 11.7767C15.6367 11.6621 15.586 11.5208 15.5833 11.3741L15.514 6.35335C15.5073 5.88273 15.0541 5.50677 14.5021 5.51477C13.9502 5.52277 13.5076 5.91073 13.5142 6.38134L13.5916 11.9967C13.5916 12.0274 13.5929 12.0527 13.5982 12.0834C13.6076 12.242 13.6596 12.398 13.7622 12.5246L17.2858 16.8975C17.5818 17.2641 18.1697 17.2801 18.599 16.9335C19.0283 16.5869 19.1376 16.0083 18.843 15.6416Z" fill="#2F2F2F"/>
<path d="M0.530343 18.0892C2.1115 19.0104 3.69399 19.9276 5.27781 20.8449C5.78708 21.1395 6.36435 20.9875 6.66165 20.4822C6.97628 19.9476 7.28425 19.409 7.59488 18.8731C8.20548 17.8225 8.81741 16.7707 9.424 15.7174C9.65598 15.3161 9.61732 14.8829 9.33601 14.5576C8.89073 14.0416 8.09616 14.107 7.7402 14.7042C7.24159 15.5401 6.75897 16.3867 6.26969 17.2279C6.2377 17.2826 6.20037 17.3333 6.15237 17.4079L5.35113 14.3936C5.35113 14.3936 5.3498 14.3856 5.34847 14.3816C5.34847 14.3763 5.34847 14.3696 5.34847 14.3643C5.34847 14.3616 5.3458 14.3589 5.34313 14.3549C4.00995 9.10485 7.15493 3.72946 12.4023 2.33495C17.6844 0.931105 23.1251 4.08808 24.529 9.37149C25.9328 14.6536 22.7758 20.0943 17.4938 21.4968C16.9605 21.6381 16.6419 22.186 16.7845 22.7193C16.9272 23.2526 17.4738 23.5712 18.007 23.4286C24.3557 21.7421 28.1486 15.2042 26.4621 8.85688C24.7756 2.50959 18.2377 -1.28598 11.8904 0.400498C5.65643 2.05631 1.89952 8.39027 3.36202 14.6296C3.36202 14.7149 3.35402 14.8002 3.37669 14.8855C3.38602 14.9189 3.40869 14.9442 3.42202 14.9762L4.20726 17.9305C4.10061 17.8732 4.04061 17.8439 3.98329 17.8105C3.15671 17.3319 2.33281 16.8493 1.50357 16.3747C1.04629 16.1134 0.517012 16.212 0.215713 16.604C-0.165578 17.1013 -0.029594 17.7599 0.530343 18.0852V18.0892Z" fill="#2F2F2F"/>
</svg>
