<svg width="29" height="25" viewBox="0 0 29 25" fill="none" xmlns="http://www.w3.org/2000/svg">
<path d="M10.6163 17.7132C10.2097 17.5293 9.7524 17.6106 9.41778 17.9425C8.67253 18.6825 7.93128 19.4277 7.1887 20.169C7.13404 20.2236 7.0767 20.2756 6.98338 20.3609V0.735156C7.01271 0.419192 6.39412 0.40586 5.83818 0.387196C5.25158 0.367198 4.79697 0.553842 4.77964 0.927133V20.3583C4.69565 20.2796 4.63966 20.2316 4.58766 20.1796C3.84508 19.437 3.10382 18.6931 2.35991 17.9519C1.91596 17.5079 1.26537 17.4986 0.82942 17.9225C0.398802 18.3398 0.38413 19.0131 0.82408 19.4544C2.25192 20.8929 3.6851 22.3261 5.1236 23.7539C5.56755 24.1938 6.21281 24.1858 6.65676 23.7459C8.08993 22.3221 9.51509 20.8915 10.9429 19.4624C11.1309 19.2744 11.2402 19.0424 11.2576 18.7745C11.2869 18.3118 11.0389 17.9052 10.6177 17.7146L10.6163 17.7132Z" fill="#2F2F2F"/>
<path d="M24.6467 21.16H19.1366L18.738 22.6892H15.6797L18.2287 13.0449H25.5719L28.121 22.6892H25.0493L24.6493 21.16H24.6467ZM23.9441 18.4736L23.2282 15.7046H20.5418L19.8245 18.4736H23.9441Z" fill="#2F2F2F"/>
<path d="M27.0796 3.05033L21.3763 7.37517H27.0796V10.0349H16.6648V7.37517L22.2442 3.05033H16.6648V0.390625H27.0796V3.05033Z" fill="#2F2F2F"/>
</svg>
