<?xml version="1.0" encoding="utf-8"?>
<svg viewBox="0 0 24 24" fill="none" xmlns="http://www.w3.org/2000/svg">
  <path d="M 3.829 4.469 C 7.156 4.469 10.482 4.467 13.809 4.47 C 14.688 4.47 15.324 4.872 15.677 5.68 C 15.768 5.886 15.809 6.126 15.823 6.353 C 15.846 6.748 15.833 7.145 15.829 7.541 C 15.825 7.997 15.482 8.352 15.027 8.379 C 14.603 8.404 14.208 8.078 14.172 7.635 C 14.143 7.273 14.159 6.907 14.156 6.543 C 14.154 6.226 14.07 6.142 13.75 6.14 C 7.139 6.14 9.566 6.14 2.955 6.14 C 2.627 6.14 2.547 6.222 2.545 6.554 C 2.545 6.875 2.552 9.129 2.542 9.45 C 2.529 9.907 2.274 10.207 1.837 10.295 C 1.386 10.387 0.892 10.015 0.879 9.555 C 0.865 9.086 0.86 6.683 0.882 6.215 C 0.917 5.474 1.54 4.736 2.278 4.551 C 2.49 4.498 2.715 4.473 2.934 4.473 C 6.245 4.467 0.517 4.469 3.828 4.469 L 3.829 4.469 Z" fill="#2F2F2F" style=""/>
  <path d="M 3.829 19.531 C 0.508 19.531 6.225 19.53 2.904 19.531 C 2.212 19.531 1.651 19.275 1.239 18.717 C 1.001 18.395 0.873 18.03 0.872 17.626 C 0.871 17.236 0.869 13.987 0.872 13.597 C 0.876 13.14 1.225 12.783 1.678 12.763 C 2.11 12.745 2.496 13.067 2.529 13.51 C 2.556 13.872 2.541 17.095 2.544 17.459 C 2.547 17.769 2.633 17.858 2.939 17.858 C 9.56 17.858 7.143 17.858 13.764 17.858 C 14.063 17.858 14.154 17.768 14.155 17.472 C 14.156 17.139 14.15 16.806 14.158 16.474 C 14.168 16.052 14.413 15.74 14.791 15.652 C 15.178 15.561 15.549 15.716 15.726 16.066 C 15.785 16.183 15.82 16.326 15.825 16.459 C 15.838 16.828 15.831 17.198 15.829 17.567 C 15.823 18.657 14.995 19.5 13.904 19.529 C 13.714 19.534 13.524 19.53 13.334 19.53 C 10.166 19.53 6.998 19.531 3.829 19.531 Z" fill="#2F2F2F" style=""/>
  <path d="M 22.266 10.901 C 22.246 10.901 22.231 10.911 22.212 10.912 L 8.716 10.912 C 8.777 10.846 8.816 10.803 8.856 10.762 C 9.434 10.184 10.013 9.607 10.591 9.028 C 10.936 8.682 10.944 8.176 10.614 7.836 C 10.289 7.501 9.765 7.491 9.421 7.832 C 8.301 8.944 7.185 10.06 6.073 11.18 C 5.731 11.525 5.737 12.028 6.08 12.373 C 7.188 13.489 8.302 14.6 9.415 15.71 C 9.562 15.857 9.742 15.942 9.95 15.955 C 10.31 15.979 10.628 15.785 10.776 15.457 C 10.919 15.14 10.855 14.784 10.597 14.524 C 10.021 13.944 9.44 13.367 8.863 12.788 C 8.821 12.746 8.781 12.701 8.714 12.63 L 22.219 12.63 C 22.236 12.63 22.25 12.639 22.266 12.639 C 22.746 12.639 23.134 12.25 23.134 11.771 C 23.134 11.293 22.745 10.904 22.266 10.904 L 22.266 10.901 Z" fill="#2F2F2F" style=""/>
</svg>
