<?xml version="1.0" encoding="utf-8"?>
<svg viewBox="0 0 24 24" fill="none" xmlns="http://www.w3.org/2000/svg">
  <path d="M 16.784 19.518 C 16.784 19.433 16.784 19.347 16.784 19.262 C 16.784 16.169 16.784 13.077 16.783 9.983 C 16.783 9.592 16.853 9.235 17.172 8.969 C 17.505 8.69 17.884 8.627 18.281 8.776 C 18.698 8.932 18.926 9.258 18.985 9.697 C 18.999 9.801 18.993 9.911 18.993 10.016 C 18.993 13.123 18.993 16.227 18.993 19.332 C 18.993 19.411 18.993 19.49 18.993 19.569 C 19.009 19.575 19.025 19.581 19.04 19.587 C 19.096 19.534 19.156 19.483 19.209 19.427 C 19.937 18.701 20.663 17.974 21.387 17.245 C 21.594 17.037 21.824 16.867 22.12 16.821 C 22.641 16.741 23.053 16.943 23.285 17.383 C 23.507 17.804 23.439 18.297 23.079 18.664 C 22.478 19.278 21.869 19.882 21.257 20.484 C 20.904 20.831 20.562 21.194 20.18 21.504 C 18.797 22.618 16.683 22.547 15.397 21.331 C 14.486 20.47 13.612 19.571 12.725 18.685 C 12.272 18.231 12.26 17.558 12.687 17.116 C 13.105 16.681 13.8 16.669 14.26 17.106 C 14.679 17.502 15.08 17.917 15.488 18.323 C 15.851 18.686 16.214 19.049 16.579 19.413 C 16.625 19.459 16.676 19.5 16.723 19.545 C 16.744 19.535 16.764 19.527 16.785 19.517 L 16.784 19.518 Z" fill="#2F2F2F" style="" transform="matrix(1, 0, 0, 1, -1.7763568394002505e-15, 0)"/>
  <path d="M 10.703 3.926 C 7.742 3.926 4.782 3.926 1.82 3.926 C 1.369 3.926 0.991 3.78 0.753 3.382 C 0.31 2.638 0.803 1.771 1.698 1.711 C 1.748 1.707 1.799 1.708 1.848 1.708 C 7.751 1.707 13.654 1.707 19.557 1.707 C 19.914 1.707 20.242 1.779 20.5 2.049 C 20.812 2.375 20.892 2.767 20.749 3.18 C 20.591 3.637 20.234 3.874 19.755 3.921 C 19.661 3.931 19.566 3.926 19.473 3.926 C 16.55 3.926 13.626 3.926 10.703 3.926 Z" fill="#2F2F2F" style="" transform="matrix(1, 0, 0, 1, -1.7763568394002505e-15, 0)"/>
  <path d="M 6.112 12.383 C 4.675 12.383 3.239 12.383 1.802 12.383 C 1.32 12.383 0.938 12.201 0.707 11.758 C 0.39 11.153 0.752 10.362 1.42 10.215 C 1.552 10.185 1.692 10.168 1.828 10.168 C 4.683 10.166 7.537 10.166 10.392 10.167 C 10.953 10.167 11.373 10.424 11.538 10.858 C 11.807 11.571 11.378 12.273 10.611 12.372 C 10.518 12.384 10.424 12.384 10.329 12.384 C 8.924 12.384 7.518 12.384 6.114 12.384 L 6.112 12.383 Z" fill="#2F2F2F" style="" transform="matrix(1, 0, 0, 1, -1.7763568394002505e-15, 0)"/>
  <path d="M 4.45 20.841 C 3.566 20.841 2.68 20.843 1.796 20.841 C 1.353 20.839 0.983 20.684 0.75 20.291 C 0.312 19.55 0.824 18.656 1.705 18.623 C 2.043 18.612 2.383 18.621 2.721 18.621 C 4.189 18.621 5.657 18.621 7.125 18.621 C 7.595 18.621 7.973 18.806 8.189 19.234 C 8.576 19.993 8.031 20.828 7.141 20.838 C 6.244 20.848 5.346 20.841 4.45 20.841 Z" fill="#2F2F2F" style="" transform="matrix(1, 0, 0, 1, -1.7763568394002505e-15, 0)"/>
</svg>
