<svg width="30" height="20" viewBox="0 0 30 20" fill="none" xmlns="http://www.w3.org/2000/svg">
<path d="M4.68514 0.220598C8.95799 0.220598 13.2308 0.217931 17.5037 0.22193C18.6329 0.22193 19.4501 0.737871 19.9034 1.77509C20.0194 2.04039 20.0727 2.34836 20.0901 2.64032C20.1194 3.14693 20.1034 3.65754 20.0981 4.16548C20.0927 4.75208 19.6528 5.20803 19.0675 5.2427C18.5236 5.27469 18.0156 4.85608 17.9703 4.28681C17.933 3.82153 17.953 3.35224 17.949 2.8843C17.9463 2.47634 17.8383 2.36835 17.4277 2.36702C8.93666 2.36702 12.0536 2.36702 3.5626 2.36702C3.14131 2.36702 3.03732 2.47234 3.03598 2.89763C3.03598 3.31091 3.04398 6.20525 3.03198 6.61854C3.01465 7.20514 2.68669 7.59043 2.12542 7.70375C1.54682 7.82107 0.912228 7.34379 0.894897 6.75319C0.877566 6.15059 0.870897 3.06428 0.898894 2.46301C0.944222 1.51112 1.74413 0.563224 2.69203 0.325917C2.96533 0.257925 3.25329 0.224598 3.53459 0.224598C7.78745 0.217932 0.430943 0.220598 4.6838 0.220598H4.68514Z" fill="#2F2F2F"/>
<path d="M4.68512 19.5664C0.41894 19.5664 7.7621 19.5651 3.49592 19.5664C2.60802 19.5664 1.88677 19.2384 1.3575 18.5212C1.0522 18.1079 0.888211 17.6386 0.886878 17.12C0.885545 16.6187 0.882878 12.4459 0.886878 11.9446C0.892211 11.358 1.34016 10.8994 1.92143 10.874C2.47603 10.85 2.97198 11.2633 3.01464 11.8326C3.0493 12.2979 3.03064 16.4374 3.03464 16.9054C3.0373 17.304 3.14796 17.4173 3.54125 17.4173C12.0456 17.4173 8.94197 17.4173 17.4463 17.4173C17.8303 17.4173 17.9463 17.3026 17.9476 16.9214C17.949 16.4947 17.941 16.0668 17.9516 15.6402C17.965 15.0976 18.2796 14.6976 18.7649 14.5843C19.2621 14.467 19.7381 14.6669 19.9661 15.1162C20.0421 15.2669 20.0861 15.4495 20.0927 15.6202C20.11 16.0948 20.1007 16.5694 20.098 17.044C20.09 18.4439 19.0275 19.5264 17.625 19.5637C17.381 19.5704 17.137 19.5651 16.8931 19.5651C12.8242 19.5651 8.75533 19.5664 4.68512 19.5664Z" fill="#2F2F2F"/>
<path d="M28.3664 8.48236C28.3411 8.48236 28.3211 8.49435 28.2971 8.49568H10.9617C11.0404 8.41169 11.0897 8.3557 11.1417 8.30371C11.8843 7.56112 12.6282 6.81988 13.3708 6.07596C13.8134 5.63201 13.8241 4.98141 13.4001 4.54546C12.9828 4.11484 12.3096 4.10152 11.867 4.54013C10.4285 5.96797 8.99528 7.40114 7.56744 8.83964C7.12749 9.2836 7.1355 9.92886 7.57545 10.3728C8.99929 11.806 10.4298 13.2325 11.859 14.659C12.0483 14.847 12.2802 14.9563 12.5469 14.9736C13.0095 15.0043 13.4174 14.755 13.6081 14.3337C13.7921 13.9271 13.7094 13.4698 13.3775 13.1352C12.6375 12.3899 11.8923 11.6487 11.151 10.9061C11.0964 10.8514 11.0457 10.7941 10.9591 10.7021H28.3064C28.3278 10.7021 28.3451 10.7141 28.3664 10.7141C28.9824 10.7141 29.481 10.2142 29.481 9.59956C29.481 8.98496 28.981 8.48502 28.3664 8.48502V8.48236Z" fill="#2F2F2F"/>
</svg>
