<svg width="29" height="24" viewBox="0 0 29 24" fill="none" xmlns="http://www.w3.org/2000/svg">
<path d="M10.6163 17.3262C10.2097 17.1422 9.7524 17.2235 9.41778 17.5555C8.67253 18.2954 7.93128 19.0406 7.1887 19.7819C7.13404 19.8365 7.0767 19.8885 6.98338 19.9739V0.349414C7.01271 0.0334501 6.39412 0.0201183 5.83818 0.00145372C5.25158 -0.018544 4.79697 0.168102 4.77964 0.541393V19.9725C4.69565 19.8939 4.63966 19.8459 4.58766 19.7939C3.84508 19.0513 3.10382 18.3074 2.35991 17.5661C1.91596 17.1222 1.26537 17.1129 0.82942 17.5368C0.398802 17.9541 0.38413 18.6274 0.82408 19.0686C2.25192 20.5071 3.6851 21.9403 5.1236 23.3681C5.56755 23.8081 6.21281 23.8001 6.65676 23.3601C8.08993 21.9363 9.51509 20.5058 10.9429 19.0766C11.1309 18.8887 11.2402 18.6567 11.2576 18.3887C11.2869 17.9261 11.0389 17.5195 10.6177 17.3288L10.6163 17.3262Z" fill="#DBDBDB"/>
<path d="M24.6467 8.14207H19.1366L18.738 9.67123H15.6797L18.2261 0.0283203H25.5692L28.1183 9.67257H25.0466L24.6467 8.14207ZM23.9441 5.45571L23.2282 2.68669H20.5418L19.8245 5.45571H23.9441Z" fill="#DBDBDB"/>
<path d="M27.0796 14.5181L21.3763 18.8429H27.0796V21.5026H16.6648V18.8429L22.2442 14.5181H16.6648V11.8584H27.0796V14.5181Z" fill="#DBDBDB"/>
</svg>
