<svg width="24" height="24" viewBox="0 0 24 24" fill="none" xmlns="http://www.w3.org/2000/svg">
<rect width="24" height="24" />
<path d="M15.4319 14.8104L12.8814 11.6451C12.806 11.5512 12.7645 11.4355 12.7624 11.3154L12.7056 7.20348C12.7001 6.81806 12.3289 6.51015 11.8769 6.5167C11.4248 6.52326 11.0624 6.84098 11.0678 7.22641L11.1311 11.8253C11.1311 11.8504 11.1322 11.8711 11.1366 11.8962C11.1442 12.0262 11.1868 12.1539 11.2709 12.2576L14.1566 15.8389C14.399 16.1392 14.8805 16.1523 15.2321 15.8684C15.5837 15.5845 15.6732 15.1106 15.4319 14.8104Z" fill="#2F2F2F"/>
<path d="M0.434339 16.8146C1.72927 17.5691 3.02529 18.3203 4.32241 19.0715C4.73949 19.3128 5.21226 19.1883 5.45574 18.7745C5.71342 18.3367 5.96564 17.8956 6.22004 17.4566C6.7201 16.5963 7.22126 15.7348 7.71805 14.8722C7.90803 14.5436 7.87637 14.1887 7.64599 13.9223C7.28131 13.4998 6.63057 13.5533 6.33905 14.0424C5.9307 14.727 5.53545 15.4203 5.13474 16.1093C5.10854 16.1541 5.07796 16.1955 5.03866 16.2567L4.38246 13.788C4.38246 13.788 4.38137 13.7815 4.38027 13.7782C4.38027 13.7738 4.38027 13.7684 4.38027 13.764C4.38027 13.7618 4.37809 13.7596 4.37591 13.7564C3.28406 9.45667 5.85973 5.05434 10.1572 3.91227C14.4831 2.76255 18.939 5.34805 20.0887 9.67504C21.2384 14.0009 18.6529 18.4568 14.327 19.6054C13.8903 19.7211 13.6293 20.1699 13.7461 20.6066C13.863 21.0433 14.3106 21.3043 14.7474 21.1875C19.9467 19.8063 23.053 14.4519 21.6719 9.25358C20.2907 4.0553 14.9363 0.946812 9.73797 2.328C4.63249 3.68407 1.55567 8.87144 2.75342 13.9813C2.75342 14.0512 2.74687 14.121 2.76543 14.1909C2.77308 14.2182 2.79164 14.239 2.80256 14.2652L3.44565 16.6847C3.35831 16.6377 3.30917 16.6137 3.26222 16.5864C2.58528 16.1945 1.91052 15.7992 1.23139 15.4105C0.856884 15.1965 0.423421 15.2773 0.176664 15.5983C-0.135604 16.0056 -0.0242368 16.5449 0.434339 16.8113V16.8146Z" fill="#2F2F2F"/>
</svg>
