<?xml version="1.0" encoding="utf-8"?>
<svg viewBox="0 0 24 24" fill="none" xmlns="http://www.w3.org/2000/svg">
  <path d="M 9.127 14.862 C 7.366 15.766 5.585 15.862 3.795 15.012 C 2.406 14.351 1.428 13.281 0.891 11.838 C 0.351 10.38 0.381 8.919 1.014 7.493 C 1.621 6.125 2.622 5.132 3.994 4.529 C 4.849 4.152 5.749 4.005 6.683 4.063 C 7.62 4.122 8.488 4.399 9.287 4.886 C 10.086 5.37 10.731 6.011 11.219 6.809 C 11.707 7.605 11.973 8.474 12.056 9.412 C 13.698 8.538 15.378 8.416 17.09 9.108 C 18.545 9.696 19.583 10.74 20.198 12.181 C 20.808 13.608 20.835 15.065 20.278 16.511 C 19.7 18.011 18.66 19.1 17.183 19.728 C 15.376 20.498 13.59 20.38 11.909 19.371 C 10.223 18.359 9.345 16.811 9.126 14.863 L 9.127 14.862 Z M 14.887 9.86 C 12.356 9.872 10.297 11.892 10.313 14.472 C 10.328 16.979 12.342 19.043 14.934 19.025 C 17.429 19.006 19.495 17.002 19.479 14.407 C 19.462 11.904 17.451 9.864 14.887 9.86 Z M 6.245 14.393 C 6.908 14.399 7.498 14.277 8.066 14.039 C 8.471 13.87 8.84 13.646 9.18 13.372 C 9.207 13.351 9.235 13.319 9.242 13.288 C 9.318 12.955 9.411 12.63 9.537 12.311 C 9.68 11.95 9.859 11.607 10.07 11.281 C 10.28 10.956 10.525 10.66 10.795 10.384 C 10.819 10.359 10.844 10.321 10.849 10.286 C 10.864 10.173 10.878 10.06 10.879 9.946 C 10.889 9.272 10.775 8.622 10.506 8.001 C 10.338 7.613 10.127 7.256 9.861 6.93 C 9.547 6.549 9.185 6.222 8.767 5.956 C 8.419 5.734 8.05 5.562 7.659 5.434 C 7.333 5.328 6.996 5.27 6.656 5.241 C 6.068 5.189 5.492 5.267 4.93 5.438 C 4.585 5.544 4.256 5.69 3.945 5.876 C 3.502 6.142 3.114 6.473 2.783 6.872 C 2.396 7.336 2.099 7.852 1.929 8.434 C 1.853 8.697 1.782 8.965 1.748 9.236 C 1.679 9.768 1.705 10.298 1.829 10.824 C 1.914 11.191 2.035 11.543 2.204 11.877 C 2.466 12.393 2.814 12.847 3.248 13.232 C 3.818 13.738 4.474 14.082 5.212 14.268 C 5.565 14.357 5.926 14.403 6.245 14.391 L 6.245 14.393 Z" fill="#2F2F2F" style="" transform="matrix(1, 0, 0, 1, -4.440892098500626e-16, -4.440892098500626e-16)"/>
  <path d="M 15.543 17.835 C 15.089 17.841 14.639 17.784 14.198 17.676 C 13.599 17.529 13.036 17.295 12.524 16.95 C 12.265 16.775 12.015 16.585 11.775 16.386 C 11.568 16.211 11.543 15.926 11.658 15.7 C 11.78 15.46 12.049 15.326 12.307 15.392 C 12.42 15.422 12.525 15.496 12.625 15.563 C 12.894 15.742 13.147 15.948 13.427 16.107 C 13.668 16.244 13.933 16.342 14.194 16.437 C 14.791 16.653 15.411 16.667 16.035 16.625 C 16.104 16.621 16.172 16.603 16.241 16.595 C 16.505 16.562 16.721 16.641 16.873 16.87 C 17.083 17.186 16.91 17.649 16.542 17.741 C 16.214 17.822 15.878 17.833 15.541 17.834 L 15.543 17.835 Z" fill="#2F2F2F" style="" transform="matrix(1, 0, 0, 1, -4.440892098500626e-16, -4.440892098500626e-16)"/>
  <path d="M 17.056 15.133 C 16.673 15.134 16.383 14.76 16.485 14.393 C 16.54 14.198 16.591 14.002 16.653 13.811 C 16.72 13.601 16.939 13.415 17.222 13.419 C 17.586 13.426 17.862 13.767 17.793 14.122 C 17.764 14.26 17.721 14.394 17.677 14.529 C 17.642 14.638 17.609 14.752 17.554 14.853 C 17.458 15.028 17.257 15.133 17.056 15.133 Z" fill="#2F2F2F" style="" transform="matrix(1, 0, 0, 1, -4.440892098500626e-16, -4.440892098500626e-16)"/>
  <path d="M 13.773 12.847 C 13.747 12.956 13.726 13.068 13.695 13.176 C 13.652 13.326 13.613 13.476 13.552 13.619 C 13.461 13.831 13.284 13.941 13.058 13.959 C 12.854 13.975 12.682 13.894 12.555 13.733 C 12.406 13.546 12.408 13.336 12.474 13.118 C 12.518 12.978 12.561 12.836 12.597 12.694 C 12.659 12.446 12.905 12.242 13.161 12.243 C 13.486 12.243 13.772 12.495 13.774 12.847 L 13.773 12.847 Z" fill="#2F2F2F" style="" transform="matrix(1, 0, 0, 1, -4.440892098500626e-16, -4.440892098500626e-16)"/>
  <path d="M 5.938 13.169 C 5.597 13.136 5.278 13.115 4.961 13.071 C 4.743 13.04 4.526 12.987 4.314 12.925 C 4.026 12.843 3.867 12.458 3.97 12.175 C 4.072 11.894 4.421 11.727 4.717 11.809 C 5.183 11.938 5.665 11.998 6.151 11.966 C 6.54 11.94 6.92 11.871 7.292 11.745 C 7.714 11.601 8.103 11.395 8.476 11.153 C 8.744 10.979 9.061 11.019 9.26 11.247 C 9.493 11.513 9.446 11.921 9.151 12.123 C 8.792 12.369 8.412 12.576 8.008 12.741 C 7.653 12.886 7.288 13.003 6.91 13.064 C 6.582 13.118 6.249 13.137 5.938 13.169 Z" fill="#2F2F2F" style="" transform="matrix(1, 0, 0, 1, -4.440892098500626e-16, -4.440892098500626e-16)"/>
  <path d="M 4.734 9.651 C 4.721 9.935 4.57 10.188 4.225 10.262 C 3.998 10.311 3.689 10.154 3.601 9.918 C 3.546 9.766 3.526 9.601 3.493 9.442 C 3.478 9.374 3.47 9.305 3.458 9.237 C 3.381 8.792 3.814 8.433 4.206 8.563 C 4.47 8.65 4.599 8.834 4.641 9.096 C 4.665 9.241 4.691 9.385 4.716 9.53 C 4.724 9.577 4.73 9.623 4.734 9.652 L 4.734 9.651 Z" fill="#2F2F2F" style="" transform="matrix(1, 0, 0, 1, -4.440892098500626e-16, -4.440892098500626e-16)"/>
  <path d="M 8.185 7.82 C 8.435 7.813 8.708 8.021 8.752 8.264 C 8.79 8.477 8.835 8.688 8.862 8.902 C 8.911 9.282 8.571 9.597 8.192 9.544 C 7.926 9.508 7.716 9.269 7.688 9.022 C 7.672 8.879 7.642 8.736 7.609 8.596 C 7.53 8.25 7.699 7.944 8.038 7.841 C 8.085 7.826 8.136 7.827 8.185 7.82 Z" fill="#2F2F2F" style="" transform="matrix(1, 0, 0, 1, -4.440892098500626e-16, -4.440892098500626e-16)"/>
  <path d="M 22.851 6.317 L 20.946 6.317 L 20.946 4.411 C 20.946 4.057 20.66 3.772 20.307 3.772 C 19.953 3.772 19.668 4.057 19.668 4.411 L 19.668 6.317 L 17.762 6.317 C 17.408 6.317 17.123 6.602 17.123 6.956 C 17.123 7.309 17.408 7.595 17.762 7.595 L 19.668 7.595 L 19.668 9.499 C 19.668 9.854 19.953 10.139 20.307 10.139 C 20.66 10.139 20.946 9.854 20.946 9.499 L 20.946 7.595 L 22.851 7.595 C 23.205 7.595 23.49 7.309 23.49 6.956 C 23.49 6.602 23.205 6.317 22.851 6.317 Z" fill="#2F2F2F" style="" transform="matrix(1, 0, 0, 1, -4.440892098500626e-16, -4.440892098500626e-16)"/>
</svg>
