<svg width="28" height="24" viewBox="0 0 28 24" fill="none" xmlns="http://www.w3.org/2000/svg">
<path d="M10.1161 17.3262C9.70944 17.1422 9.25216 17.2235 8.91753 17.5555C8.17228 18.2954 7.43104 19.0406 6.68845 19.7819C6.63379 19.8365 6.57646 19.8885 6.48313 19.9739V0.349414C6.51246 0.0334501 5.89388 0.0201183 5.33794 0.00145372C4.75134 -0.018544 4.29672 0.168102 4.27939 0.541393V19.9725C4.1954 19.8939 4.13941 19.8459 4.08742 19.7939C3.34484 19.0513 2.60358 18.3074 1.85966 17.5661C1.41571 17.1222 0.765127 17.1129 0.329176 17.5368C-0.101442 17.9541 -0.116114 18.6274 0.323836 19.0686C1.75168 20.5071 3.18485 21.9403 4.62336 23.3681C5.06731 23.8081 5.71256 23.8001 6.15651 23.3601C7.58968 21.9363 9.01485 20.5058 10.4427 19.0766C10.6307 18.8887 10.74 18.6567 10.7573 18.3887C10.7867 17.9261 10.5387 17.5195 10.1174 17.3288L10.1161 17.3262Z" fill="#2F2F2F"/>
<path d="M24.1464 8.14207H18.6364L18.2378 9.67123H15.1794L17.7258 0.0283203H25.069L27.618 9.67257H24.5464L24.1464 8.14207ZM23.4438 5.45571L22.7279 2.68669H20.0416L19.3243 5.45571H23.4438Z" fill="#2F2F2F"/>
<path d="M26.5794 14.5181L20.876 18.8429H26.5794V21.5026H16.1646V18.8429L21.7439 14.5181H16.1646V11.8584H26.5794V14.5181Z" fill="#2F2F2F"/>
</svg>
