<svg width="20" height="20" viewBox="0 0 20 20" fill="none" xmlns="http://www.w3.org/2000/svg">
<g clip-path="url(#clip0_20_6833)">
<path d="M10 20C15.5417 20 20 15.5417 20 10C20 4.4583 15.5417 0 10 0C4.4583 0 0 4.4583 0 10C0 15.5417 4.4583 20 10 20Z" fill="#F6B451"/>
<path fill-rule="evenodd" clip-rule="evenodd" d="M12.6333 4.54991C12.7161 4.3451 12.6171 4.11198 12.4123 4.02923C12.2075 3.94648 11.9744 4.04543 11.8916 4.25025L9.99086 8.95485L8.00822 4.28403C7.92191 4.08069 7.6871 3.98583 7.48376 4.07214C7.28042 4.15845 7.18556 4.39326 7.27187 4.59659L9.25451 9.26741L4.54991 7.36661C4.3451 7.28387 4.11198 7.38281 4.02923 7.58763C3.94648 7.79244 4.04543 8.02556 4.25024 8.10831L8.95472 10.0091L4.28415 11.9916C4.08081 12.0779 3.98594 12.3127 4.07225 12.516C4.15856 12.7194 4.39337 12.8142 4.59671 12.728L9.26746 10.7453L7.36661 15.4501C7.28386 15.6549 7.38281 15.888 7.58763 15.9708C7.79244 16.0535 8.02555 15.9546 8.1083 15.7497L10.0091 11.0451L11.9917 15.7158C12.078 15.9191 12.3128 16.014 12.5161 15.9277C12.7195 15.8413 12.8144 15.6065 12.728 15.4032L10.7455 10.7326L15.4501 12.6334C15.6549 12.7161 15.888 12.6171 15.9708 12.4123C16.0535 12.2075 15.9546 11.9744 15.7497 11.8917L11.045 9.9908L15.7159 8.00813C15.9192 7.92181 16.0141 7.68701 15.9278 7.48367C15.8414 7.28034 15.6066 7.18547 15.4033 7.27178L10.7326 9.25436L12.6333 4.54991Z" fill="#04080F"/>
</g>
<defs>
<clipPath id="clip0_20_6833">
<rect width="20" height="20" fill="white"/>
</clipPath>
</defs>
</svg>
